%TF.GenerationSoftware,KiCad,Pcbnew,5.99.0-unknown-5405c09~101~ubuntu18.04.1*%
%TF.CreationDate,2020-04-21T20:28:15+03:00*%
%TF.ProjectId,Ultrasonic Flow Sensor,556c7472-6173-46f6-9e69-6320466c6f77,rev?*%
%TF.SameCoordinates,Original*%
%TF.FileFunction,Soldermask,Bot*%
%TF.FilePolarity,Negative*%
%FSLAX46Y46*%
G04 Gerber Fmt 4.6, Leading zero omitted, Abs format (unit mm)*
G04 Created by KiCad (PCBNEW 5.99.0-unknown-5405c09~101~ubuntu18.04.1) date 2020-04-21 20:28:15*
%MOMM*%
%LPD*%
G01*
G04 APERTURE LIST*
%TA.AperFunction,Profile*%
%ADD10C,0.100000*%
%TD*%
%ADD11O,1.950000X1.700000*%
G04 APERTURE END LIST*
D10*
X141287009Y-70021467D02*
G75*
G02*
X126287009Y-96002228I-29999999J0D01*
G01*
X126287008Y-131002229D02*
X126287008Y-101642228D01*
X148287010Y-70021467D02*
X146287009Y-70021467D01*
X141287009Y-70021467D02*
X140287010Y-70021467D01*
X140287010Y-60021467D02*
X148287010Y-60021467D01*
X74287010Y-60021467D02*
X82287010Y-60021467D01*
X96287010Y-96002229D02*
X126287009Y-96002228D01*
X140287010Y-70021467D02*
X140287010Y-60021467D01*
X110437010Y-106002229D02*
X112137010Y-106002229D01*
X96287008Y-131002229D02*
X110437010Y-131002229D01*
X112137010Y-106002229D02*
X112137010Y-131002229D01*
X96274281Y-101638202D02*
G75*
G02*
X76287010Y-70021467I15012729J31616735D01*
G01*
X74287010Y-70021467D02*
X74287010Y-60021467D01*
X96287010Y-96002229D02*
G75*
G02*
X81287010Y-70021467I15000000J25980762D01*
G01*
X76287010Y-70021467D02*
X74287010Y-70021467D01*
X82287010Y-70021467D02*
X81287010Y-70021467D01*
X82287010Y-60021467D02*
X82287010Y-70021467D01*
X146285188Y-70021467D02*
G75*
G02*
X126287008Y-101642228I-34998178J0D01*
G01*
X96287008Y-131002229D02*
X96274280Y-101638202D01*
X148287010Y-60021467D02*
X148287010Y-70021467D01*
X110437010Y-131002229D02*
X110437010Y-106002229D01*
X112137010Y-131002229D02*
X126287008Y-131002229D01*
X141287009Y-70021467D02*
G75*
G02*
X126287009Y-96002228I-29999999J0D01*
G01*
X126287008Y-131002229D02*
X126287008Y-101642228D01*
X148287010Y-70021467D02*
X146287009Y-70021467D01*
X141287009Y-70021467D02*
X140287010Y-70021467D01*
X140287010Y-60021467D02*
X148287010Y-60021467D01*
X74287010Y-60021467D02*
X82287010Y-60021467D01*
X96287010Y-96002229D02*
X126287009Y-96002228D01*
X140287010Y-70021467D02*
X140287010Y-60021467D01*
X110437010Y-106002229D02*
X112137010Y-106002229D01*
X96287008Y-131002229D02*
X110437010Y-131002229D01*
X112137010Y-106002229D02*
X112137010Y-131002229D01*
X96274281Y-101638202D02*
G75*
G02*
X76287010Y-70021467I15012729J31616735D01*
G01*
X74287010Y-70021467D02*
X74287010Y-60021467D01*
X96287010Y-96002229D02*
G75*
G02*
X81287010Y-70021467I15000000J25980762D01*
G01*
X76287010Y-70021467D02*
X74287010Y-70021467D01*
X82287010Y-70021467D02*
X81287010Y-70021467D01*
X82287010Y-60021467D02*
X82287010Y-70021467D01*
X146285188Y-70021467D02*
G75*
G02*
X126287008Y-101642228I-34998178J0D01*
G01*
X96287008Y-131002229D02*
X96274280Y-101638202D01*
X148287010Y-60021467D02*
X148287010Y-70021467D01*
X110437010Y-131002229D02*
X110437010Y-106002229D01*
X112137010Y-131002229D02*
X126287008Y-131002229D01*
D11*
%TO.C,J5*%
X123999010Y-112164229D03*
X123999010Y-109664229D03*
X123999010Y-107164229D03*
G36*
G01*
X123274010Y-103814229D02*
X124724010Y-103814229D01*
G75*
G02*
X124974010Y-104064229I0J-250000D01*
G01*
X124974010Y-105264229D01*
G75*
G02*
X124724010Y-105514229I-250000J0D01*
G01*
X123274010Y-105514229D01*
G75*
G02*
X123024010Y-105264229I0J250000D01*
G01*
X123024010Y-104064229D01*
G75*
G02*
X123274010Y-103814229I250000J0D01*
G01*
G37*
%TD*%
M02*
