M48
INCH
T1C0.0157
T2C0.0236
T3C0.0374
T4C0.0394
T5C0.0354
%
G90
G05
T1
X3.0444Y-2.7094
X3.0798Y-2.8692
X3.1298Y-2.4842
X3.1998Y-2.7192
X3.5348Y-4.0742
X3.6398Y-4.0092
X3.6448Y-4.1842
X3.6648Y-4.3392
X3.6698Y-4.5342
X3.6998Y-4.1192
X3.7027Y-4.1936
X3.7248Y-3.7842
X3.7348Y-4.4392
X3.8198Y-4.6542
X3.8348Y-4.5142
X3.8498Y-4.0592
X3.8948Y-4.1542
X3.8948Y-4.2642
X3.8998Y-4.2342
X3.9048Y-4.3192
X3.9298Y-4.0692
X3.9398Y-4.2942
X4.0148Y-4.2242
X4.0298Y-4.2692
X4.0348Y-4.5792
X4.0374Y-4.1437
X4.0679Y-4.4782
X4.0924Y-4.0399
X4.0948Y-4.3842
X4.0959Y-4.2472
X4.1174Y-4.5124
X4.1401Y-4.4898
X4.3148Y-3.7892
X4.3848Y-4.6192
X4.3858Y-4.5862
X4.4073Y-4.4167
X4.4348Y-4.9242
X4.4348Y-5.0042
X4.4398Y-4.8442
X4.4448Y-5.0842
X4.4744Y-4.4486
X4.4994Y-4.4253
X4.5098Y-4.7742
X4.5298Y-4.8242
X4.5298Y-5.1042
X4.531Y-4.4249
X4.5644Y-4.4286
X4.5943Y-4.7629
X4.6098Y-4.7892
X4.6248Y-5.1042
X4.6594Y-4.5336
X4.6748Y-4.2292
X4.6748Y-4.8292
X4.7148Y-5.1042
X4.7241Y-4.1809
X4.7648Y-4.8342
X4.7844Y-4.7586
X4.7948Y-5.0892
X4.8148Y-4.8942
X4.8148Y-5.0242
X4.8198Y-4.9592
X4.8348Y-4.3792
X4.8479Y-4.3134
X4.8556Y-4.3584
X4.8918Y-4.2313
X4.9468Y-4.1863
X5.0298Y-3.7842
X5.0448Y-4.7442
X5.1248Y-4.5542
X5.1248Y-4.6542
X5.1368Y-4.1463
X5.1718Y-4.0413
X5.2648Y-4.5542
X5.2648Y-4.6542
X5.2948Y-3.7842
X5.3185Y-3.7576
X5.7248Y-2.4842
X5.7535Y-2.8291
T2
X3.1598Y-2.8742
X3.7913Y-4.9372
X3.8148Y-4.2242
X3.8548Y-4.3542
X3.8598Y-3.9942
X3.9448Y-4.5992
X4.1498Y-4.9342
X4.1559Y-3.9972
X4.1559Y-4.4372
X4.1559Y-4.7622
X4.2309Y-4.1022
X4.3148Y-4.6342
X4.3198Y-4.6742
X4.3209Y-4.2072
X4.3498Y-4.8842
X4.3548Y-4.7057
X4.3787Y-4.2603
X4.3787Y-4.4492
X4.6099Y-4.6643
X4.6668Y-4.3528
X4.7665Y-4.794
X4.9694Y-4.5136
X4.9794Y-4.9136
X5.0488Y-4.6619
X5.7098Y-2.8792
T3
X3.8198Y-3.8492
X3.9182Y-3.8492
X4.0166Y-3.8492
X4.115Y-3.8492
T4
X4.1209Y-5.0322
X4.2209Y-5.0322
X4.5798Y-3.9019
X4.6798Y-3.9019
X4.7798Y-3.9019
X4.8798Y-3.9019
X4.9798Y-3.9019
X5.0798Y-3.9019
X5.2248Y-3.9079
X5.2248Y-4.0079
X5.2248Y-4.1079
X5.2248Y-4.2079
T5
X5.0644Y-4.5269
X5.0644Y-4.7002
T0
M30
