%TF.GenerationSoftware,KiCad,Pcbnew,5.99.0-unknown-5405c09~101~ubuntu18.04.1*%
%TF.CreationDate,2020-04-21T19:36:23+03:00*%
%TF.ProjectId,Ultrasonic Flow Sensor,556c7472-6173-46f6-9e69-6320466c6f77,rev?*%
%TF.SameCoordinates,Original*%
%TF.FileFunction,Copper,L2,Bot*%
%TF.FilePolarity,Positive*%
%FSLAX46Y46*%
G04 Gerber Fmt 4.6, Leading zero omitted, Abs format (unit mm)*
G04 Created by KiCad (PCBNEW 5.99.0-unknown-5405c09~101~ubuntu18.04.1) date 2020-04-21 19:36:23*
%MOMM*%
%LPD*%
G01*
G04 APERTURE LIST*
%TA.AperFunction,Profile*%
%ADD10C,0.100000*%
%TD*%
%TA.AperFunction,ComponentPad*%
%ADD11R,1.700000X1.700000*%
%TD*%
%TA.AperFunction,ComponentPad*%
%ADD12O,1.700000X1.700000*%
%TD*%
%TA.AperFunction,ComponentPad*%
%ADD13O,1.700000X1.950000*%
%TD*%
%TA.AperFunction,ViaPad*%
%ADD14C,0.600000*%
%TD*%
%TA.AperFunction,ViaPad*%
%ADD15C,0.800000*%
%TD*%
%TA.AperFunction,Conductor*%
%ADD16C,0.250000*%
%TD*%
%TA.AperFunction,Conductor*%
%ADD17C,0.400000*%
%TD*%
%TA.AperFunction,Conductor*%
%ADD18C,0.254000*%
%TD*%
G04 APERTURE END LIST*
D10*
X149136991Y-69280010D02*
X147136990Y-69280010D01*
X142136990Y-69280010D02*
G75*
G02*
X127136990Y-95260771I-29999999J0D01*
G01*
X141136991Y-69280010D02*
X141136991Y-59280010D01*
X88684912Y-95260772D02*
X88684912Y-130260772D01*
X83136991Y-59280010D02*
X83136991Y-69280010D01*
X142136990Y-69280010D02*
X141136991Y-69280010D01*
X75136991Y-69280010D02*
X75136991Y-59280010D01*
X77136991Y-69280010D02*
X75136991Y-69280010D01*
X88684912Y-95260772D02*
G75*
G02*
X77136991Y-69280010I23452079J25980762D01*
G01*
X111286991Y-95260772D02*
X111286991Y-105260772D01*
X111286991Y-95260772D02*
X97136991Y-95260772D01*
X112986991Y-95260772D02*
X127136990Y-95260771D01*
X112986991Y-105260772D02*
X112986991Y-95260772D01*
X88684912Y-130260772D02*
X135589070Y-130260772D01*
X149136991Y-59280010D02*
X149136991Y-69280010D01*
X111286991Y-105260772D02*
X112986991Y-105260772D01*
X141136991Y-59280010D02*
X149136991Y-59280010D01*
X97136991Y-95260772D02*
G75*
G02*
X82136991Y-69280010I15000000J25980762D01*
G01*
X83136991Y-69280010D02*
X82136991Y-69280010D01*
X135589070Y-130260772D02*
X135589069Y-95260771D01*
X147136990Y-69280010D02*
G75*
G02*
X135589069Y-95260771I-34999999J0D01*
G01*
X75136991Y-59280010D02*
X83136991Y-59280010D01*
D11*
%TO.P,J1,1,Pin_1*%
%TO.N,/Mcu/NRST*%
X132708990Y-99260771D03*
D12*
%TO.P,J1,2,Pin_2*%
%TO.N,/Mcu/SWDIO*%
X132708990Y-101800771D03*
%TO.P,J1,3,Pin_3*%
%TO.N,/Mcu/SWCLK*%
X132708990Y-104340771D03*
%TO.P,J1,4,Pin_4*%
%TO.N,GND*%
X132708990Y-106880771D03*
%TD*%
%TO.P,J6,1,Pin_1*%
%TO.N,Net-(J6-Pad1)*%
%TA.AperFunction,ComponentPad*%
G36*
G01*
X96171990Y-98495771D02*
X96171990Y-97045771D01*
G75*
G02*
X96421990Y-96795771I250000J0D01*
G01*
X97621990Y-96795771D01*
G75*
G02*
X97871990Y-97045771I0J-250000D01*
G01*
X97871990Y-98495771D01*
G75*
G02*
X97621990Y-98745771I-250000J0D01*
G01*
X96421990Y-98745771D01*
G75*
G02*
X96171990Y-98495771I0J250000D01*
G01*
G37*
%TD.AperFunction*%
D13*
%TO.P,J6,2,Pin_2*%
%TO.N,Net-(J6-Pad2)*%
X99521990Y-97770771D03*
%TO.P,J6,3,Pin_3*%
%TO.N,/OP_BIAS*%
X102021990Y-97770771D03*
%TO.P,J6,4,Pin_4*%
%TO.N,GND*%
X104521990Y-97770771D03*
%TD*%
D11*
%TO.P,J3,1,Pin_1*%
%TO.N,Net-(J3-Pad1)*%
X116325990Y-99109521D03*
D12*
%TO.P,J3,2,Pin_2*%
%TO.N,Net-(J3-Pad2)*%
X118865990Y-99109521D03*
%TO.P,J3,3,Pin_3*%
%TO.N,Net-(J3-Pad3)*%
X121405990Y-99109521D03*
%TO.P,J3,4,Pin_4*%
%TO.N,Net-(J3-Pad4)*%
X123945990Y-99109521D03*
%TO.P,J3,5,Pin_5*%
%TO.N,Net-(J3-Pad5)*%
X126485990Y-99109521D03*
%TO.P,J3,6,Pin_6*%
%TO.N,GND*%
X129025990Y-99109521D03*
%TD*%
D11*
%TO.P,J4,1,Pin_1*%
%TO.N,+5V*%
X107211990Y-127818657D03*
D12*
%TO.P,J4,2,Pin_2*%
%TO.N,GND*%
X104671990Y-127818657D03*
%TD*%
D14*
%TO.N,GND*%
X119754990Y-129647771D03*
%TO.N,/RX_Y*%
X93211990Y-115169771D03*
%TO.N,/~TXRX_EN*%
X105157301Y-114040666D03*
%TO.N,Net-(C2-Pad1)*%
X81273990Y-69068771D03*
D15*
%TO.N,+5V*%
X128239695Y-118412334D03*
D14*
%TO.N,/PULSE*%
X118349990Y-115152271D03*
%TO.N,Net-(LS2-Pad2)*%
X94608990Y-96119771D03*
D15*
%TO.N,+5V*%
X111219480Y-113010771D03*
D14*
%TO.N,/OP_BIAS*%
X94862990Y-112756771D03*
%TO.N,GND*%
X128136990Y-120503771D03*
%TO.N,/USB_DP*%
X123333328Y-110702433D03*
%TO.N,/RX_Y*%
X93084990Y-110216771D03*
D15*
%TO.N,GND*%
X105560990Y-101529657D03*
D14*
%TO.N,/Mcu/NRST*%
X116694093Y-120977810D03*
%TO.N,GND*%
X114547990Y-121265771D03*
D15*
X107465990Y-104196657D03*
D14*
%TO.N,Net-(LS2-Pad2)*%
X94048609Y-106516241D03*
%TO.N,Net-(J6-Pad2)*%
X102550000Y-105249704D03*
%TO.N,/OP_BIAS*%
X97402990Y-114661771D03*
%TO.N,GND*%
X112896990Y-129139771D03*
X112642990Y-125075771D03*
X130168990Y-118217771D03*
D15*
X100196990Y-116820771D03*
D14*
%TO.N,/~TXRX_EN*%
X100069990Y-109073771D03*
%TO.N,Net-(LS2-Pad2)*%
X92576990Y-106279771D03*
%TO.N,/NSS*%
X125648490Y-106332521D03*
%TO.N,/Mcu/NRST*%
X121524990Y-120867271D03*
%TO.N,/RX_Y*%
X103947000Y-102613740D03*
%TO.N,GND*%
X121786990Y-129266771D03*
%TO.N,/PULSE*%
X104036990Y-107879657D03*
D15*
%TO.N,GND*%
X105560990Y-120960657D03*
%TO.N,VDDA*%
X109721990Y-118725771D03*
D14*
%TO.N,/OP_BIAS*%
X103323882Y-113746181D03*
D15*
%TO.N,GND*%
X109751990Y-106863657D03*
D14*
%TO.N,Net-(LS2-Pad2)*%
X92449990Y-101834771D03*
%TO.N,GND*%
X115055990Y-122535771D03*
X117468990Y-129647771D03*
%TO.N,/MISO*%
X118738990Y-107422771D03*
D15*
%TO.N,GND*%
X80257990Y-73005771D03*
D14*
%TO.N,/NSS*%
X124251490Y-107475521D03*
%TO.N,/~TXRX_EN*%
X111398626Y-116489948D03*
D15*
%TO.N,GND*%
X126223990Y-114644271D03*
D14*
%TO.N,/~TXRX_EN*%
X102355990Y-108438771D03*
%TO.N,GND*%
X115055990Y-129647771D03*
%TO.N,/RX_Y*%
X99053990Y-107549771D03*
%TO.N,/RX_X*%
X102482990Y-116312771D03*
%TO.N,GND*%
X117087990Y-121646771D03*
%TO.N,/Mcu/SWCLK*%
X131363490Y-102649521D03*
%TO.N,/TXRX_CTRL*%
X99180990Y-109708771D03*
%TO.N,GND*%
X112642990Y-127107771D03*
%TO.N,/TXRX_CTRL*%
X97783990Y-103104771D03*
D15*
%TO.N,GND*%
X97910990Y-110597771D03*
D14*
X122294990Y-124313771D03*
%TO.N,/TXRX_CTRL*%
X104582300Y-114615676D03*
%TO.N,Net-(C2-Pad1)*%
X79495990Y-63099771D03*
%TO.N,/Mcu/NRST*%
X123136990Y-109560771D03*
%TO.N,/PULSE*%
X111944490Y-112185271D03*
D15*
%TO.N,GND*%
X105560990Y-112705657D03*
D14*
%TO.N,/RX_X*%
X98926990Y-108311771D03*
%TO.N,/PULSE*%
X104006990Y-111359771D03*
%TO.N,/OP_BIAS*%
X146139095Y-71860201D03*
D15*
%TO.N,GND*%
X96298240Y-125405657D03*
D14*
%TO.N,/OP_BIAS*%
X78227667Y-72878600D03*
%TO.N,Net-(LS1-Pad2)*%
X77328332Y-68818069D03*
%TO.N,Net-(LS2-Pad2)*%
X135089060Y-95441877D03*
%TO.N,/~TXRX_EN*%
X99815990Y-103358771D03*
D15*
%TO.N,GND*%
X96894990Y-107295771D03*
%TO.N,+5V*%
X110483990Y-124059771D03*
%TO.N,GND*%
X98037990Y-101453771D03*
X126477990Y-124804271D03*
X109594990Y-117709771D03*
D14*
%TO.N,Net-(LS2-Pad2)*%
X145408990Y-63099771D03*
%TO.N,GND*%
X122294990Y-127615771D03*
X112769990Y-123043771D03*
X122421990Y-125964771D03*
%TO.N,/OP_BIAS*%
X127755990Y-96119771D03*
X97021990Y-118217771D03*
%TO.N,Net-(LS1-Pad2)*%
X93973990Y-104628771D03*
%TO.N,/Mcu/SWCLK*%
X113650990Y-112993271D03*
%TO.N,/OP_BIAS*%
X109594990Y-96246771D03*
X89782990Y-103485771D03*
D15*
%TO.N,GND*%
X121069201Y-121766453D03*
D14*
X133724990Y-118217771D03*
X133724990Y-115677771D03*
D15*
%TO.N,VDDA*%
X117092460Y-118473960D03*
D14*
%TO.N,/Mcu/NRST*%
X130474490Y-105316521D03*
%TO.N,/MISO*%
X119991730Y-106196031D03*
%TO.N,GND*%
X130168990Y-115677771D03*
%TO.N,/TXRX_CTRL*%
X111372990Y-117328771D03*
%TO.N,/Mcu/SWDIO*%
X114285990Y-112403823D03*
D15*
%TO.N,+5V*%
X110610990Y-119525781D03*
%TO.N,GND*%
X105403990Y-125329771D03*
D14*
X118738990Y-122662771D03*
%TO.N,Net-(J6-Pad1)*%
X101974990Y-107295771D03*
%TO.N,GND*%
X121024990Y-122789771D03*
D15*
%TO.N,+5V*%
X111219480Y-108211281D03*
D14*
%TO.N,/USB_DM*%
X122802990Y-111232771D03*
X115936990Y-112485271D03*
D15*
%TO.N,GND*%
X118536990Y-110560771D03*
X145027990Y-73132771D03*
D14*
%TO.N,/OP_BIAS*%
X134486990Y-96119771D03*
%TO.N,/RX_Y*%
X98926990Y-105517771D03*
%TO.N,/USB_DP*%
X115088607Y-112393252D03*
%TD*%
D16*
%TO.N,Net-(LS1-Pad2)*%
X79013626Y-79536585D02*
X78905521Y-79180722D01*
%TO.N,/OP_BIAS*%
X140823217Y-88038313D02*
X140634837Y-88323049D01*
X146215054Y-72834707D02*
X146215054Y-72948676D01*
%TO.N,Net-(LS1-Pad2)*%
X89003424Y-95111424D02*
X89020990Y-95128990D01*
%TO.N,/USB_DM*%
X122521979Y-110445760D02*
X122359240Y-110283021D01*
%TO.N,/OP_BIAS*%
X85857872Y-91284136D02*
X86095453Y-91564801D01*
%TO.N,Net-(LS1-Pad2)*%
X83529629Y-88875253D02*
X83321153Y-88567367D01*
%TO.N,/OP_BIAS*%
X143306341Y-83536416D02*
X143151699Y-83869778D01*
%TO.N,Net-(LS1-Pad2)*%
X85079801Y-90965560D02*
X84848839Y-90674202D01*
%TO.N,/OP_BIAS*%
X145702855Y-76215881D02*
X145626581Y-76575275D01*
%TO.N,Net-(LS2-Pad2)*%
X94048609Y-106516241D02*
X92813460Y-106516241D01*
%TO.N,/OP_BIAS*%
X83653563Y-88344847D02*
X83859638Y-88649186D01*
X109594990Y-96246771D02*
X110610990Y-96246771D01*
X78122133Y-73490628D02*
X78145466Y-73678868D01*
X82124645Y-85833943D02*
X82303908Y-86154868D01*
%TO.N,Net-(LS1-Pad2)*%
X77702999Y-73361044D02*
X77661216Y-72991553D01*
%TO.N,/OP_BIAS*%
X139335559Y-90136935D02*
X139362968Y-90100793D01*
%TO.N,Net-(LS2-Pad2)*%
X140744336Y-88875273D02*
X140532580Y-89180890D01*
%TO.N,/OP_BIAS*%
X144535212Y-80466108D02*
X144413365Y-80812971D01*
%TO.N,Net-(LS2-Pad2)*%
X146805074Y-69956855D02*
X146804001Y-70023619D01*
%TO.N,Net-(LS1-Pad2)*%
X82328870Y-86995272D02*
X82140552Y-86674500D01*
%TO.N,/Mcu/SWDIO*%
X125903253Y-108960760D02*
X133014490Y-101849523D01*
%TO.N,/OP_BIAS*%
X138319502Y-91398259D02*
X138416091Y-91284154D01*
X145908615Y-75132434D02*
X145843922Y-75494215D01*
X146215054Y-72948676D02*
X146173754Y-73313895D01*
X142666325Y-84859909D02*
X142497504Y-85186382D01*
%TO.N,/Mcu/SWDIO*%
X133014490Y-101849523D02*
X133014490Y-101722525D01*
%TO.N,/OP_BIAS*%
X78304543Y-74769920D02*
X78365357Y-75132394D01*
X110864990Y-105390771D02*
X111118990Y-105644771D01*
X143889098Y-82186489D02*
X143748817Y-82526364D01*
%TO.N,Net-(LS1-Pad2)*%
X85314020Y-91254606D02*
X85079801Y-90965560D01*
%TO.N,Net-(LS2-Pad2)*%
X137992951Y-92384638D02*
X137627769Y-92749820D01*
%TO.N,/OP_BIAS*%
X83251231Y-87729578D02*
X83450677Y-88038181D01*
X146128521Y-73678809D02*
X146079418Y-74042890D01*
%TO.N,Net-(LS2-Pad2)*%
X144259682Y-82337088D02*
X144117741Y-82680984D01*
%TO.N,/OP_BIAS*%
X143604974Y-82864544D02*
X143457483Y-83201224D01*
%TO.N,/Mcu/NRST*%
X116804632Y-120867271D02*
X116694093Y-120977810D01*
%TO.N,/OP_BIAS*%
X146026374Y-74406727D02*
X145969438Y-74769911D01*
X80115397Y-81502581D02*
X80248330Y-81845316D01*
X97021990Y-115042771D02*
X97402990Y-114661771D01*
%TO.N,Net-(LS1-Pad2)*%
X77661216Y-72991553D02*
X77623392Y-72621593D01*
X81774355Y-86027098D02*
X81596522Y-85700559D01*
X77469978Y-70023577D02*
X77469978Y-69153364D01*
X83741402Y-89180895D02*
X83529629Y-88875253D01*
%TO.N,/OP_BIAS*%
X140620432Y-88344822D02*
X140477765Y-88555519D01*
D17*
%TO.N,+5V*%
X127291258Y-119360771D02*
X110776000Y-119360771D01*
D16*
%TO.N,Net-(LS1-Pad2)*%
X86122310Y-92205091D02*
X86281066Y-92384681D01*
%TO.N,/OP_BIAS*%
X139110291Y-90427456D02*
X139335559Y-90136935D01*
%TO.N,Net-(LS2-Pad2)*%
X146780075Y-70767014D02*
X146762138Y-71138427D01*
%TO.N,/OP_BIAS*%
X145626581Y-76575275D02*
X145546433Y-76933937D01*
%TO.N,/USB_DP*%
X115088607Y-112393252D02*
X115088607Y-111943454D01*
%TO.N,Net-(LS2-Pad2)*%
X143822983Y-83363772D02*
X143670133Y-83702751D01*
%TO.N,Net-(LS1-Pad2)*%
X77271614Y-68955000D02*
X77271614Y-68874787D01*
%TO.N,/OP_BIAS*%
X142149366Y-85833886D02*
X142043547Y-86023328D01*
X145282915Y-78004752D02*
X145187433Y-78359749D01*
X113062625Y-105644771D02*
X113404990Y-105302406D01*
%TO.N,Net-(LS2-Pad2)*%
X136187263Y-94258779D02*
X135917944Y-94515318D01*
%TO.N,Net-(LS1-Pad2)*%
X77748765Y-73730248D02*
X77702999Y-73361044D01*
%TO.N,/OP_BIAS*%
X78227667Y-73385094D02*
X78122133Y-73490628D01*
X79738763Y-80466094D02*
X79860608Y-80812949D01*
X85163585Y-90427328D02*
X85391953Y-90715413D01*
%TO.N,Net-(LS1-Pad2)*%
X82140552Y-86674500D02*
X81955718Y-86351782D01*
%TO.N,/OP_BIAS*%
X94862990Y-112756771D02*
X95497990Y-112756771D01*
%TO.N,Net-(LS2-Pad2)*%
X137011465Y-93402490D02*
X137011465Y-93437813D01*
X141158007Y-88257236D02*
X141006219Y-88486664D01*
X144117741Y-82680984D02*
X143972223Y-83023100D01*
%TO.N,/OP_BIAS*%
X144767654Y-79768728D02*
X144653275Y-80118125D01*
X79620664Y-80118006D02*
X79738763Y-80466094D01*
%TO.N,Net-(LS2-Pad2)*%
X138960024Y-91254526D02*
X138722811Y-91540932D01*
X135917944Y-94515318D02*
X135646036Y-94768817D01*
D17*
%TO.N,+5V*%
X128239695Y-118412334D02*
X127291258Y-119360771D01*
D16*
%TO.N,/OP_BIAS*%
X88224339Y-93741422D02*
X88795839Y-94312922D01*
%TO.N,/Mcu/SWCLK*%
X117306240Y-108491521D02*
X117647490Y-108491521D01*
%TO.N,/OP_BIAS*%
X86335836Y-91842679D02*
X87208339Y-92715182D01*
%TO.N,Net-(LS2-Pad2)*%
X140317508Y-89484291D02*
X140099218Y-89785334D01*
%TO.N,/OP_BIAS*%
X142831581Y-84531752D02*
X142666325Y-84859909D01*
X79185840Y-78713741D02*
X79288869Y-79066459D01*
%TO.N,Net-(LS2-Pad2)*%
X139425073Y-90674285D02*
X139194098Y-90965661D01*
%TO.N,/OP_BIAS*%
X138881983Y-90715469D02*
X139110291Y-90427456D01*
X145469011Y-77263750D02*
X145462392Y-77291947D01*
X80967599Y-83536328D02*
X81122273Y-83869764D01*
X113404990Y-95992771D02*
X113785990Y-95611771D01*
X89421000Y-94963301D02*
X89421000Y-103123781D01*
%TO.N,Net-(LS2-Pad2)*%
X143670133Y-83702751D02*
X143513620Y-84040145D01*
X142677450Y-85700571D02*
X142499617Y-86027112D01*
%TO.N,/OP_BIAS*%
X134550490Y-95167271D02*
X138319502Y-91398259D01*
%TO.N,Net-(LS2-Pad2)*%
X141006219Y-88486664D02*
X140952872Y-88567299D01*
%TO.N,/MISO*%
X118764990Y-107422771D02*
X119991730Y-106196031D01*
%TO.N,Net-(LS2-Pad2)*%
X138722811Y-91540932D02*
X138482479Y-91824849D01*
X146650588Y-72621594D02*
X146612762Y-72991571D01*
X135270556Y-95111423D02*
X135259772Y-95346989D01*
%TO.N,/OP_BIAS*%
X81776467Y-85186369D02*
X81948812Y-85511077D01*
%TO.N,Net-(LS2-Pad2)*%
X145851324Y-77385457D02*
X145762462Y-77746539D01*
X142851819Y-85372051D02*
X142677450Y-85700571D01*
%TO.N,Net-(LS1-Pad2)*%
X86530317Y-92660620D02*
X86782560Y-92933921D01*
X87037672Y-93204449D02*
X87295688Y-93472247D01*
%TO.N,/OP_BIAS*%
X83859638Y-88649186D02*
X84068980Y-88951320D01*
X113785990Y-95611771D02*
X127247990Y-95611771D01*
%TO.N,Net-(LS1-Pad2)*%
X85551110Y-91540863D02*
X85314020Y-91254606D01*
X77798445Y-74098606D02*
X77765470Y-73854111D01*
%TO.N,/~TXRX_EN*%
X111398626Y-116489948D02*
X108949344Y-114040666D01*
%TO.N,/Mcu/SWCLK*%
X122219490Y-108491521D02*
X125521490Y-108491521D01*
%TO.N,/OP_BIAS*%
X144413365Y-80812971D02*
X144287803Y-81158511D01*
%TO.N,Net-(LS1-Pad2)*%
X90036990Y-104628771D02*
X93973990Y-104628771D01*
%TO.N,Net-(LS2-Pad2)*%
X142499617Y-86027112D02*
X142318232Y-86351834D01*
%TO.N,/OP_BIAS*%
X103323882Y-99072663D02*
X103323882Y-113746181D01*
%TO.N,/TXRX_CTRL*%
X98164990Y-103485771D02*
X97783990Y-103104771D01*
%TO.N,Net-(LS2-Pad2)*%
X146714315Y-71880606D02*
X146684437Y-72251287D01*
%TO.N,/OP_BIAS*%
X80816539Y-83201322D02*
X80967599Y-83536328D01*
%TO.N,Net-(LS2-Pad2)*%
X143353531Y-84375774D02*
X143189813Y-84709745D01*
%TO.N,/OP_BIAS*%
X78811562Y-77291844D02*
X78899402Y-77648781D01*
%TO.N,Net-(LS1-Pad2)*%
X88355988Y-94515273D02*
X88627951Y-94768824D01*
%TO.N,/Mcu/NRST*%
X126230240Y-109560771D02*
X126333615Y-109457396D01*
%TO.N,/OP_BIAS*%
X81515872Y-84677653D02*
X81607656Y-84859914D01*
%TO.N,Net-(LS1-Pad2)*%
X80156225Y-82680952D02*
X80014330Y-82337163D01*
%TO.N,/OP_BIAS*%
X78194570Y-74042958D02*
X78247613Y-74406770D01*
X79086515Y-78359638D02*
X79185840Y-78713741D01*
X85623447Y-91001096D02*
X85857872Y-91284136D01*
X82486588Y-86473823D02*
X82672706Y-86790849D01*
%TO.N,/~TXRX_EN*%
X108949344Y-114040666D02*
X105157301Y-114040666D01*
%TO.N,Net-(LS2-Pad2)*%
X146094600Y-76296796D02*
X146017412Y-76660500D01*
%TO.N,Net-(LS1-Pad2)*%
X86034725Y-92106012D02*
X85791494Y-91824841D01*
%TO.N,/Mcu/SWDIO*%
X117471301Y-108960760D02*
X125903253Y-108960760D01*
%TO.N,Net-(LS1-Pad2)*%
X77533761Y-71509617D02*
X77533761Y-70806869D01*
X78422653Y-77385444D02*
X78337652Y-77023351D01*
X81596522Y-85700559D02*
X81422165Y-85372061D01*
%TO.N,/OP_BIAS*%
X78247613Y-74406770D02*
X78304543Y-74769920D01*
%TO.N,Net-(LS2-Pad2)*%
X146017412Y-76660500D02*
X145936325Y-77023361D01*
%TO.N,/Mcu/SWCLK*%
X113523990Y-112866271D02*
X113650990Y-112993271D01*
%TO.N,/OP_BIAS*%
X141218975Y-87418689D02*
X141022780Y-87729526D01*
X142043547Y-86023328D02*
X141970070Y-86154867D01*
%TO.N,Net-(LS1-Pad2)*%
X78337652Y-77023351D02*
X78270040Y-76720788D01*
X86281066Y-92384681D02*
X86530317Y-92660620D01*
%TO.N,Net-(LS2-Pad2)*%
X142106162Y-86720943D02*
X142133421Y-86674511D01*
%TO.N,/OP_BIAS*%
X145775370Y-75855183D02*
X145702855Y-76215881D01*
%TO.N,Net-(LS2-Pad2)*%
X135646036Y-94768817D02*
X135270556Y-95111423D01*
D17*
%TO.N,+5V*%
X110776000Y-119360771D02*
X110610990Y-119525781D01*
D16*
%TO.N,/USB_DP*%
X117671301Y-109360760D02*
X122002679Y-109360760D01*
%TO.N,Net-(LS1-Pad2)*%
X80603838Y-83702731D02*
X80451002Y-83363787D01*
%TO.N,/OP_BIAS*%
X146173754Y-73313895D02*
X146128521Y-73678809D01*
%TO.N,Net-(LS1-Pad2)*%
X79241205Y-80244585D02*
X79125514Y-79891185D01*
%TO.N,Net-(J6-Pad1)*%
X101974990Y-102723771D02*
X97021990Y-97770771D01*
%TO.N,Net-(LS1-Pad2)*%
X81251364Y-85041759D02*
X81084164Y-84709741D01*
%TO.N,/OP_BIAS*%
X79288869Y-79066459D02*
X79395748Y-79418285D01*
%TO.N,Net-(LS2-Pad2)*%
X146794031Y-70395359D02*
X146780075Y-70767014D01*
%TO.N,/MISO*%
X118738990Y-107422771D02*
X118764990Y-107422771D01*
%TO.N,Net-(LS2-Pad2)*%
X92449990Y-101834771D02*
X92449990Y-98278771D01*
%TO.N,/OP_BIAS*%
X145546433Y-76933937D02*
X145469011Y-77263750D01*
%TO.N,Net-(LS2-Pad2)*%
X143972223Y-83023100D02*
X143822983Y-83363772D01*
X144663041Y-81297107D02*
X144532262Y-81645319D01*
%TO.N,/Mcu/SWCLK*%
X113650990Y-112146771D02*
X117306240Y-108491521D01*
%TO.N,Net-(LS2-Pad2)*%
X144532262Y-81645319D02*
X144397790Y-81992025D01*
%TO.N,Net-(LS1-Pad2)*%
X78119428Y-75998597D02*
X78106043Y-75932020D01*
%TO.N,/OP_BIAS*%
X142169192Y-85797481D02*
X142149366Y-85833886D01*
%TO.N,Net-(LS1-Pad2)*%
X78270040Y-76720788D02*
X78256567Y-76660493D01*
X77765470Y-73854111D02*
X77748765Y-73730248D01*
%TO.N,/OP_BIAS*%
X83450677Y-88038181D02*
X83653563Y-88344847D01*
%TO.N,/TXRX_CTRL*%
X99180990Y-109708771D02*
X98164990Y-108692771D01*
%TO.N,/OP_BIAS*%
X142993441Y-84201569D02*
X142831581Y-84531752D01*
X84068980Y-88951320D02*
X84281553Y-89251195D01*
%TO.N,Net-(LS2-Pad2)*%
X146364273Y-74834077D02*
X146302760Y-75200713D01*
%TO.N,/OP_BIAS*%
X81442384Y-84531724D02*
X81515872Y-84677653D01*
X144287803Y-81158511D02*
X144158568Y-81502615D01*
%TO.N,Net-(LS1-Pad2)*%
X77271614Y-68874787D02*
X77328332Y-68818069D01*
%TO.N,Net-(LS2-Pad2)*%
X144397790Y-81992025D02*
X144259682Y-82337088D01*
X145936325Y-77023361D02*
X145851324Y-77385457D01*
%TO.N,/OP_BIAS*%
X138416091Y-91284154D02*
X138650590Y-91001025D01*
X78647404Y-76575300D02*
X78727561Y-76934006D01*
%TO.N,Net-(LS2-Pad2)*%
X143189813Y-84709745D02*
X143022613Y-85041763D01*
%TO.N,/OP_BIAS*%
X141281318Y-87317530D02*
X141218975Y-87418689D01*
D17*
%TO.N,+5V*%
X111219480Y-108211281D02*
X111219480Y-113010771D01*
D16*
%TO.N,Net-(LS2-Pad2)*%
X141945133Y-86995234D02*
X141753485Y-87313806D01*
%TO.N,/OP_BIAS*%
X89303839Y-94846140D02*
X89421000Y-94963301D01*
X78571113Y-76215821D02*
X78647404Y-76575300D01*
X79506331Y-79768751D02*
X79620664Y-80118006D01*
%TO.N,Net-(LS1-Pad2)*%
X79876193Y-81992032D02*
X79741699Y-81645273D01*
X87295688Y-93472247D02*
X87556503Y-93737202D01*
%TO.N,/OP_BIAS*%
X138650590Y-91001025D02*
X138881983Y-90715469D01*
X141411843Y-87105737D02*
X141281318Y-87317530D01*
X144985081Y-79066557D02*
X144878254Y-79418210D01*
%TO.N,Net-(LS1-Pad2)*%
X78700816Y-78465697D02*
X78604239Y-78106629D01*
%TO.N,/OP_BIAS*%
X142043547Y-86023328D02*
X141970059Y-86154888D01*
%TO.N,Net-(J6-Pad2)*%
X99521990Y-97770771D02*
X99521990Y-99381771D01*
%TO.N,/OP_BIAS*%
X134486990Y-95230771D02*
X134550490Y-95167271D01*
%TO.N,Net-(LS2-Pad2)*%
X146804001Y-70023619D02*
X146794031Y-70395359D01*
%TO.N,/OP_BIAS*%
X141022780Y-87729526D02*
X140823217Y-88038313D01*
%TO.N,Net-(LS1-Pad2)*%
X84174802Y-89785391D02*
X83956473Y-89484294D01*
%TO.N,/OP_BIAS*%
X80669029Y-82864597D02*
X80816539Y-83201322D01*
%TO.N,Net-(LS1-Pad2)*%
X80451002Y-83363787D02*
X80301780Y-83023153D01*
%TO.N,/TXRX_CTRL*%
X109721990Y-115677771D02*
X109584025Y-115539806D01*
%TO.N,Net-(LS2-Pad2)*%
X146421880Y-74466615D02*
X146364273Y-74834077D01*
%TO.N,/USB_DP*%
X123333328Y-110691409D02*
X123333328Y-110702433D01*
%TO.N,Net-(LS2-Pad2)*%
X144790037Y-80947618D02*
X144663041Y-81297107D01*
%TO.N,Net-(J6-Pad2)*%
X102550000Y-102409781D02*
X102550000Y-102656761D01*
%TO.N,/OP_BIAS*%
X142325107Y-85511187D02*
X142169192Y-85797481D01*
%TO.N,Net-(LS1-Pad2)*%
X79360672Y-80596704D02*
X79241205Y-80244585D01*
%TO.N,/OP_BIAS*%
X140634837Y-88323049D02*
X140620432Y-88344822D01*
%TO.N,/Mcu/NRST*%
X130474490Y-105316521D02*
X126333615Y-109457396D01*
%TO.N,/OP_BIAS*%
X146079418Y-74042890D02*
X146026374Y-74406727D01*
X140414271Y-88649288D02*
X140477764Y-88555519D01*
%TO.N,/PULSE*%
X104006990Y-107909657D02*
X104036990Y-107879657D01*
%TO.N,Net-(LS1-Pad2)*%
X77909704Y-74834063D02*
X77852097Y-74466596D01*
%TO.N,/OP_BIAS*%
X79860608Y-80812949D02*
X79986195Y-81158561D01*
%TO.N,/RX_Y*%
X99053990Y-107549771D02*
X99053990Y-105644771D01*
%TO.N,/OP_BIAS*%
X144158568Y-81502615D02*
X144025620Y-81845391D01*
%TO.N,Net-(LS2-Pad2)*%
X145762462Y-77746539D02*
X145669730Y-78106667D01*
%TO.N,Net-(LS1-Pad2)*%
X84848839Y-90674202D02*
X84621052Y-90380432D01*
%TO.N,/Mcu/NRST*%
X121524990Y-120867271D02*
X116804632Y-120867271D01*
%TO.N,/OP_BIAS*%
X139776678Y-89548733D02*
X139992406Y-89251223D01*
%TO.N,Net-(LS2-Pad2)*%
X145408990Y-63099771D02*
X146297990Y-63988771D01*
%TO.N,/OP_BIAS*%
X84716307Y-89844051D02*
X84938469Y-90137002D01*
X84497388Y-89548853D02*
X84716307Y-89844051D01*
%TO.N,Net-(LS1-Pad2)*%
X78801289Y-78823889D02*
X78700816Y-78465697D01*
X87556503Y-93737202D02*
X87820249Y-93999450D01*
%TO.N,/OP_BIAS*%
X127247990Y-95611771D02*
X127755990Y-96119771D01*
X78365357Y-75132394D02*
X78430055Y-75494196D01*
X78227667Y-72878600D02*
X78227667Y-73385094D01*
%TO.N,Net-(LS2-Pad2)*%
X145573166Y-78465684D02*
X145472716Y-78823799D01*
X146302760Y-75200713D02*
X146237302Y-75566766D01*
%TO.N,/OP_BIAS*%
X140205062Y-88951229D02*
X140414271Y-88649288D01*
%TO.N,Net-(LS1-Pad2)*%
X77533761Y-70806869D02*
X77493904Y-70767012D01*
D17*
%TO.N,+5V*%
X107211990Y-127818657D02*
X107233104Y-127818657D01*
D16*
%TO.N,Net-(LS1-Pad2)*%
X78179372Y-76296759D02*
X78119428Y-75998597D01*
X85791494Y-91824841D02*
X85551110Y-91540863D01*
%TO.N,/OP_BIAS*%
X78430055Y-75494196D02*
X78498620Y-75855236D01*
%TO.N,Net-(LS1-Pad2)*%
X88627951Y-94768824D02*
X89003424Y-95111424D01*
X79483933Y-80947591D02*
X79360672Y-80596704D01*
X81955718Y-86351782D02*
X81774355Y-86027098D01*
%TO.N,/OP_BIAS*%
X110864990Y-96500771D02*
X110864990Y-105390771D01*
%TO.N,Net-(LS2-Pad2)*%
X143022613Y-85041763D02*
X142851819Y-85372051D01*
X146570981Y-73361044D02*
X146525223Y-73730181D01*
%TO.N,/PULSE*%
X118349990Y-115152271D02*
X112879490Y-115152271D01*
%TO.N,/OP_BIAS*%
X141970070Y-86154867D02*
X141787356Y-86473883D01*
%TO.N,Net-(LS2-Pad2)*%
X138239219Y-92106051D02*
X137992951Y-92384638D01*
X136717449Y-93737229D02*
X136453780Y-93999401D01*
%TO.N,/OP_BIAS*%
X80384857Y-82186428D02*
X80525125Y-82526274D01*
%TO.N,Net-(LS1-Pad2)*%
X82520509Y-87313830D02*
X82328870Y-86995272D01*
X79741699Y-81645273D02*
X79610954Y-81297148D01*
%TO.N,/OP_BIAS*%
X139992406Y-89251223D02*
X140205062Y-88951229D01*
%TO.N,Net-(LS2-Pad2)*%
X139652976Y-90380366D02*
X139425073Y-90674285D01*
%TO.N,/OP_BIAS*%
X85391953Y-90715413D02*
X85623447Y-91001096D01*
D17*
%TO.N,+5V*%
X110483990Y-119652781D02*
X110610990Y-119525781D01*
D16*
%TO.N,/OP_BIAS*%
X81268454Y-84176235D02*
X81280542Y-84201578D01*
%TO.N,Net-(LS2-Pad2)*%
X138482479Y-91824849D02*
X138239219Y-92106051D01*
%TO.N,/TXRX_CTRL*%
X111372990Y-117328771D02*
X108832990Y-114788771D01*
X111372990Y-117328771D02*
X109721990Y-115677771D01*
%TO.N,Net-(LS2-Pad2)*%
X137627769Y-92786186D02*
X137011465Y-93402490D01*
X146762138Y-71138427D02*
X146740220Y-71509605D01*
%TO.N,/OP_BIAS*%
X144653275Y-80118125D02*
X144535212Y-80466108D01*
%TO.N,Net-(LS2-Pad2)*%
X145368435Y-79180800D02*
X145260361Y-79536560D01*
%TO.N,Net-(LS1-Pad2)*%
X77493904Y-70767012D02*
X77493904Y-70047503D01*
X82715607Y-87630401D02*
X82520509Y-87313830D01*
%TO.N,Net-(LS2-Pad2)*%
X140952872Y-88567299D02*
X140744336Y-88875273D01*
%TO.N,Net-(LS1-Pad2)*%
X86122310Y-92205091D02*
X86034725Y-92106012D01*
%TO.N,/PULSE*%
X112879490Y-115152271D02*
X112752490Y-115152271D01*
%TO.N,/OP_BIAS*%
X79986195Y-81158561D02*
X80115397Y-81502581D01*
%TO.N,Net-(LS1-Pad2)*%
X77852097Y-74466596D02*
X77798445Y-74098606D01*
%TO.N,Net-(LS2-Pad2)*%
X92813460Y-106516241D02*
X92576990Y-106279771D01*
%TO.N,Net-(LS1-Pad2)*%
X87820249Y-93999450D02*
X88086761Y-94258823D01*
%TO.N,/RX_X*%
X101193979Y-108292760D02*
X102482990Y-109581771D01*
%TO.N,Net-(LS1-Pad2)*%
X84396273Y-90084030D02*
X84174802Y-89785391D01*
%TO.N,Net-(LS2-Pad2)*%
X146297990Y-63988771D02*
X146805074Y-64495855D01*
%TO.N,Net-(LS1-Pad2)*%
X88086761Y-94258823D02*
X88355988Y-94515273D01*
X78106043Y-75932020D02*
X78036678Y-75566766D01*
%TO.N,Net-(LS2-Pad2)*%
X140532580Y-89180890D02*
X140317508Y-89484291D01*
X92449990Y-98278771D02*
X94608990Y-96119771D01*
%TO.N,/TXRX_CTRL*%
X98164990Y-108692771D02*
X98164990Y-103485771D01*
%TO.N,/USB_DP*%
X115088607Y-111943454D02*
X117671301Y-109360760D01*
%TO.N,/OP_BIAS*%
X142497504Y-85186382D02*
X142325107Y-85511187D01*
X144878254Y-79418210D02*
X144779465Y-79731296D01*
%TO.N,Net-(LS2-Pad2)*%
X143513620Y-84040145D02*
X143353531Y-84375774D01*
X141359870Y-87944892D02*
X141158007Y-88257236D01*
X145260361Y-79536560D02*
X145148469Y-79891171D01*
D17*
%TO.N,VDDA*%
X109721990Y-118725771D02*
X116840649Y-118725771D01*
D16*
%TO.N,/OP_BIAS*%
X82862210Y-87105859D02*
X83054996Y-87418677D01*
%TO.N,Net-(LS2-Pad2)*%
X139194098Y-90965661D02*
X138960024Y-91254526D01*
%TO.N,/Mcu/SWCLK*%
X125521490Y-108491521D02*
X131363490Y-102649521D01*
%TO.N,/RX_Y*%
X93211990Y-110343771D02*
X93084990Y-110216771D01*
%TO.N,/RX_X*%
X102482990Y-109581771D02*
X102482990Y-116312771D01*
%TO.N,/OP_BIAS*%
X82672706Y-86790849D02*
X82862210Y-87105859D01*
%TO.N,Net-(LS1-Pad2)*%
X77493904Y-70047503D02*
X77469978Y-70023577D01*
%TO.N,/OP_BIAS*%
X95497990Y-112756771D02*
X97402990Y-114661771D01*
%TO.N,Net-(LS2-Pad2)*%
X146740220Y-71509605D02*
X146714315Y-71880606D01*
%TO.N,/OP_BIAS*%
X81280542Y-84201578D02*
X81442384Y-84531724D01*
%TO.N,Net-(LS2-Pad2)*%
X146475532Y-74098620D02*
X146421880Y-74466615D01*
%TO.N,Net-(LS1-Pad2)*%
X78905521Y-79180722D02*
X78801289Y-78823889D01*
X77565330Y-71541186D02*
X77533761Y-71509617D01*
%TO.N,/OP_BIAS*%
X143748817Y-82526364D02*
X143604974Y-82864544D01*
%TO.N,/PULSE*%
X111944490Y-114344271D02*
X111944490Y-112185271D01*
%TO.N,/OP_BIAS*%
X80525125Y-82526274D02*
X80669029Y-82864597D01*
X88795839Y-94312922D02*
X89303839Y-94820922D01*
X113404990Y-105302406D02*
X113404990Y-95992771D01*
%TO.N,Net-(LS2-Pad2)*%
X145032750Y-80244659D02*
X144913307Y-80596706D01*
X142106162Y-86720943D02*
X141945133Y-86995234D01*
%TO.N,/OP_BIAS*%
X87208339Y-92725422D02*
X88224339Y-93741422D01*
X139557647Y-89844083D02*
X139776678Y-89548733D01*
%TO.N,Net-(J6-Pad2)*%
X102550000Y-102656761D02*
X102550000Y-105249704D01*
%TO.N,/Mcu/SWDIO*%
X114285990Y-112403823D02*
X114285990Y-112146071D01*
%TO.N,Net-(LS1-Pad2)*%
X80920442Y-84375762D02*
X80760321Y-84040067D01*
%TO.N,/Mcu/NRST*%
X123136990Y-109560771D02*
X126230240Y-109560771D01*
%TO.N,Net-(LS1-Pad2)*%
X77971217Y-75200697D02*
X77909704Y-74834063D01*
%TO.N,/OP_BIAS*%
X144025620Y-81845391D02*
X143889098Y-82186489D01*
%TO.N,/USB_DM*%
X115936990Y-112485271D02*
X115936990Y-111660771D01*
%TO.N,/USB_DP*%
X122002679Y-109360760D02*
X123333328Y-110691409D01*
%TO.N,/OP_BIAS*%
X146215054Y-72834707D02*
X146215054Y-71936160D01*
%TO.N,Net-(LS2-Pad2)*%
X144913307Y-80596706D02*
X144790037Y-80947618D01*
%TO.N,Net-(LS1-Pad2)*%
X80014330Y-82337163D02*
X79876193Y-81992032D01*
%TO.N,Net-(J6-Pad2)*%
X99521990Y-99381771D02*
X102550000Y-102409781D01*
%TO.N,Net-(LS2-Pad2)*%
X137627769Y-92749820D02*
X137627769Y-92786186D01*
X136978217Y-93472321D02*
X136717449Y-93737229D01*
X136453780Y-93999401D02*
X136187263Y-94258779D01*
%TO.N,/OP_BIAS*%
X110610990Y-96246771D02*
X110864990Y-96500771D01*
X84938469Y-90137002D02*
X85163585Y-90427328D01*
X81607656Y-84859914D02*
X81776467Y-85186369D01*
X111118990Y-105644771D02*
X113062625Y-105644771D01*
%TO.N,Net-(LS2-Pad2)*%
X145669730Y-78106667D02*
X145573166Y-78465684D01*
%TO.N,Net-(LS1-Pad2)*%
X89020990Y-95128990D02*
X89020990Y-103612771D01*
X77469978Y-69153364D02*
X77271614Y-68955000D01*
%TO.N,/OP_BIAS*%
X145969438Y-74769911D02*
X145908615Y-75132434D01*
%TO.N,Net-(LS1-Pad2)*%
X83115936Y-88257180D02*
X82914104Y-87944885D01*
%TO.N,Net-(LS2-Pad2)*%
X146525223Y-73730181D02*
X146475532Y-74098620D01*
%TO.N,/OP_BIAS*%
X78498620Y-75855236D02*
X78571113Y-76215821D01*
X145187433Y-78359749D02*
X145088162Y-78713662D01*
%TO.N,Net-(LS1-Pad2)*%
X89020990Y-103612771D02*
X90036990Y-104628771D01*
X80760321Y-84040067D02*
X80603838Y-83702731D01*
D17*
%TO.N,+5V*%
X110483990Y-124059771D02*
X110483990Y-119652781D01*
D16*
%TO.N,/RX_Y*%
X99053990Y-105644771D02*
X98926990Y-105517771D01*
%TO.N,/USB_DM*%
X122521979Y-110445760D02*
X122521979Y-110951760D01*
%TO.N,/OP_BIAS*%
X80248330Y-81845316D02*
X80384857Y-82186428D01*
X146215054Y-71936160D02*
X146139095Y-71860201D01*
%TO.N,/PULSE*%
X112752490Y-115152271D02*
X111944490Y-114344271D01*
%TO.N,/TXRX_CTRL*%
X108832990Y-114788771D02*
X108659895Y-114615676D01*
%TO.N,/OP_BIAS*%
X102021990Y-97770771D02*
X103323882Y-99072663D01*
%TO.N,Net-(LS1-Pad2)*%
X83321153Y-88567367D02*
X83115936Y-88257180D01*
%TO.N,/OP_BIAS*%
X89421000Y-103123781D02*
X89782990Y-103485771D01*
X143457483Y-83201224D02*
X143306341Y-83536416D01*
X84281553Y-89251195D02*
X84497388Y-89548853D01*
D17*
%TO.N,VDDA*%
X116840649Y-118725771D02*
X117092460Y-118473960D01*
D16*
%TO.N,/OP_BIAS*%
X143151699Y-83869778D02*
X142993441Y-84201569D01*
%TO.N,/~TXRX_EN*%
X99815990Y-106349072D02*
X99815990Y-103358771D01*
%TO.N,Net-(LS1-Pad2)*%
X78511520Y-77746553D02*
X78422653Y-77385444D01*
%TO.N,/OP_BIAS*%
X82303908Y-86154868D02*
X82486588Y-86473823D01*
X145374559Y-77648851D02*
X145282915Y-78004752D01*
X144779465Y-79731296D02*
X144767654Y-79768728D01*
X79395748Y-79418285D02*
X79506331Y-79768751D01*
%TO.N,/RX_Y*%
X93211990Y-115169771D02*
X93211990Y-110343771D01*
%TO.N,Net-(LS2-Pad2)*%
X146167932Y-75932038D02*
X146094600Y-76296796D01*
%TO.N,/OP_BIAS*%
X78899402Y-77648781D02*
X78991071Y-78004784D01*
%TO.N,Net-(LS1-Pad2)*%
X81422165Y-85372061D02*
X81251364Y-85041759D01*
X78036678Y-75566766D02*
X77971217Y-75200697D01*
%TO.N,/RX_X*%
X98946001Y-108292760D02*
X101193979Y-108292760D01*
%TO.N,/PULSE*%
X104006990Y-111359771D02*
X104006990Y-107909657D01*
%TO.N,Net-(LS1-Pad2)*%
X80301780Y-83023153D02*
X80156225Y-82680952D01*
%TO.N,/NSS*%
X125648490Y-106332521D02*
X125394490Y-106332521D01*
%TO.N,/OP_BIAS*%
X89303839Y-94820922D02*
X89303839Y-94846140D01*
%TO.N,Net-(LS1-Pad2)*%
X86782560Y-92933921D02*
X87037672Y-93204449D01*
%TO.N,Net-(LS2-Pad2)*%
X137011465Y-93437813D02*
X136978217Y-93472321D01*
X141558385Y-87630379D02*
X141359870Y-87944892D01*
%TO.N,/~TXRX_EN*%
X102130839Y-108663922D02*
X99815990Y-106349072D01*
%TO.N,/OP_BIAS*%
X78145466Y-73678868D02*
X78194570Y-74042958D01*
X81948812Y-85511077D02*
X82124645Y-85833943D01*
X134486990Y-96119771D02*
X134486990Y-95230771D01*
%TO.N,Net-(LS1-Pad2)*%
X77623392Y-72621593D02*
X77589543Y-72251282D01*
X78604239Y-78106629D02*
X78511520Y-77746553D01*
%TO.N,/Mcu/SWCLK*%
X117647490Y-108491521D02*
X122219490Y-108491521D01*
%TO.N,/USB_DM*%
X121836990Y-109760771D02*
X122359240Y-110283021D01*
%TO.N,/OP_BIAS*%
X145843922Y-75494215D02*
X145775370Y-75855183D01*
X97021990Y-118217771D02*
X97021990Y-115042771D01*
X141706980Y-86610793D02*
X141787356Y-86473884D01*
%TO.N,Net-(LS2-Pad2)*%
X140099218Y-89785334D02*
X139877678Y-90084066D01*
%TO.N,/Mcu/SWDIO*%
X114158990Y-112276823D02*
X114285990Y-112403823D01*
%TO.N,/Mcu/SWCLK*%
X113650990Y-112993271D02*
X113650990Y-112146771D01*
%TO.N,Net-(LS1-Pad2)*%
X78256567Y-76660493D02*
X78179372Y-76296759D01*
%TO.N,Net-(LS2-Pad2)*%
X146612762Y-72991571D02*
X146570981Y-73361044D01*
%TO.N,/OP_BIAS*%
X139362968Y-90100793D02*
X139557647Y-89844083D01*
%TO.N,/USB_DM*%
X117836990Y-109760771D02*
X121836990Y-109760771D01*
%TO.N,/OP_BIAS*%
X86095453Y-91564801D02*
X86335836Y-91842679D01*
X81122273Y-83869764D02*
X81268454Y-84176235D01*
%TO.N,Net-(C2-Pad1)*%
X81273990Y-69068771D02*
X81273990Y-64877771D01*
%TO.N,/NSS*%
X125394490Y-106332521D02*
X124251490Y-107475521D01*
%TO.N,/OP_BIAS*%
X78727561Y-76934006D02*
X78811562Y-77291844D01*
%TO.N,Net-(LS2-Pad2)*%
X141753485Y-87313806D02*
X141558385Y-87630379D01*
%TO.N,/TXRX_CTRL*%
X108659895Y-114615676D02*
X104582300Y-114615676D01*
%TO.N,/USB_DM*%
X115936990Y-111660771D02*
X117836990Y-109760771D01*
%TO.N,/OP_BIAS*%
X145088162Y-78713662D02*
X144985081Y-79066557D01*
%TO.N,Net-(LS1-Pad2)*%
X77589543Y-72251282D02*
X77565330Y-71950892D01*
%TO.N,Net-(LS2-Pad2)*%
X145472716Y-78823799D02*
X145368435Y-79180800D01*
%TO.N,/~TXRX_EN*%
X102355990Y-108438771D02*
X102130839Y-108663922D01*
%TO.N,Net-(LS1-Pad2)*%
X81084164Y-84709741D02*
X80920442Y-84375762D01*
%TO.N,Net-(LS2-Pad2)*%
X142133421Y-86674511D02*
X142318232Y-86351834D01*
%TO.N,Net-(LS1-Pad2)*%
X79610954Y-81297148D02*
X79483933Y-80947591D01*
%TO.N,Net-(LS2-Pad2)*%
X139877678Y-90084066D02*
X139652976Y-90380366D01*
X146684437Y-72251287D02*
X146650588Y-72621594D01*
%TO.N,/OP_BIAS*%
X141706980Y-86610793D02*
X141601248Y-86790893D01*
X145462392Y-77291947D02*
X145374559Y-77648851D01*
X87208339Y-92715182D02*
X87208339Y-92725422D01*
X83054996Y-87418677D02*
X83251231Y-87729578D01*
%TO.N,Net-(LS1-Pad2)*%
X77565330Y-71950892D02*
X77565330Y-71541186D01*
%TO.N,Net-(C2-Pad1)*%
X81273990Y-64877771D02*
X79495990Y-63099771D01*
%TO.N,/USB_DM*%
X122521979Y-110951760D02*
X122802990Y-111232771D01*
%TO.N,/Mcu/SWDIO*%
X114285990Y-112146071D02*
X117471301Y-108960760D01*
%TO.N,Net-(LS2-Pad2)*%
X135270556Y-95111423D02*
X135248990Y-95132989D01*
%TO.N,Net-(J6-Pad1)*%
X101974990Y-107295771D02*
X101974990Y-102723771D01*
%TO.N,Net-(LS1-Pad2)*%
X83956473Y-89484294D02*
X83741402Y-89180895D01*
%TO.N,/RX_X*%
X98926990Y-108311771D02*
X98946001Y-108292760D01*
%TO.N,Net-(LS2-Pad2)*%
X145148469Y-79891171D02*
X145032750Y-80244659D01*
X146805074Y-64495855D02*
X146805074Y-69956855D01*
%TO.N,Net-(LS1-Pad2)*%
X79125514Y-79891185D02*
X79013626Y-79536585D01*
%TO.N,Net-(LS2-Pad2)*%
X146237302Y-75566766D02*
X146167932Y-75932038D01*
%TO.N,Net-(LS1-Pad2)*%
X82914104Y-87944885D02*
X82715607Y-87630401D01*
%TO.N,/OP_BIAS*%
X141601248Y-86790893D02*
X141411843Y-87105737D01*
%TO.N,/~TXRX_EN*%
X111398626Y-116489948D02*
X109873474Y-114964796D01*
%TO.N,Net-(LS1-Pad2)*%
X84621052Y-90380432D02*
X84396273Y-90084030D01*
%TO.N,/OP_BIAS*%
X78991071Y-78004784D02*
X79086515Y-78359638D01*
%TD*%
%TO.N,GND*%
G36*
X82502992Y-68646010D02*
G01*
X82218573Y-68646010D01*
X82211526Y-68645082D01*
X82129754Y-68646010D01*
X82112287Y-68646010D01*
X82034990Y-68518378D01*
X82034990Y-64822592D01*
X82034989Y-64822580D01*
X82034989Y-64767281D01*
X82031887Y-64747693D01*
X82016254Y-64699579D01*
X82008337Y-64649594D01*
X82002208Y-64630733D01*
X81979237Y-64585650D01*
X81963600Y-64537525D01*
X81954596Y-64519853D01*
X81924852Y-64478915D01*
X81901884Y-64433837D01*
X81890227Y-64417792D01*
X81740981Y-64268547D01*
X80427415Y-62954982D01*
X80365409Y-62732900D01*
X80358586Y-62717133D01*
X80234722Y-62512610D01*
X80223911Y-62499259D01*
X80049610Y-62335580D01*
X80035606Y-62325628D01*
X79823710Y-62214852D01*
X79807546Y-62209032D01*
X79573666Y-62159319D01*
X79556532Y-62158061D01*
X79317897Y-62173075D01*
X79301057Y-62176471D01*
X79075252Y-62255104D01*
X79059945Y-62262904D01*
X78863603Y-62399364D01*
X78850957Y-62410993D01*
X78698545Y-62595227D01*
X78689492Y-62609828D01*
X78592238Y-62828262D01*
X78587445Y-62844760D01*
X78552517Y-63081300D01*
X78552337Y-63098479D01*
X78582305Y-63335699D01*
X78586751Y-63352293D01*
X78679408Y-63572716D01*
X78688153Y-63587504D01*
X78836673Y-63774889D01*
X78849073Y-63786780D01*
X79042513Y-63927323D01*
X79057654Y-63935441D01*
X79281764Y-64018787D01*
X79298530Y-64022534D01*
X79346573Y-64026569D01*
X80512991Y-65192987D01*
X80512990Y-68520172D01*
X80476545Y-68564227D01*
X80467492Y-68578828D01*
X80370238Y-68797262D01*
X80365445Y-68813760D01*
X80330517Y-69050300D01*
X80330337Y-69067479D01*
X80360305Y-69304699D01*
X80364751Y-69321293D01*
X80457408Y-69541716D01*
X80466153Y-69556504D01*
X80614673Y-69743889D01*
X80627073Y-69755780D01*
X80820513Y-69896323D01*
X80835654Y-69904441D01*
X81059764Y-69987787D01*
X81076530Y-69991534D01*
X81314797Y-70011542D01*
X81331953Y-70010643D01*
X81509830Y-69976712D01*
X81516217Y-70342633D01*
X81516466Y-70345439D01*
X81516374Y-70348748D01*
X81516889Y-70359875D01*
X81516908Y-70360258D01*
X81571956Y-71410633D01*
X81572303Y-71413425D01*
X81572326Y-71416753D01*
X81573230Y-71427851D01*
X81573262Y-71428228D01*
X81664933Y-72476043D01*
X81665376Y-72478819D01*
X81665516Y-72482141D01*
X81666808Y-72493206D01*
X81666852Y-72493579D01*
X81795036Y-73537555D01*
X81795575Y-73540310D01*
X81795831Y-73543630D01*
X81797508Y-73554643D01*
X81797566Y-73555014D01*
X81962106Y-74593881D01*
X81962740Y-74596611D01*
X81963110Y-74599913D01*
X81965170Y-74610862D01*
X81965241Y-74611237D01*
X82165938Y-75643732D01*
X82166671Y-75646452D01*
X82167156Y-75649737D01*
X82169596Y-75660604D01*
X82169680Y-75660971D01*
X82406287Y-76685829D01*
X82407113Y-76688519D01*
X82407712Y-76691780D01*
X82410529Y-76702556D01*
X82410627Y-76702926D01*
X82682858Y-77718908D01*
X82683777Y-77721565D01*
X82684489Y-77724804D01*
X82687682Y-77735477D01*
X82687792Y-77735840D01*
X82995313Y-78741696D01*
X82996326Y-78744324D01*
X82997149Y-78747531D01*
X83000710Y-78758082D01*
X83000835Y-78758448D01*
X83343273Y-79752963D01*
X83344376Y-79755551D01*
X83345311Y-79758729D01*
X83349239Y-79769151D01*
X83349376Y-79769511D01*
X83726314Y-80751470D01*
X83727508Y-80754023D01*
X83728554Y-80757165D01*
X83732843Y-80767444D01*
X83732992Y-80767797D01*
X84143969Y-81735999D01*
X84145250Y-81738505D01*
X84146407Y-81741615D01*
X84151052Y-81751736D01*
X84151212Y-81752083D01*
X84595731Y-82705356D01*
X84597096Y-82707812D01*
X84598365Y-82710889D01*
X84603363Y-82720843D01*
X84603532Y-82721178D01*
X85081045Y-83658352D01*
X85082498Y-83660763D01*
X85083866Y-83663780D01*
X85089206Y-83673553D01*
X85089392Y-83673891D01*
X85599324Y-84593832D01*
X85600856Y-84596184D01*
X85602336Y-84599166D01*
X85608015Y-84608747D01*
X85608209Y-84609072D01*
X86149935Y-85510656D01*
X86151552Y-85512959D01*
X86153129Y-85515876D01*
X86159139Y-85525254D01*
X86159346Y-85525575D01*
X86732208Y-86407705D01*
X86733904Y-86409949D01*
X86735585Y-86412814D01*
X86741920Y-86421978D01*
X86742135Y-86422287D01*
X87345431Y-87283883D01*
X87347203Y-87286066D01*
X87348977Y-87288861D01*
X87355626Y-87297798D01*
X87355858Y-87298107D01*
X87988859Y-88138128D01*
X87990705Y-88140246D01*
X87992577Y-88142980D01*
X87999534Y-88151680D01*
X87999776Y-88151981D01*
X88661710Y-88969400D01*
X88663629Y-88971453D01*
X88665599Y-88974124D01*
X88672856Y-88982575D01*
X88673105Y-88982863D01*
X89363156Y-89776677D01*
X89365147Y-89778662D01*
X89367214Y-89781270D01*
X89374759Y-89789460D01*
X89375018Y-89789739D01*
X90092355Y-90558988D01*
X90094409Y-90560898D01*
X90096571Y-90563439D01*
X90104399Y-90571360D01*
X90104664Y-90571627D01*
X90848409Y-91315373D01*
X90850536Y-91317217D01*
X90852775Y-91319669D01*
X90860874Y-91327313D01*
X90861151Y-91327573D01*
X91630403Y-92044912D01*
X91632590Y-92046678D01*
X91634911Y-92049048D01*
X91643274Y-92056407D01*
X91643561Y-92056658D01*
X92437377Y-92746712D01*
X92439626Y-92748402D01*
X92442034Y-92750695D01*
X92450647Y-92757756D01*
X92450940Y-92757995D01*
X93268354Y-93419923D01*
X93270657Y-93421531D01*
X93273142Y-93423737D01*
X93281996Y-93430494D01*
X93282300Y-93430724D01*
X94122316Y-94063723D01*
X94124677Y-94065252D01*
X94127230Y-94067364D01*
X94136313Y-94073807D01*
X94136631Y-94074031D01*
X94998233Y-94677331D01*
X95000649Y-94678778D01*
X95003272Y-94680798D01*
X95012577Y-94686922D01*
X95012897Y-94687131D01*
X95895028Y-95259994D01*
X95897486Y-95261352D01*
X95900183Y-95263283D01*
X95909697Y-95269079D01*
X95910024Y-95269277D01*
X96811609Y-95811003D01*
X96819602Y-95815063D01*
X96879061Y-95840117D01*
X96941690Y-95869522D01*
X96959245Y-95874830D01*
X96962642Y-95875338D01*
X96966100Y-95876795D01*
X96983465Y-95881351D01*
X97067242Y-95890970D01*
X97088043Y-95894079D01*
X97097367Y-95894772D01*
X97100352Y-95894772D01*
X97145866Y-95899998D01*
X97163812Y-95899496D01*
X97191305Y-95894772D01*
X108727075Y-95894772D01*
X108691238Y-95975262D01*
X108686445Y-95991760D01*
X108651517Y-96228300D01*
X108651337Y-96245479D01*
X108681305Y-96482699D01*
X108685751Y-96499293D01*
X108778408Y-96719716D01*
X108787153Y-96734504D01*
X108935673Y-96921889D01*
X108948073Y-96933780D01*
X109141513Y-97074323D01*
X109156654Y-97082441D01*
X109380764Y-97165787D01*
X109397530Y-97169534D01*
X109635797Y-97189542D01*
X109652953Y-97188643D01*
X109887823Y-97143840D01*
X109904106Y-97138360D01*
X110103990Y-97039136D01*
X110103991Y-105290198D01*
X110103991Y-105501260D01*
X110107093Y-105520849D01*
X110122729Y-105568970D01*
X110130644Y-105618948D01*
X110136773Y-105637811D01*
X110159743Y-105682889D01*
X110175379Y-105731014D01*
X110184383Y-105748686D01*
X110214128Y-105789627D01*
X110237098Y-105834706D01*
X110248755Y-105850751D01*
X110492042Y-106094037D01*
X110492043Y-106094040D01*
X110659010Y-106261007D01*
X110675056Y-106272665D01*
X110720143Y-106295639D01*
X110761074Y-106325377D01*
X110778745Y-106334381D01*
X110826861Y-106350015D01*
X110871951Y-106372989D01*
X110890813Y-106379118D01*
X110940795Y-106387034D01*
X110988910Y-106402667D01*
X111008498Y-106405770D01*
X111063799Y-106405770D01*
X111063811Y-106405771D01*
X113117804Y-106405771D01*
X113117816Y-106405770D01*
X113173114Y-106405770D01*
X113192703Y-106402668D01*
X113240818Y-106387034D01*
X113290801Y-106379118D01*
X113309664Y-106372989D01*
X113354751Y-106350016D01*
X113402869Y-106334382D01*
X113420541Y-106325377D01*
X113461472Y-106295638D01*
X113506559Y-106272665D01*
X113522605Y-106261007D01*
X114021226Y-105762386D01*
X114032884Y-105746341D01*
X114055856Y-105701256D01*
X114085595Y-105660323D01*
X114094600Y-105642652D01*
X114110235Y-105594533D01*
X114133208Y-105549445D01*
X114139336Y-105530583D01*
X114147253Y-105480601D01*
X114162887Y-105432486D01*
X114165989Y-105412897D01*
X114165989Y-105357597D01*
X114165990Y-105357585D01*
X114165990Y-98254020D01*
X114834153Y-98254020D01*
X114834153Y-99967779D01*
X114836309Y-99984155D01*
X114911127Y-100263380D01*
X114923870Y-100287860D01*
X115054980Y-100444111D01*
X115071869Y-100458282D01*
X115246110Y-100558880D01*
X115266827Y-100566421D01*
X115459528Y-100600399D01*
X115470489Y-100601358D01*
X117184248Y-100601358D01*
X117200624Y-100599202D01*
X117479849Y-100524384D01*
X117504329Y-100511641D01*
X117660580Y-100380531D01*
X117674751Y-100363642D01*
X117775349Y-100189401D01*
X117782890Y-100168684D01*
X117789515Y-100131114D01*
X117864788Y-100211553D01*
X117872712Y-100218701D01*
X118064782Y-100364489D01*
X118073798Y-100370200D01*
X118287686Y-100481542D01*
X118297535Y-100485652D01*
X118527124Y-100559365D01*
X118537525Y-100561757D01*
X118776252Y-100595733D01*
X118786907Y-100596338D01*
X119027946Y-100589605D01*
X119038551Y-100588406D01*
X119275009Y-100541157D01*
X119285260Y-100538188D01*
X119510377Y-100451774D01*
X119519981Y-100447121D01*
X119727320Y-100324012D01*
X119736002Y-100317807D01*
X119919635Y-100161525D01*
X119927148Y-100153945D01*
X120081823Y-99968956D01*
X120087952Y-99960219D01*
X120135476Y-99878564D01*
X120233420Y-100027105D01*
X120240028Y-100035486D01*
X120404788Y-100211553D01*
X120412712Y-100218701D01*
X120604782Y-100364489D01*
X120613798Y-100370200D01*
X120827686Y-100481542D01*
X120837535Y-100485652D01*
X121067124Y-100559365D01*
X121077525Y-100561757D01*
X121316252Y-100595733D01*
X121326907Y-100596338D01*
X121567946Y-100589605D01*
X121578551Y-100588406D01*
X121815009Y-100541157D01*
X121825260Y-100538188D01*
X122050377Y-100451774D01*
X122059981Y-100447121D01*
X122267320Y-100324012D01*
X122276002Y-100317807D01*
X122459635Y-100161525D01*
X122467148Y-100153945D01*
X122621823Y-99968956D01*
X122627952Y-99960219D01*
X122675476Y-99878564D01*
X122773420Y-100027105D01*
X122780028Y-100035486D01*
X122944788Y-100211553D01*
X122952712Y-100218701D01*
X123144782Y-100364489D01*
X123153798Y-100370200D01*
X123367686Y-100481542D01*
X123377535Y-100485652D01*
X123607124Y-100559365D01*
X123617525Y-100561757D01*
X123856252Y-100595733D01*
X123866907Y-100596338D01*
X124107946Y-100589605D01*
X124118551Y-100588406D01*
X124355009Y-100541157D01*
X124365260Y-100538188D01*
X124590377Y-100451774D01*
X124599981Y-100447121D01*
X124807320Y-100324012D01*
X124816002Y-100317807D01*
X124999635Y-100161525D01*
X125007148Y-100153945D01*
X125161823Y-99968956D01*
X125167952Y-99960219D01*
X125215476Y-99878564D01*
X125313420Y-100027105D01*
X125320028Y-100035486D01*
X125484788Y-100211553D01*
X125492712Y-100218701D01*
X125684782Y-100364489D01*
X125693798Y-100370200D01*
X125907686Y-100481542D01*
X125917535Y-100485652D01*
X126147124Y-100559365D01*
X126157525Y-100561757D01*
X126396252Y-100595733D01*
X126406907Y-100596338D01*
X126647946Y-100589605D01*
X126658551Y-100588406D01*
X126895009Y-100541157D01*
X126905260Y-100538188D01*
X127130377Y-100451774D01*
X127139981Y-100447121D01*
X127347320Y-100324012D01*
X127356002Y-100317807D01*
X127539635Y-100161525D01*
X127547148Y-100153945D01*
X127701823Y-99968956D01*
X127707952Y-99960219D01*
X127755476Y-99878564D01*
X127853420Y-100027105D01*
X127860028Y-100035486D01*
X128024788Y-100211553D01*
X128032712Y-100218701D01*
X128224782Y-100364489D01*
X128233798Y-100370200D01*
X128447686Y-100481542D01*
X128457535Y-100485652D01*
X128687124Y-100559366D01*
X128697525Y-100561757D01*
X128811152Y-100577928D01*
X128897187Y-100503269D01*
X129153989Y-100503269D01*
X129246207Y-100578883D01*
X129435009Y-100541157D01*
X129445260Y-100538188D01*
X129670377Y-100451774D01*
X129679981Y-100447121D01*
X129887320Y-100324012D01*
X129896002Y-100317807D01*
X130079635Y-100161525D01*
X130087148Y-100153945D01*
X130241823Y-99968956D01*
X130247952Y-99960219D01*
X130369246Y-99751815D01*
X130373815Y-99742171D01*
X130458262Y-99516308D01*
X130461141Y-99506032D01*
X130494933Y-99328891D01*
X130419346Y-99237521D01*
X129227799Y-99237520D01*
X129153990Y-99311329D01*
X129153989Y-100503269D01*
X128897187Y-100503269D01*
X128897990Y-100502573D01*
X128897991Y-99311329D01*
X128897990Y-99311328D01*
X128897990Y-98907712D01*
X129153989Y-98907712D01*
X129227798Y-98981521D01*
X130418853Y-98981522D01*
X130494363Y-98892009D01*
X130468489Y-98740635D01*
X130465807Y-98730305D01*
X130385713Y-98502864D01*
X130381329Y-98493133D01*
X130264057Y-98282437D01*
X130258097Y-98273585D01*
X130107003Y-98085661D01*
X130099637Y-98077938D01*
X129919039Y-97918159D01*
X129910476Y-97911788D01*
X129705539Y-97784723D01*
X129696026Y-97779886D01*
X129472609Y-97689166D01*
X129462417Y-97686001D01*
X129248086Y-97638877D01*
X129153990Y-97714532D01*
X129153989Y-98907712D01*
X128897990Y-98907712D01*
X128897991Y-97715722D01*
X128812971Y-97640503D01*
X128725464Y-97651247D01*
X128715020Y-97653439D01*
X128484058Y-97722731D01*
X128474132Y-97726651D01*
X128258145Y-97833867D01*
X128249022Y-97839403D01*
X128054189Y-97981478D01*
X128046128Y-97988473D01*
X127878019Y-98161343D01*
X127871253Y-98169595D01*
X127755219Y-98338424D01*
X127724057Y-98282437D01*
X127718097Y-98273585D01*
X127567003Y-98085661D01*
X127559637Y-98077938D01*
X127379039Y-97918159D01*
X127370476Y-97911788D01*
X127165539Y-97784723D01*
X127156026Y-97779886D01*
X126932609Y-97689166D01*
X126922417Y-97686001D01*
X126686909Y-97634221D01*
X126676330Y-97632819D01*
X126435465Y-97621460D01*
X126424799Y-97621860D01*
X126185464Y-97651248D01*
X126175020Y-97653439D01*
X125944058Y-97722731D01*
X125934132Y-97726651D01*
X125718145Y-97833867D01*
X125709022Y-97839403D01*
X125514189Y-97981478D01*
X125506128Y-97988473D01*
X125338019Y-98161343D01*
X125331253Y-98169595D01*
X125215219Y-98338424D01*
X125184057Y-98282437D01*
X125178097Y-98273585D01*
X125027003Y-98085661D01*
X125019637Y-98077938D01*
X124839039Y-97918159D01*
X124830476Y-97911788D01*
X124625539Y-97784723D01*
X124616026Y-97779886D01*
X124392609Y-97689166D01*
X124382417Y-97686001D01*
X124146909Y-97634221D01*
X124136330Y-97632819D01*
X123895465Y-97621460D01*
X123884799Y-97621860D01*
X123645464Y-97651248D01*
X123635020Y-97653439D01*
X123404058Y-97722731D01*
X123394132Y-97726651D01*
X123178145Y-97833867D01*
X123169022Y-97839403D01*
X122974189Y-97981478D01*
X122966128Y-97988473D01*
X122798019Y-98161343D01*
X122791253Y-98169595D01*
X122675219Y-98338424D01*
X122644057Y-98282437D01*
X122638097Y-98273585D01*
X122487003Y-98085661D01*
X122479637Y-98077938D01*
X122299039Y-97918159D01*
X122290476Y-97911788D01*
X122085539Y-97784723D01*
X122076026Y-97779886D01*
X121852609Y-97689166D01*
X121842417Y-97686001D01*
X121606909Y-97634221D01*
X121596330Y-97632819D01*
X121355465Y-97621460D01*
X121344799Y-97621860D01*
X121105464Y-97651248D01*
X121095020Y-97653439D01*
X120864058Y-97722731D01*
X120854132Y-97726651D01*
X120638145Y-97833867D01*
X120629022Y-97839403D01*
X120434189Y-97981478D01*
X120426128Y-97988473D01*
X120258019Y-98161343D01*
X120251253Y-98169595D01*
X120135219Y-98338424D01*
X120104057Y-98282437D01*
X120098097Y-98273585D01*
X119947003Y-98085661D01*
X119939637Y-98077938D01*
X119759039Y-97918159D01*
X119750476Y-97911788D01*
X119545539Y-97784723D01*
X119536026Y-97779886D01*
X119312609Y-97689166D01*
X119302417Y-97686001D01*
X119066909Y-97634221D01*
X119056330Y-97632819D01*
X118815465Y-97621460D01*
X118804799Y-97621860D01*
X118565464Y-97651248D01*
X118555020Y-97653439D01*
X118324058Y-97722731D01*
X118314132Y-97726651D01*
X118098145Y-97833867D01*
X118089022Y-97839403D01*
X117894189Y-97981478D01*
X117886128Y-97988473D01*
X117779127Y-98098504D01*
X117740853Y-97955663D01*
X117728110Y-97931183D01*
X117597000Y-97774931D01*
X117580111Y-97760760D01*
X117405870Y-97660162D01*
X117385153Y-97652621D01*
X117192452Y-97618643D01*
X117181491Y-97617684D01*
X115467732Y-97617684D01*
X115451356Y-97619840D01*
X115172132Y-97694658D01*
X115147652Y-97707401D01*
X114991400Y-97838511D01*
X114977229Y-97855400D01*
X114876631Y-98029641D01*
X114869090Y-98050358D01*
X114835112Y-98243059D01*
X114834153Y-98254020D01*
X114165990Y-98254020D01*
X114165990Y-96372771D01*
X126846952Y-96372771D01*
X126939408Y-96592716D01*
X126948153Y-96607504D01*
X127096673Y-96794889D01*
X127109073Y-96806780D01*
X127302513Y-96947323D01*
X127317654Y-96955441D01*
X127541764Y-97038787D01*
X127558530Y-97042534D01*
X127796797Y-97062542D01*
X127813953Y-97061643D01*
X128048823Y-97016840D01*
X128065106Y-97011360D01*
X128279276Y-96905044D01*
X128293485Y-96895388D01*
X128471175Y-96735396D01*
X128482264Y-96722274D01*
X128610383Y-96520389D01*
X128617534Y-96504769D01*
X128686740Y-96275552D01*
X128689439Y-96257914D01*
X128692126Y-96001207D01*
X128689798Y-95983517D01*
X128625409Y-95752900D01*
X128618586Y-95737133D01*
X128494722Y-95532610D01*
X128483911Y-95519259D01*
X128309610Y-95355580D01*
X128295606Y-95345628D01*
X128264206Y-95329212D01*
X128367636Y-95267065D01*
X128369939Y-95265448D01*
X128372856Y-95263871D01*
X128382234Y-95257861D01*
X128382555Y-95257654D01*
X129264686Y-94684792D01*
X129266930Y-94683096D01*
X129269795Y-94681415D01*
X129278959Y-94675080D01*
X129279268Y-94674865D01*
X130140864Y-94071569D01*
X130143047Y-94069797D01*
X130145842Y-94068023D01*
X130154779Y-94061374D01*
X130155088Y-94061142D01*
X130995109Y-93428141D01*
X130997224Y-93426298D01*
X130999969Y-93424418D01*
X131008667Y-93417461D01*
X131008964Y-93417222D01*
X131826378Y-92755294D01*
X131828436Y-92753370D01*
X131831107Y-92751400D01*
X131839556Y-92744145D01*
X131839844Y-92743896D01*
X132633661Y-92053842D01*
X132635651Y-92051846D01*
X132638249Y-92049787D01*
X132646440Y-92042241D01*
X132646720Y-92041982D01*
X133415968Y-91324645D01*
X133417878Y-91322591D01*
X133420419Y-91320429D01*
X133428340Y-91312601D01*
X133428607Y-91312336D01*
X134172353Y-90568591D01*
X134174197Y-90566464D01*
X134176649Y-90564225D01*
X134184293Y-90556126D01*
X134184553Y-90555849D01*
X134901892Y-89786598D01*
X134903658Y-89784411D01*
X134906028Y-89782090D01*
X134913387Y-89773727D01*
X134913638Y-89773440D01*
X135603693Y-88979624D01*
X135605383Y-88977375D01*
X135607676Y-88974967D01*
X135614737Y-88966354D01*
X135614976Y-88966061D01*
X136276904Y-88148647D01*
X136278514Y-88146342D01*
X136280713Y-88143865D01*
X136287469Y-88135012D01*
X136287703Y-88134703D01*
X136920704Y-87294683D01*
X136922236Y-87292317D01*
X136924351Y-87289760D01*
X136930793Y-87280677D01*
X136931012Y-87280366D01*
X137534311Y-86418768D01*
X137535758Y-86416352D01*
X137537778Y-86413729D01*
X137543902Y-86404424D01*
X137544111Y-86404104D01*
X138116974Y-85521972D01*
X138118332Y-85519514D01*
X138120263Y-85516817D01*
X138126059Y-85507303D01*
X138126257Y-85506976D01*
X138667984Y-84605390D01*
X138669255Y-84602887D01*
X138671095Y-84600117D01*
X138676553Y-84590408D01*
X138676738Y-84590077D01*
X139186669Y-83670138D01*
X139187853Y-83667590D01*
X139189595Y-83664758D01*
X139194711Y-83654865D01*
X139194885Y-83654527D01*
X139672398Y-82717352D01*
X139673491Y-82714768D01*
X139675137Y-82711870D01*
X139679905Y-82701804D01*
X139680065Y-82701463D01*
X140124581Y-81748197D01*
X140125588Y-81745563D01*
X140127122Y-81742629D01*
X140131535Y-81732407D01*
X140131687Y-81732052D01*
X140542666Y-80763846D01*
X140543579Y-80761184D01*
X140545009Y-80758198D01*
X140549064Y-80747826D01*
X140549204Y-80747465D01*
X140926143Y-79765505D01*
X140926961Y-79762818D01*
X140928291Y-79759773D01*
X140931981Y-79749264D01*
X140932106Y-79748905D01*
X141274543Y-78754396D01*
X141275269Y-78751673D01*
X141276488Y-78748593D01*
X141279809Y-78737965D01*
X141279923Y-78737595D01*
X141587446Y-77731732D01*
X141588075Y-77728990D01*
X141589189Y-77725861D01*
X141592137Y-77715117D01*
X141592235Y-77714755D01*
X141864465Y-76698780D01*
X141864997Y-76696025D01*
X141866004Y-76692849D01*
X141868574Y-76682011D01*
X141868660Y-76681644D01*
X142105267Y-75656785D01*
X142105702Y-75654014D01*
X142106594Y-75650821D01*
X142108786Y-75639899D01*
X142108861Y-75639520D01*
X142309558Y-74607025D01*
X142309897Y-74604233D01*
X142310679Y-74601001D01*
X142312487Y-74590011D01*
X142312547Y-74589638D01*
X142477087Y-73550772D01*
X142477328Y-73547977D01*
X142477999Y-73544707D01*
X142479422Y-73533660D01*
X142479468Y-73533290D01*
X142607652Y-72489316D01*
X142607795Y-72486514D01*
X142608350Y-72483233D01*
X142609388Y-72472143D01*
X142609422Y-72471766D01*
X142701094Y-71423948D01*
X142701139Y-71421145D01*
X142701579Y-71417850D01*
X142702229Y-71406729D01*
X142702250Y-71406349D01*
X142757298Y-70355975D01*
X142757245Y-70353157D01*
X142757568Y-70349865D01*
X142757830Y-70338732D01*
X142757838Y-70338345D01*
X142776195Y-69286684D01*
X142775714Y-69277732D01*
X142771272Y-69242324D01*
X142771517Y-69202151D01*
X142769081Y-69184364D01*
X142760028Y-69152690D01*
X142755927Y-69119994D01*
X142751190Y-69102678D01*
X142735197Y-69065807D01*
X142724159Y-69027188D01*
X142716828Y-69010800D01*
X142699252Y-68982944D01*
X142686139Y-68952713D01*
X142676731Y-68937420D01*
X142651034Y-68906522D01*
X142629601Y-68872553D01*
X142617966Y-68858882D01*
X142593272Y-68837072D01*
X142572203Y-68811739D01*
X142558882Y-68799703D01*
X142525551Y-68777263D01*
X142495440Y-68750670D01*
X142480435Y-68740814D01*
X142450615Y-68726814D01*
X142423282Y-68708412D01*
X142407119Y-68700598D01*
X142368834Y-68688416D01*
X142332289Y-68671259D01*
X142314735Y-68665951D01*
X142283606Y-68661299D01*
X142251345Y-68651035D01*
X142233640Y-68648072D01*
X142187877Y-68646993D01*
X142185933Y-68646702D01*
X142176612Y-68646010D01*
X142146181Y-68646010D01*
X142070218Y-68644219D01*
X142055201Y-68646010D01*
X141770991Y-68646010D01*
X141770991Y-59914010D01*
X148502991Y-59914010D01*
X148502992Y-68646010D01*
X147566074Y-68646010D01*
X147566074Y-64440676D01*
X147566073Y-64440664D01*
X147566073Y-64385365D01*
X147562971Y-64365777D01*
X147547338Y-64317663D01*
X147539421Y-64267678D01*
X147533292Y-64248817D01*
X147510321Y-64203734D01*
X147494684Y-64155609D01*
X147485680Y-64137937D01*
X147455936Y-64096999D01*
X147432968Y-64051921D01*
X147421311Y-64035876D01*
X147378518Y-63993084D01*
X146875844Y-63490411D01*
X146875835Y-63490400D01*
X146340415Y-62954981D01*
X146278409Y-62732900D01*
X146271586Y-62717133D01*
X146147722Y-62512610D01*
X146136911Y-62499259D01*
X145962610Y-62335580D01*
X145948606Y-62325628D01*
X145736710Y-62214852D01*
X145720546Y-62209032D01*
X145486666Y-62159319D01*
X145469532Y-62158061D01*
X145230897Y-62173075D01*
X145214057Y-62176471D01*
X144988252Y-62255104D01*
X144972945Y-62262904D01*
X144776603Y-62399364D01*
X144763957Y-62410993D01*
X144611545Y-62595227D01*
X144602492Y-62609828D01*
X144505238Y-62828262D01*
X144500445Y-62844760D01*
X144465517Y-63081300D01*
X144465337Y-63098479D01*
X144495305Y-63335699D01*
X144499751Y-63352293D01*
X144592408Y-63572716D01*
X144601153Y-63587504D01*
X144749673Y-63774889D01*
X144762073Y-63786780D01*
X144955513Y-63927323D01*
X144970654Y-63935441D01*
X145194764Y-64018787D01*
X145211530Y-64022534D01*
X145259572Y-64026569D01*
X145799619Y-64566616D01*
X145799624Y-64566620D01*
X146044074Y-64811071D01*
X146044075Y-69950701D01*
X146043164Y-70007354D01*
X146033413Y-70370921D01*
X146019764Y-70734400D01*
X146010298Y-70930404D01*
X145961003Y-70933505D01*
X145944162Y-70936901D01*
X145718357Y-71015534D01*
X145703050Y-71023334D01*
X145506708Y-71159794D01*
X145494062Y-71171423D01*
X145341650Y-71355657D01*
X145332597Y-71370258D01*
X145235343Y-71588692D01*
X145230550Y-71605190D01*
X145195622Y-71841730D01*
X145195442Y-71858909D01*
X145225410Y-72096129D01*
X145229856Y-72112723D01*
X145322513Y-72333146D01*
X145331258Y-72347934D01*
X145454054Y-72502863D01*
X145454054Y-72905794D01*
X145418040Y-73224266D01*
X145373815Y-73581049D01*
X145325786Y-73937174D01*
X145273935Y-74292827D01*
X145218252Y-74648024D01*
X145158803Y-75002366D01*
X145095520Y-75356257D01*
X145028490Y-75709215D01*
X144957608Y-76061791D01*
X144883004Y-76413318D01*
X144804655Y-76763930D01*
X144722463Y-77114065D01*
X144636583Y-77463032D01*
X144546973Y-77811037D01*
X144453603Y-78158178D01*
X144356526Y-78504268D01*
X144255764Y-78849227D01*
X144151295Y-79193117D01*
X144043478Y-79534816D01*
X144043164Y-79535811D01*
X143931275Y-79877598D01*
X143815892Y-80217681D01*
X143696734Y-80556889D01*
X143573949Y-80894788D01*
X143447613Y-81231172D01*
X143317553Y-81566501D01*
X143184125Y-81899871D01*
X143046931Y-82232268D01*
X142906325Y-82562837D01*
X142762048Y-82892182D01*
X142614288Y-83219872D01*
X142463100Y-83545790D01*
X142308276Y-83870381D01*
X142150077Y-84193094D01*
X141988479Y-84513985D01*
X141823420Y-84833185D01*
X141654845Y-85150790D01*
X141529106Y-85381677D01*
X141529101Y-85381683D01*
X141482930Y-85466462D01*
X141407794Y-85600975D01*
X141407787Y-85600984D01*
X141334325Y-85732498D01*
X141307699Y-85780164D01*
X141128994Y-86092181D01*
X141080081Y-86175498D01*
X140947091Y-86402030D01*
X140761874Y-86709914D01*
X140630719Y-86922727D01*
X140573238Y-87015997D01*
X140381433Y-87319878D01*
X140186322Y-87621778D01*
X140003447Y-87898193D01*
X139988011Y-87921525D01*
X139876504Y-88086203D01*
X139786403Y-88219267D01*
X139581852Y-88514485D01*
X139373897Y-88807846D01*
X139163032Y-89098649D01*
X138948846Y-89387467D01*
X138731598Y-89673936D01*
X138511401Y-89957918D01*
X138288173Y-90239522D01*
X138061872Y-90518794D01*
X137832622Y-90795584D01*
X137759065Y-90882481D01*
X134050896Y-94590651D01*
X134050881Y-94590664D01*
X133979547Y-94661999D01*
X133870754Y-94770792D01*
X133859098Y-94786836D01*
X133836128Y-94831915D01*
X133806383Y-94872856D01*
X133797379Y-94890528D01*
X133781742Y-94938654D01*
X133758774Y-94983731D01*
X133752645Y-95002593D01*
X133744728Y-95052576D01*
X133729093Y-95100694D01*
X133725991Y-95120282D01*
X133725991Y-95175580D01*
X133725990Y-95175592D01*
X133725990Y-95571172D01*
X133689545Y-95615227D01*
X133680492Y-95629828D01*
X133583238Y-95848262D01*
X133578445Y-95864760D01*
X133543517Y-96101300D01*
X133543337Y-96118479D01*
X133573305Y-96355699D01*
X133577751Y-96372293D01*
X133670408Y-96592716D01*
X133679153Y-96607504D01*
X133827673Y-96794889D01*
X133840073Y-96806780D01*
X134033513Y-96947323D01*
X134048654Y-96955441D01*
X134272764Y-97038787D01*
X134289530Y-97042534D01*
X134527797Y-97062542D01*
X134544953Y-97061643D01*
X134779823Y-97016840D01*
X134796106Y-97011360D01*
X134955069Y-96932449D01*
X134955071Y-129626772D01*
X89318912Y-129626772D01*
X89318912Y-128043509D01*
X103198592Y-128043509D01*
X103261211Y-128294662D01*
X103264659Y-128304761D01*
X103361581Y-128525557D01*
X103366682Y-128534932D01*
X103499420Y-128736241D01*
X103506028Y-128744622D01*
X103670788Y-128920689D01*
X103678712Y-128927837D01*
X103870782Y-129073625D01*
X103879798Y-129079336D01*
X104093686Y-129190678D01*
X104103535Y-129194788D01*
X104333124Y-129268502D01*
X104343525Y-129270893D01*
X104457152Y-129287064D01*
X104543990Y-129211709D01*
X104543991Y-128020466D01*
X104470182Y-127946657D01*
X103274262Y-127946656D01*
X103198592Y-128043509D01*
X89318912Y-128043509D01*
X89318912Y-127591890D01*
X103196075Y-127591890D01*
X103271724Y-127690657D01*
X104470181Y-127690658D01*
X104543990Y-127616849D01*
X104799989Y-127616849D01*
X104799990Y-127616850D01*
X104799989Y-129212405D01*
X104892207Y-129288019D01*
X105081009Y-129250293D01*
X105091260Y-129247324D01*
X105316377Y-129160910D01*
X105325981Y-129156257D01*
X105533320Y-129033148D01*
X105542002Y-129026943D01*
X105725635Y-128870661D01*
X105733148Y-128863081D01*
X105759393Y-128831692D01*
X105797127Y-128972516D01*
X105809870Y-128996996D01*
X105940980Y-129153247D01*
X105957869Y-129167418D01*
X106132110Y-129268016D01*
X106152827Y-129275557D01*
X106345528Y-129309535D01*
X106356489Y-129310494D01*
X108070248Y-129310494D01*
X108086624Y-129308338D01*
X108365849Y-129233520D01*
X108390329Y-129220777D01*
X108546580Y-129089667D01*
X108560751Y-129072778D01*
X108661349Y-128898537D01*
X108668890Y-128877820D01*
X108702868Y-128685119D01*
X108703827Y-128674158D01*
X108703827Y-126960399D01*
X108701671Y-126944023D01*
X108626853Y-126664799D01*
X108614110Y-126640319D01*
X108483000Y-126484067D01*
X108466111Y-126469896D01*
X108291870Y-126369298D01*
X108271153Y-126361757D01*
X108078452Y-126327779D01*
X108067491Y-126326820D01*
X106353732Y-126326820D01*
X106337356Y-126328976D01*
X106058132Y-126403794D01*
X106033652Y-126416537D01*
X105877400Y-126547647D01*
X105863229Y-126564536D01*
X105762631Y-126738777D01*
X105755090Y-126759494D01*
X105749511Y-126791136D01*
X105745637Y-126787074D01*
X105565039Y-126627295D01*
X105556476Y-126620924D01*
X105351539Y-126493859D01*
X105342026Y-126489022D01*
X105118609Y-126398302D01*
X105108417Y-126395137D01*
X104894086Y-126348013D01*
X104799990Y-126423668D01*
X104799989Y-127616849D01*
X104543990Y-127616849D01*
X104543991Y-126424858D01*
X104458971Y-126349639D01*
X104371464Y-126360383D01*
X104361020Y-126362575D01*
X104130058Y-126431867D01*
X104120132Y-126435787D01*
X103904145Y-126543003D01*
X103895022Y-126548539D01*
X103700189Y-126690614D01*
X103692128Y-126697609D01*
X103524019Y-126870479D01*
X103517253Y-126878731D01*
X103380673Y-127077455D01*
X103375393Y-127086730D01*
X103274250Y-127305625D01*
X103270609Y-127315657D01*
X103196075Y-127591890D01*
X89318912Y-127591890D01*
X89318912Y-110215479D01*
X92141337Y-110215479D01*
X92171305Y-110452699D01*
X92175751Y-110469293D01*
X92268408Y-110689716D01*
X92277153Y-110704504D01*
X92425673Y-110891889D01*
X92438072Y-110903780D01*
X92450991Y-110913166D01*
X92450990Y-114621172D01*
X92414545Y-114665227D01*
X92405492Y-114679828D01*
X92308238Y-114898262D01*
X92303445Y-114914760D01*
X92268517Y-115151300D01*
X92268337Y-115168479D01*
X92298305Y-115405699D01*
X92302751Y-115422293D01*
X92395408Y-115642716D01*
X92404153Y-115657504D01*
X92552673Y-115844889D01*
X92565073Y-115856780D01*
X92758513Y-115997323D01*
X92773654Y-116005441D01*
X92997764Y-116088787D01*
X93014530Y-116092534D01*
X93252797Y-116112542D01*
X93269953Y-116111643D01*
X93504823Y-116066840D01*
X93521106Y-116061360D01*
X93735276Y-115955044D01*
X93749485Y-115945388D01*
X93927175Y-115785396D01*
X93938264Y-115772274D01*
X94066383Y-115570389D01*
X94073534Y-115554769D01*
X94142740Y-115325552D01*
X94145439Y-115307914D01*
X94148126Y-115051207D01*
X94145798Y-115033517D01*
X94081409Y-114802900D01*
X94074586Y-114787133D01*
X93972990Y-114619378D01*
X93972990Y-113055061D01*
X94046408Y-113229716D01*
X94055153Y-113244504D01*
X94203673Y-113431889D01*
X94216073Y-113443780D01*
X94409513Y-113584323D01*
X94424654Y-113592441D01*
X94648764Y-113675787D01*
X94665530Y-113679534D01*
X94903797Y-113699542D01*
X94920953Y-113698643D01*
X95155823Y-113653840D01*
X95172106Y-113648360D01*
X95266505Y-113601500D01*
X96344951Y-114679946D01*
X96341383Y-114684856D01*
X96332379Y-114702528D01*
X96316743Y-114750653D01*
X96293773Y-114795731D01*
X96287644Y-114814594D01*
X96279729Y-114864572D01*
X96264093Y-114912693D01*
X96260991Y-114932282D01*
X96260991Y-114992797D01*
X96260990Y-117669172D01*
X96224545Y-117713227D01*
X96215492Y-117727828D01*
X96118238Y-117946262D01*
X96113445Y-117962760D01*
X96078517Y-118199300D01*
X96078337Y-118216479D01*
X96108305Y-118453699D01*
X96112751Y-118470293D01*
X96205408Y-118690716D01*
X96214153Y-118705504D01*
X96362673Y-118892889D01*
X96375073Y-118904780D01*
X96568513Y-119045323D01*
X96583654Y-119053441D01*
X96807764Y-119136787D01*
X96824530Y-119140534D01*
X97062797Y-119160542D01*
X97079953Y-119159643D01*
X97314823Y-119114840D01*
X97331106Y-119109360D01*
X97545276Y-119003044D01*
X97559485Y-118993388D01*
X97737175Y-118833396D01*
X97748264Y-118820274D01*
X97876383Y-118618389D01*
X97883534Y-118602769D01*
X97952740Y-118373552D01*
X97955439Y-118355914D01*
X97958126Y-118099207D01*
X97955798Y-118081517D01*
X97891409Y-117850900D01*
X97884586Y-117835133D01*
X97782990Y-117667378D01*
X97782990Y-115518173D01*
X97926276Y-115447044D01*
X97940485Y-115437388D01*
X98118175Y-115277396D01*
X98129264Y-115264274D01*
X98257383Y-115062389D01*
X98264534Y-115046769D01*
X98333740Y-114817552D01*
X98336439Y-114799914D01*
X98339126Y-114543207D01*
X98336798Y-114525517D01*
X98272409Y-114294900D01*
X98265586Y-114279133D01*
X98141722Y-114074610D01*
X98130911Y-114061259D01*
X97956610Y-113897580D01*
X97942606Y-113887628D01*
X97730710Y-113776852D01*
X97714546Y-113771032D01*
X97554433Y-113736999D01*
X96114402Y-112296969D01*
X96114397Y-112296962D01*
X95957970Y-112140535D01*
X95941924Y-112128877D01*
X95896837Y-112105904D01*
X95855906Y-112076165D01*
X95838234Y-112067160D01*
X95790116Y-112051526D01*
X95745029Y-112028553D01*
X95726166Y-112022424D01*
X95676183Y-112014508D01*
X95628068Y-111998874D01*
X95608479Y-111995772D01*
X95553181Y-111995772D01*
X95553169Y-111995771D01*
X95420009Y-111995771D01*
X95416611Y-111992580D01*
X95402607Y-111982628D01*
X95190710Y-111871852D01*
X95174546Y-111866032D01*
X94940666Y-111816319D01*
X94923532Y-111815061D01*
X94684897Y-111830075D01*
X94668057Y-111833471D01*
X94442252Y-111912104D01*
X94426945Y-111919904D01*
X94230603Y-112056364D01*
X94217957Y-112067993D01*
X94065545Y-112252227D01*
X94056492Y-112266828D01*
X93972990Y-112454375D01*
X93972990Y-110514144D01*
X94015740Y-110372552D01*
X94018439Y-110354914D01*
X94021126Y-110098207D01*
X94018798Y-110080517D01*
X93954409Y-109849900D01*
X93947586Y-109834133D01*
X93823722Y-109629610D01*
X93812911Y-109616259D01*
X93638610Y-109452580D01*
X93624606Y-109442628D01*
X93412710Y-109331852D01*
X93396546Y-109326032D01*
X93162666Y-109276319D01*
X93145532Y-109275061D01*
X92906897Y-109290075D01*
X92890057Y-109293471D01*
X92664252Y-109372104D01*
X92648945Y-109379904D01*
X92452603Y-109516364D01*
X92439957Y-109527993D01*
X92287545Y-109712227D01*
X92278492Y-109726828D01*
X92181238Y-109945262D01*
X92176445Y-109961760D01*
X92141517Y-110198300D01*
X92141337Y-110215479D01*
X89318912Y-110215479D01*
X89318912Y-104986908D01*
X89577011Y-105245008D01*
X89593056Y-105256665D01*
X89638134Y-105279633D01*
X89679072Y-105309377D01*
X89696744Y-105318381D01*
X89744869Y-105334018D01*
X89789952Y-105356989D01*
X89808813Y-105363118D01*
X89858798Y-105371035D01*
X89906912Y-105386668D01*
X89926500Y-105389770D01*
X89981799Y-105389770D01*
X89981811Y-105389771D01*
X92286432Y-105389771D01*
X92156252Y-105435104D01*
X92140945Y-105442904D01*
X91944603Y-105579364D01*
X91931957Y-105590993D01*
X91779545Y-105775227D01*
X91770492Y-105789828D01*
X91673238Y-106008262D01*
X91668445Y-106024760D01*
X91633517Y-106261300D01*
X91633337Y-106278479D01*
X91663305Y-106515699D01*
X91667751Y-106532293D01*
X91760408Y-106752716D01*
X91769153Y-106767504D01*
X91917673Y-106954889D01*
X91930073Y-106966780D01*
X92123513Y-107107323D01*
X92138654Y-107115441D01*
X92362764Y-107198787D01*
X92379530Y-107202534D01*
X92492098Y-107211986D01*
X92521331Y-107221485D01*
X92566421Y-107244459D01*
X92585284Y-107250588D01*
X92635266Y-107258504D01*
X92683381Y-107274137D01*
X92702969Y-107277240D01*
X92758269Y-107277240D01*
X92758281Y-107277241D01*
X93503531Y-107277241D01*
X93595132Y-107343793D01*
X93610273Y-107351911D01*
X93834383Y-107435257D01*
X93851149Y-107439004D01*
X94089416Y-107459012D01*
X94106572Y-107458113D01*
X94341442Y-107413310D01*
X94357725Y-107407830D01*
X94571895Y-107301514D01*
X94586104Y-107291858D01*
X94763794Y-107131866D01*
X94774883Y-107118744D01*
X94903002Y-106916859D01*
X94910153Y-106901239D01*
X94979359Y-106672022D01*
X94982058Y-106654384D01*
X94984745Y-106397677D01*
X94982417Y-106379987D01*
X94918028Y-106149370D01*
X94911205Y-106133603D01*
X94787341Y-105929080D01*
X94776530Y-105915729D01*
X94602229Y-105752050D01*
X94588225Y-105742098D01*
X94376329Y-105631322D01*
X94360165Y-105625502D01*
X94126285Y-105575789D01*
X94109151Y-105574531D01*
X93870516Y-105589545D01*
X93853676Y-105592941D01*
X93627871Y-105671574D01*
X93612564Y-105679374D01*
X93503404Y-105755241D01*
X93353652Y-105755241D01*
X93315722Y-105692610D01*
X93304911Y-105679259D01*
X93130610Y-105515580D01*
X93116606Y-105505628D01*
X92904710Y-105394852D01*
X92890598Y-105389771D01*
X93428912Y-105389771D01*
X93520513Y-105456323D01*
X93535654Y-105464441D01*
X93759764Y-105547787D01*
X93776530Y-105551534D01*
X94014797Y-105571542D01*
X94031953Y-105570643D01*
X94266823Y-105525840D01*
X94283106Y-105520360D01*
X94497276Y-105414044D01*
X94511485Y-105404388D01*
X94689175Y-105244396D01*
X94700264Y-105231274D01*
X94828383Y-105029389D01*
X94835534Y-105013769D01*
X94904740Y-104784552D01*
X94907439Y-104766914D01*
X94910126Y-104510207D01*
X94907798Y-104492517D01*
X94843409Y-104261900D01*
X94836586Y-104246133D01*
X94712722Y-104041610D01*
X94701911Y-104028259D01*
X94527610Y-103864580D01*
X94513606Y-103854628D01*
X94301710Y-103743852D01*
X94285546Y-103738032D01*
X94051666Y-103688319D01*
X94034532Y-103687061D01*
X93795897Y-103702075D01*
X93779057Y-103705471D01*
X93553252Y-103784104D01*
X93537945Y-103791904D01*
X93428785Y-103867771D01*
X90645439Y-103867771D01*
X90713740Y-103641552D01*
X90716439Y-103623914D01*
X90719126Y-103367207D01*
X90716798Y-103349517D01*
X90652409Y-103118900D01*
X90645586Y-103103133D01*
X90521722Y-102898610D01*
X90510911Y-102885259D01*
X90336610Y-102721580D01*
X90322606Y-102711628D01*
X90182000Y-102638121D01*
X90182000Y-101833479D01*
X91506337Y-101833479D01*
X91536305Y-102070699D01*
X91540751Y-102087293D01*
X91633408Y-102307716D01*
X91642153Y-102322504D01*
X91790673Y-102509889D01*
X91803073Y-102521780D01*
X91996513Y-102662323D01*
X92011654Y-102670441D01*
X92235764Y-102753787D01*
X92252530Y-102757534D01*
X92490797Y-102777542D01*
X92507953Y-102776643D01*
X92742823Y-102731840D01*
X92759106Y-102726360D01*
X92973276Y-102620044D01*
X92987485Y-102610388D01*
X93165175Y-102450396D01*
X93176264Y-102437274D01*
X93304383Y-102235389D01*
X93311534Y-102219769D01*
X93380740Y-101990552D01*
X93383439Y-101972914D01*
X93386126Y-101716207D01*
X93383798Y-101698517D01*
X93319409Y-101467900D01*
X93312586Y-101452133D01*
X93210990Y-101284378D01*
X93210990Y-98593985D01*
X94761133Y-97043842D01*
X95532766Y-97043842D01*
X95532766Y-98499954D01*
X95534210Y-98513384D01*
X95607245Y-98849124D01*
X95615875Y-98869958D01*
X95744686Y-99070391D01*
X95756489Y-99084012D01*
X95934839Y-99238554D01*
X95950001Y-99248298D01*
X96164667Y-99346332D01*
X96181960Y-99351410D01*
X96411084Y-99384353D01*
X96420061Y-99384995D01*
X97560000Y-99384995D01*
X101213991Y-103038987D01*
X101213990Y-106670858D01*
X100576990Y-106033858D01*
X100576990Y-103906553D01*
X100670383Y-103759390D01*
X100677534Y-103743769D01*
X100746740Y-103514552D01*
X100749439Y-103496914D01*
X100752126Y-103240207D01*
X100749798Y-103222517D01*
X100685409Y-102991900D01*
X100678586Y-102976133D01*
X100554722Y-102771610D01*
X100543911Y-102758259D01*
X100369610Y-102594580D01*
X100355606Y-102584628D01*
X100143710Y-102473852D01*
X100127546Y-102468032D01*
X99893666Y-102418319D01*
X99876532Y-102417061D01*
X99637897Y-102432075D01*
X99621057Y-102435471D01*
X99395252Y-102514104D01*
X99379945Y-102521904D01*
X99183603Y-102658364D01*
X99170957Y-102669993D01*
X99018545Y-102854227D01*
X99009492Y-102868828D01*
X98912238Y-103087262D01*
X98907445Y-103103760D01*
X98888794Y-103230069D01*
X98870235Y-103193644D01*
X98854600Y-103145525D01*
X98845595Y-103127854D01*
X98815855Y-103086920D01*
X98792884Y-103041837D01*
X98781226Y-103025791D01*
X98715414Y-102959980D01*
X98653409Y-102737900D01*
X98646586Y-102722133D01*
X98522722Y-102517610D01*
X98511911Y-102504259D01*
X98337610Y-102340580D01*
X98323606Y-102330628D01*
X98111710Y-102219852D01*
X98095546Y-102214032D01*
X97861666Y-102164319D01*
X97844532Y-102163061D01*
X97605897Y-102178075D01*
X97589057Y-102181471D01*
X97363252Y-102260104D01*
X97347945Y-102267904D01*
X97151603Y-102404364D01*
X97138957Y-102415993D01*
X96986545Y-102600227D01*
X96977492Y-102614828D01*
X96880238Y-102833262D01*
X96875445Y-102849760D01*
X96840517Y-103086300D01*
X96840337Y-103103479D01*
X96870305Y-103340699D01*
X96874751Y-103357293D01*
X96967408Y-103577716D01*
X96976153Y-103592504D01*
X97124673Y-103779889D01*
X97137073Y-103791780D01*
X97330513Y-103932323D01*
X97345654Y-103940441D01*
X97403991Y-103962136D01*
X97403990Y-108747949D01*
X97403991Y-108747961D01*
X97403991Y-108803260D01*
X97407093Y-108822848D01*
X97422726Y-108870962D01*
X97430643Y-108920947D01*
X97436772Y-108939808D01*
X97459743Y-108984891D01*
X97475380Y-109033016D01*
X97484384Y-109050688D01*
X97514128Y-109091626D01*
X97537096Y-109136704D01*
X97548753Y-109152749D01*
X97705180Y-109309177D01*
X97705187Y-109309182D01*
X98256692Y-109860687D01*
X98267305Y-109944699D01*
X98271751Y-109961293D01*
X98364408Y-110181716D01*
X98373153Y-110196504D01*
X98521673Y-110383889D01*
X98534073Y-110395780D01*
X98727513Y-110536323D01*
X98742654Y-110544441D01*
X98966764Y-110627787D01*
X98983530Y-110631534D01*
X99221797Y-110651542D01*
X99238953Y-110650643D01*
X99473823Y-110605840D01*
X99490106Y-110600360D01*
X99704276Y-110494044D01*
X99718485Y-110484388D01*
X99896175Y-110324396D01*
X99907264Y-110311274D01*
X100035383Y-110109390D01*
X100042534Y-110093769D01*
X100066962Y-110012861D01*
X100110797Y-110016542D01*
X100127953Y-110015643D01*
X100362823Y-109970840D01*
X100379106Y-109965360D01*
X100593276Y-109859044D01*
X100607485Y-109849388D01*
X100785175Y-109689396D01*
X100796264Y-109676274D01*
X100924383Y-109474389D01*
X100931534Y-109458769D01*
X101000740Y-109229552D01*
X101003439Y-109211914D01*
X101003786Y-109178782D01*
X101721990Y-109896987D01*
X101721991Y-115764171D01*
X101685545Y-115808227D01*
X101676492Y-115822828D01*
X101579238Y-116041262D01*
X101574445Y-116057760D01*
X101539517Y-116294300D01*
X101539337Y-116311479D01*
X101569305Y-116548699D01*
X101573751Y-116565293D01*
X101666408Y-116785716D01*
X101675153Y-116800504D01*
X101823673Y-116987889D01*
X101836073Y-116999780D01*
X102029513Y-117140323D01*
X102044654Y-117148441D01*
X102268764Y-117231787D01*
X102285530Y-117235534D01*
X102523797Y-117255542D01*
X102540953Y-117254643D01*
X102775823Y-117209840D01*
X102792106Y-117204360D01*
X103006276Y-117098044D01*
X103020485Y-117088388D01*
X103198175Y-116928396D01*
X103209264Y-116915274D01*
X103337383Y-116713389D01*
X103344534Y-116697769D01*
X103413740Y-116468552D01*
X103416439Y-116450914D01*
X103419126Y-116194207D01*
X103416798Y-116176517D01*
X103352409Y-115945900D01*
X103345586Y-115930133D01*
X103243990Y-115762378D01*
X103243990Y-114678817D01*
X103364689Y-114688952D01*
X103381845Y-114688053D01*
X103616715Y-114643250D01*
X103632998Y-114637770D01*
X103641094Y-114633751D01*
X103668615Y-114851604D01*
X103673061Y-114868198D01*
X103765718Y-115088621D01*
X103774463Y-115103409D01*
X103922983Y-115290794D01*
X103935383Y-115302685D01*
X104128823Y-115443228D01*
X104143964Y-115451346D01*
X104368074Y-115534692D01*
X104384840Y-115538439D01*
X104623107Y-115558447D01*
X104640263Y-115557548D01*
X104875133Y-115512745D01*
X104891416Y-115507265D01*
X105105586Y-115400949D01*
X105119795Y-115391293D01*
X105136029Y-115376676D01*
X108344680Y-115376676D01*
X110448693Y-117480691D01*
X110459305Y-117564699D01*
X110463751Y-117581293D01*
X110556408Y-117801716D01*
X110565153Y-117816504D01*
X110623224Y-117889771D01*
X110345995Y-117889771D01*
X110129085Y-117764538D01*
X110113825Y-117758217D01*
X109866428Y-117691927D01*
X109850052Y-117689771D01*
X109593928Y-117689771D01*
X109577552Y-117691927D01*
X109330155Y-117758217D01*
X109314895Y-117764538D01*
X109093085Y-117892600D01*
X109079981Y-117902655D01*
X108898874Y-118083762D01*
X108888819Y-118096866D01*
X108760757Y-118318676D01*
X108754436Y-118333936D01*
X108688146Y-118581333D01*
X108685990Y-118597709D01*
X108685990Y-118853833D01*
X108688146Y-118870209D01*
X108754436Y-119117606D01*
X108760757Y-119132866D01*
X108888819Y-119354676D01*
X108898874Y-119367780D01*
X109079981Y-119548887D01*
X109093085Y-119558942D01*
X109314895Y-119687004D01*
X109330155Y-119693325D01*
X109577552Y-119759615D01*
X109593928Y-119761771D01*
X109601677Y-119761771D01*
X109643436Y-119917617D01*
X109647991Y-119928614D01*
X109647990Y-123435766D01*
X109522757Y-123652676D01*
X109516436Y-123667936D01*
X109450146Y-123915333D01*
X109447990Y-123931709D01*
X109447990Y-124187833D01*
X109450146Y-124204209D01*
X109516436Y-124451606D01*
X109522757Y-124466866D01*
X109650819Y-124688676D01*
X109660874Y-124701780D01*
X109841981Y-124882887D01*
X109855085Y-124892942D01*
X110076895Y-125021004D01*
X110092155Y-125027325D01*
X110339552Y-125093615D01*
X110355928Y-125095771D01*
X110612052Y-125095771D01*
X110628428Y-125093615D01*
X110875825Y-125027325D01*
X110891085Y-125021004D01*
X111112895Y-124892942D01*
X111125999Y-124882887D01*
X111307106Y-124701780D01*
X111317161Y-124688676D01*
X111445223Y-124466866D01*
X111451544Y-124451606D01*
X111517834Y-124204209D01*
X111519990Y-124187833D01*
X111519990Y-123931709D01*
X111517834Y-123915333D01*
X111451544Y-123667936D01*
X111445223Y-123652676D01*
X111319990Y-123435766D01*
X111319990Y-120281905D01*
X111405125Y-120196771D01*
X116177721Y-120196771D01*
X116061706Y-120277403D01*
X116049060Y-120289032D01*
X115896648Y-120473266D01*
X115887595Y-120487867D01*
X115790341Y-120706301D01*
X115785548Y-120722799D01*
X115750620Y-120959339D01*
X115750440Y-120976518D01*
X115780408Y-121213738D01*
X115784854Y-121230332D01*
X115877511Y-121450755D01*
X115886256Y-121465543D01*
X116034776Y-121652928D01*
X116047176Y-121664819D01*
X116240616Y-121805362D01*
X116255757Y-121813480D01*
X116479867Y-121896826D01*
X116496633Y-121900573D01*
X116734900Y-121920581D01*
X116752056Y-121919682D01*
X116986926Y-121874879D01*
X117003209Y-121869399D01*
X117217379Y-121763083D01*
X117231588Y-121753427D01*
X117370588Y-121628271D01*
X120979912Y-121628271D01*
X121071513Y-121694823D01*
X121086654Y-121702941D01*
X121310764Y-121786287D01*
X121327530Y-121790034D01*
X121565797Y-121810042D01*
X121582953Y-121809143D01*
X121817823Y-121764340D01*
X121834106Y-121758860D01*
X122048276Y-121652544D01*
X122062485Y-121642888D01*
X122240175Y-121482896D01*
X122251264Y-121469774D01*
X122379383Y-121267889D01*
X122386534Y-121252269D01*
X122455740Y-121023052D01*
X122458439Y-121005414D01*
X122461126Y-120748707D01*
X122458798Y-120731017D01*
X122394409Y-120500400D01*
X122387586Y-120484633D01*
X122263722Y-120280110D01*
X122252911Y-120266759D01*
X122178381Y-120196771D01*
X127197603Y-120196771D01*
X127214680Y-120200635D01*
X127232575Y-120202075D01*
X127318066Y-120196771D01*
X127346721Y-120196771D01*
X127355664Y-120196134D01*
X127376549Y-120193143D01*
X127453477Y-120188370D01*
X127471057Y-120184730D01*
X127494575Y-120176240D01*
X127519330Y-120172695D01*
X127536561Y-120167656D01*
X127606740Y-120135747D01*
X127679418Y-120109510D01*
X127695585Y-120100851D01*
X127714859Y-120086589D01*
X127738042Y-120076048D01*
X127753166Y-120066376D01*
X127776758Y-120046048D01*
X127878681Y-120165807D01*
X127887895Y-120174643D01*
X128051318Y-120302323D01*
X128062121Y-120309126D01*
X128247881Y-120401338D01*
X128259830Y-120405829D01*
X128460338Y-120458806D01*
X128472947Y-120460803D01*
X128680011Y-120472380D01*
X128692764Y-120471801D01*
X128897927Y-120441505D01*
X128910303Y-120438373D01*
X129105184Y-120367442D01*
X129116677Y-120361886D01*
X129293315Y-120253218D01*
X129303456Y-120245464D01*
X129454636Y-120103497D01*
X129463011Y-120093862D01*
X129582556Y-119924397D01*
X129588823Y-119913275D01*
X129671850Y-119723232D01*
X129675752Y-119711078D01*
X129718895Y-119508114D01*
X129720275Y-119495201D01*
X129721022Y-119280906D01*
X129719732Y-119267985D01*
X129678009Y-119064725D01*
X129674192Y-119052543D01*
X129592493Y-118861925D01*
X129586304Y-118850760D01*
X129467945Y-118680463D01*
X129459637Y-118670770D01*
X129309453Y-118527751D01*
X129299366Y-118519927D01*
X129275695Y-118505136D01*
X129275695Y-118284272D01*
X129273539Y-118267896D01*
X129207249Y-118020499D01*
X129200928Y-118005239D01*
X129072866Y-117783429D01*
X129062811Y-117770325D01*
X128881704Y-117589218D01*
X128868600Y-117579163D01*
X128646790Y-117451101D01*
X128631530Y-117444780D01*
X128384133Y-117378490D01*
X128367757Y-117376334D01*
X128111633Y-117376334D01*
X128095257Y-117378490D01*
X127847860Y-117444780D01*
X127832600Y-117451101D01*
X127610790Y-117579163D01*
X127597686Y-117589218D01*
X127416579Y-117770325D01*
X127406524Y-117783429D01*
X127278462Y-118005239D01*
X127272141Y-118020499D01*
X127207315Y-118262431D01*
X126944976Y-118524771D01*
X118128460Y-118524771D01*
X118128460Y-118345898D01*
X118126304Y-118329522D01*
X118060014Y-118082125D01*
X118053693Y-118066865D01*
X117925631Y-117845055D01*
X117915576Y-117831951D01*
X117734469Y-117650844D01*
X117721365Y-117640789D01*
X117499555Y-117512727D01*
X117484295Y-117506406D01*
X117236898Y-117440116D01*
X117220522Y-117437960D01*
X116964398Y-117437960D01*
X116948022Y-117440116D01*
X116700625Y-117506406D01*
X116685365Y-117512727D01*
X116463555Y-117640789D01*
X116450451Y-117650844D01*
X116269344Y-117831951D01*
X116259289Y-117845055D01*
X116233472Y-117889771D01*
X112125602Y-117889771D01*
X112227383Y-117729389D01*
X112234534Y-117713769D01*
X112303740Y-117484552D01*
X112306439Y-117466914D01*
X112309126Y-117210207D01*
X112306798Y-117192517D01*
X112242409Y-116961900D01*
X112235586Y-116946133D01*
X112226879Y-116931756D01*
X112253019Y-116890567D01*
X112260170Y-116874946D01*
X112329376Y-116645729D01*
X112332075Y-116628091D01*
X112334762Y-116371384D01*
X112332434Y-116353694D01*
X112268045Y-116123077D01*
X112261222Y-116107310D01*
X112137358Y-115902787D01*
X112126547Y-115889436D01*
X111952246Y-115725757D01*
X111938242Y-115715805D01*
X111726346Y-115605029D01*
X111710182Y-115599209D01*
X111550071Y-115565176D01*
X110782758Y-114797864D01*
X109565754Y-113580861D01*
X109565751Y-113580857D01*
X109409324Y-113424430D01*
X109393278Y-113412772D01*
X109348191Y-113389799D01*
X109307260Y-113360060D01*
X109289588Y-113351055D01*
X109241470Y-113335421D01*
X109196383Y-113312448D01*
X109177520Y-113306319D01*
X109127537Y-113298403D01*
X109079422Y-113282769D01*
X109059833Y-113279667D01*
X109004535Y-113279667D01*
X109004523Y-113279666D01*
X105714320Y-113279666D01*
X105710922Y-113276475D01*
X105696918Y-113266523D01*
X105485021Y-113155747D01*
X105468857Y-113149927D01*
X105234977Y-113100214D01*
X105217843Y-113098956D01*
X104979208Y-113113970D01*
X104962368Y-113117366D01*
X104736563Y-113195999D01*
X104721256Y-113203799D01*
X104524914Y-113340259D01*
X104512268Y-113351888D01*
X104359856Y-113536122D01*
X104350803Y-113550723D01*
X104269453Y-113733438D01*
X104258872Y-113737122D01*
X104260018Y-113627617D01*
X104257690Y-113609927D01*
X104193301Y-113379310D01*
X104186478Y-113363543D01*
X104084882Y-113195788D01*
X104084882Y-112297841D01*
X104299823Y-112256840D01*
X104316106Y-112251360D01*
X104530276Y-112145044D01*
X104544485Y-112135388D01*
X104722175Y-111975396D01*
X104733264Y-111962274D01*
X104861383Y-111760389D01*
X104868534Y-111744769D01*
X104937740Y-111515552D01*
X104940439Y-111497914D01*
X104943126Y-111241207D01*
X104940798Y-111223517D01*
X104876409Y-110992900D01*
X104869586Y-110977133D01*
X104767990Y-110809378D01*
X104767990Y-108474713D01*
X104891383Y-108280275D01*
X104898534Y-108264655D01*
X104953313Y-108083219D01*
X110183480Y-108083219D01*
X110183480Y-108339343D01*
X110185636Y-108355719D01*
X110251926Y-108603116D01*
X110258247Y-108618376D01*
X110383480Y-108835286D01*
X110383481Y-112386764D01*
X110258247Y-112603676D01*
X110251926Y-112618936D01*
X110185636Y-112866333D01*
X110183480Y-112882709D01*
X110183480Y-113138833D01*
X110185636Y-113155209D01*
X110251926Y-113402606D01*
X110258247Y-113417866D01*
X110386309Y-113639676D01*
X110396364Y-113652780D01*
X110577471Y-113833887D01*
X110590575Y-113843942D01*
X110812385Y-113972004D01*
X110827645Y-113978325D01*
X111075042Y-114044615D01*
X111091418Y-114046771D01*
X111183490Y-114046771D01*
X111183490Y-114399449D01*
X111183491Y-114399461D01*
X111183491Y-114454760D01*
X111186593Y-114474348D01*
X111202226Y-114522462D01*
X111210143Y-114572447D01*
X111216272Y-114591308D01*
X111239243Y-114636391D01*
X111254880Y-114684516D01*
X111263884Y-114702188D01*
X111293628Y-114743126D01*
X111316596Y-114788204D01*
X111328253Y-114804249D01*
X111484680Y-114960677D01*
X111484684Y-114960680D01*
X112252880Y-115728878D01*
X112252895Y-115728891D01*
X112292510Y-115768507D01*
X112308555Y-115780164D01*
X112353635Y-115803134D01*
X112394574Y-115832878D01*
X112412245Y-115841882D01*
X112460369Y-115857519D01*
X112505452Y-115880489D01*
X112524313Y-115886618D01*
X112574298Y-115894535D01*
X112622412Y-115910168D01*
X112642000Y-115913270D01*
X112697299Y-115913270D01*
X112697311Y-115913271D01*
X117804912Y-115913271D01*
X117896513Y-115979823D01*
X117911654Y-115987941D01*
X118135764Y-116071287D01*
X118152530Y-116075034D01*
X118390797Y-116095042D01*
X118407953Y-116094143D01*
X118642823Y-116049340D01*
X118659106Y-116043860D01*
X118873276Y-115937544D01*
X118887485Y-115927888D01*
X119065175Y-115767896D01*
X119076264Y-115754774D01*
X119204383Y-115552889D01*
X119211534Y-115537269D01*
X119280740Y-115308052D01*
X119283439Y-115290414D01*
X119286126Y-115033707D01*
X119283798Y-115016017D01*
X119275656Y-114986853D01*
X127548034Y-114986853D01*
X127568272Y-115193251D01*
X127570795Y-115205765D01*
X127632121Y-115403878D01*
X127637109Y-115415630D01*
X127737019Y-115597364D01*
X127744268Y-115607872D01*
X127878681Y-115765807D01*
X127887895Y-115774643D01*
X128051318Y-115902323D01*
X128062121Y-115909126D01*
X128247881Y-116001338D01*
X128259830Y-116005829D01*
X128460338Y-116058806D01*
X128472947Y-116060803D01*
X128680011Y-116072380D01*
X128692764Y-116071801D01*
X128897927Y-116041505D01*
X128910303Y-116038373D01*
X129105184Y-115967442D01*
X129116677Y-115961886D01*
X129293315Y-115853218D01*
X129303456Y-115845464D01*
X129454636Y-115703497D01*
X129463011Y-115693862D01*
X129582556Y-115524397D01*
X129588823Y-115513275D01*
X129671850Y-115323232D01*
X129675752Y-115311078D01*
X129718895Y-115108114D01*
X129720275Y-115095201D01*
X129721022Y-114880906D01*
X129719732Y-114867985D01*
X129678009Y-114664725D01*
X129674192Y-114652543D01*
X129592493Y-114461925D01*
X129586304Y-114450760D01*
X129467945Y-114280463D01*
X129459637Y-114270770D01*
X129309453Y-114127751D01*
X129299366Y-114119927D01*
X129123491Y-114010029D01*
X129112037Y-114004392D01*
X128917655Y-113932103D01*
X128905302Y-113928885D01*
X128700354Y-113897158D01*
X128687606Y-113896490D01*
X128480466Y-113906620D01*
X128467843Y-113908529D01*
X128266972Y-113960105D01*
X128254991Y-113964513D01*
X128068592Y-114055425D01*
X128057742Y-114062152D01*
X127893431Y-114188689D01*
X127884155Y-114197460D01*
X127748644Y-114354452D01*
X127741322Y-114364909D01*
X127640145Y-114545942D01*
X127635075Y-114557658D01*
X127572367Y-114755340D01*
X127569756Y-114767836D01*
X127548079Y-114974088D01*
X127548034Y-114986853D01*
X119275656Y-114986853D01*
X119219409Y-114785400D01*
X119212586Y-114769633D01*
X119088722Y-114565110D01*
X119077911Y-114551759D01*
X118903610Y-114388080D01*
X118889606Y-114378128D01*
X118677710Y-114267352D01*
X118661546Y-114261532D01*
X118427666Y-114211819D01*
X118410532Y-114210561D01*
X118171897Y-114225575D01*
X118155057Y-114228971D01*
X117929252Y-114307604D01*
X117913945Y-114315404D01*
X117804785Y-114391271D01*
X113067705Y-114391271D01*
X112705490Y-114029056D01*
X112705490Y-112991979D01*
X112707337Y-112991979D01*
X112737305Y-113229199D01*
X112741751Y-113245793D01*
X112834408Y-113466216D01*
X112843153Y-113481004D01*
X112991673Y-113668389D01*
X113004073Y-113680280D01*
X113197513Y-113820823D01*
X113212654Y-113828941D01*
X113436764Y-113912287D01*
X113453530Y-113916034D01*
X113691797Y-113936042D01*
X113708953Y-113935143D01*
X113943823Y-113890340D01*
X113960106Y-113884860D01*
X114174276Y-113778544D01*
X114188485Y-113768888D01*
X114366175Y-113608896D01*
X114377264Y-113595774D01*
X114505383Y-113393889D01*
X114512535Y-113378269D01*
X114533273Y-113309581D01*
X114578823Y-113300892D01*
X114595106Y-113295412D01*
X114695308Y-113245671D01*
X114874381Y-113312268D01*
X114891147Y-113316015D01*
X115129414Y-113336023D01*
X115146570Y-113335124D01*
X115381440Y-113290321D01*
X115397723Y-113284841D01*
X115425810Y-113270899D01*
X115483514Y-113312823D01*
X115498654Y-113320941D01*
X115722764Y-113404287D01*
X115739530Y-113408034D01*
X115977797Y-113428042D01*
X115994953Y-113427143D01*
X116229823Y-113382340D01*
X116246106Y-113376860D01*
X116460276Y-113270544D01*
X116474485Y-113260888D01*
X116652175Y-113100896D01*
X116663264Y-113087774D01*
X116791383Y-112885889D01*
X116798534Y-112870269D01*
X116867740Y-112641052D01*
X116870439Y-112623414D01*
X116873126Y-112366707D01*
X116870798Y-112349017D01*
X116806409Y-112118400D01*
X116799586Y-112102633D01*
X116713495Y-111960480D01*
X118152205Y-110521771D01*
X121521775Y-110521771D01*
X121760979Y-110760976D01*
X121760979Y-111006939D01*
X121760980Y-111006951D01*
X121760980Y-111062249D01*
X121764082Y-111081838D01*
X121779716Y-111129953D01*
X121787632Y-111179937D01*
X121793761Y-111198800D01*
X121816734Y-111243885D01*
X121832368Y-111292003D01*
X121841372Y-111309675D01*
X121871115Y-111350612D01*
X121875466Y-111359153D01*
X121889305Y-111468699D01*
X121893751Y-111485293D01*
X121986408Y-111705716D01*
X121995153Y-111720504D01*
X122143673Y-111907889D01*
X122156073Y-111919780D01*
X122349513Y-112060323D01*
X122364654Y-112068441D01*
X122588764Y-112151787D01*
X122605530Y-112155534D01*
X122843797Y-112175542D01*
X122860953Y-112174643D01*
X123095823Y-112129840D01*
X123112106Y-112124360D01*
X123326276Y-112018044D01*
X123340485Y-112008388D01*
X123518175Y-111848396D01*
X123529264Y-111835274D01*
X123657383Y-111633389D01*
X123664535Y-111617769D01*
X123676863Y-111576936D01*
X123856614Y-111487706D01*
X123870823Y-111478050D01*
X124048513Y-111318058D01*
X124059602Y-111304936D01*
X124187721Y-111103051D01*
X124194872Y-111087431D01*
X124264078Y-110858214D01*
X124266777Y-110840576D01*
X124269464Y-110583869D01*
X124267136Y-110566179D01*
X124202747Y-110335562D01*
X124196779Y-110321771D01*
X126285419Y-110321771D01*
X126285431Y-110321770D01*
X126340729Y-110321770D01*
X126360318Y-110318668D01*
X126408433Y-110303034D01*
X126458416Y-110295118D01*
X126477279Y-110288989D01*
X126522366Y-110266016D01*
X126570484Y-110250382D01*
X126588156Y-110241377D01*
X126629087Y-110211638D01*
X126674174Y-110188665D01*
X126690220Y-110177007D01*
X126910221Y-109957006D01*
X126910234Y-109956991D01*
X129761602Y-107105624D01*
X131235592Y-107105624D01*
X131298211Y-107356776D01*
X131301659Y-107366875D01*
X131398581Y-107587671D01*
X131403682Y-107597046D01*
X131536420Y-107798355D01*
X131543028Y-107806736D01*
X131707788Y-107982803D01*
X131715712Y-107989951D01*
X131907782Y-108135739D01*
X131916798Y-108141450D01*
X132130686Y-108252792D01*
X132140535Y-108256902D01*
X132370124Y-108330616D01*
X132380525Y-108333007D01*
X132494152Y-108349178D01*
X132580990Y-108273823D01*
X132580990Y-107082580D01*
X132836990Y-107082580D01*
X132836990Y-108274519D01*
X132929208Y-108350133D01*
X133118009Y-108312407D01*
X133128260Y-108309438D01*
X133353377Y-108223024D01*
X133362981Y-108218371D01*
X133570320Y-108095262D01*
X133579002Y-108089057D01*
X133762635Y-107932775D01*
X133770148Y-107925195D01*
X133924823Y-107740206D01*
X133930952Y-107731469D01*
X134052246Y-107523065D01*
X134056815Y-107513421D01*
X134141262Y-107287558D01*
X134144141Y-107277282D01*
X134177933Y-107100140D01*
X134102346Y-107008771D01*
X132910799Y-107008771D01*
X132836990Y-107082580D01*
X132580990Y-107082580D01*
X132507181Y-107008771D01*
X131311262Y-107008771D01*
X131235592Y-107105624D01*
X129761602Y-107105624D01*
X130626839Y-106240388D01*
X130767324Y-106213590D01*
X130783606Y-106208110D01*
X130997776Y-106101794D01*
X131011985Y-106092138D01*
X131189675Y-105932146D01*
X131200764Y-105919024D01*
X131328883Y-105717139D01*
X131336034Y-105701519D01*
X131405240Y-105472302D01*
X131407939Y-105454664D01*
X131410626Y-105197957D01*
X131408298Y-105180267D01*
X131343909Y-104949650D01*
X131337086Y-104933883D01*
X131213222Y-104729360D01*
X131212169Y-104728059D01*
X131263334Y-104676894D01*
X131298211Y-104816776D01*
X131301659Y-104826875D01*
X131398581Y-105047671D01*
X131403682Y-105057046D01*
X131536420Y-105258355D01*
X131543028Y-105266736D01*
X131707788Y-105442803D01*
X131715712Y-105449951D01*
X131907782Y-105595739D01*
X131916798Y-105601450D01*
X131933156Y-105609965D01*
X131932022Y-105610653D01*
X131737189Y-105752728D01*
X131729128Y-105759723D01*
X131561019Y-105932593D01*
X131554253Y-105940845D01*
X131417673Y-106139569D01*
X131412393Y-106148844D01*
X131311250Y-106367739D01*
X131307609Y-106377771D01*
X131233075Y-106654004D01*
X131308724Y-106752771D01*
X134101853Y-106752771D01*
X134177363Y-106663258D01*
X134151489Y-106511885D01*
X134148807Y-106501555D01*
X134068713Y-106274114D01*
X134064329Y-106264383D01*
X133947057Y-106053687D01*
X133941097Y-106044835D01*
X133790003Y-105856911D01*
X133782637Y-105849188D01*
X133602039Y-105689409D01*
X133593476Y-105683038D01*
X133476878Y-105610744D01*
X133570320Y-105555262D01*
X133579002Y-105549057D01*
X133762635Y-105392775D01*
X133770148Y-105385195D01*
X133924823Y-105200206D01*
X133930952Y-105191469D01*
X134052246Y-104983065D01*
X134056815Y-104973421D01*
X134141262Y-104747558D01*
X134144141Y-104737282D01*
X134189382Y-104500122D01*
X134190497Y-104488899D01*
X134193067Y-104221112D01*
X134192168Y-104209870D01*
X134151489Y-103971885D01*
X134148807Y-103961555D01*
X134068713Y-103734114D01*
X134064329Y-103724383D01*
X133947057Y-103513687D01*
X133941097Y-103504835D01*
X133790003Y-103316911D01*
X133782637Y-103309188D01*
X133602039Y-103149409D01*
X133593476Y-103143038D01*
X133476878Y-103070744D01*
X133570320Y-103015262D01*
X133579002Y-103009057D01*
X133762635Y-102852775D01*
X133770148Y-102845195D01*
X133924823Y-102660206D01*
X133930952Y-102651469D01*
X134052246Y-102443065D01*
X134056815Y-102433421D01*
X134141262Y-102207558D01*
X134144141Y-102197282D01*
X134189382Y-101960122D01*
X134190497Y-101948899D01*
X134193067Y-101681112D01*
X134192168Y-101669870D01*
X134151489Y-101431885D01*
X134148807Y-101421555D01*
X134068713Y-101194114D01*
X134064329Y-101184383D01*
X133947057Y-100973687D01*
X133941097Y-100964835D01*
X133790003Y-100776911D01*
X133782637Y-100769188D01*
X133720120Y-100713878D01*
X133862849Y-100675634D01*
X133887329Y-100662891D01*
X134043580Y-100531781D01*
X134057751Y-100514892D01*
X134158349Y-100340651D01*
X134165890Y-100319934D01*
X134199868Y-100127233D01*
X134200827Y-100116272D01*
X134200827Y-98402513D01*
X134198671Y-98386137D01*
X134123853Y-98106913D01*
X134111110Y-98082433D01*
X133980000Y-97926181D01*
X133963111Y-97912010D01*
X133788870Y-97811412D01*
X133768153Y-97803871D01*
X133575452Y-97769893D01*
X133564491Y-97768934D01*
X131850732Y-97768934D01*
X131834356Y-97771090D01*
X131555132Y-97845908D01*
X131530652Y-97858651D01*
X131374400Y-97989761D01*
X131360229Y-98006650D01*
X131259631Y-98180891D01*
X131252090Y-98201608D01*
X131218112Y-98394309D01*
X131217153Y-98405270D01*
X131217153Y-100119029D01*
X131219309Y-100135405D01*
X131294127Y-100414630D01*
X131306870Y-100439110D01*
X131437980Y-100595361D01*
X131454869Y-100609532D01*
X131629110Y-100710130D01*
X131649827Y-100717671D01*
X131686019Y-100724053D01*
X131561019Y-100852593D01*
X131554253Y-100860845D01*
X131417673Y-101059569D01*
X131412393Y-101068844D01*
X131311250Y-101287739D01*
X131307608Y-101297771D01*
X131244792Y-101530578D01*
X131242893Y-101541080D01*
X131225955Y-101720273D01*
X131185397Y-101722825D01*
X131168557Y-101726221D01*
X130942752Y-101804854D01*
X130927445Y-101812654D01*
X130731103Y-101949114D01*
X130718457Y-101960743D01*
X130566045Y-102144977D01*
X130556992Y-102159578D01*
X130459739Y-102378012D01*
X130454946Y-102394510D01*
X130439814Y-102496981D01*
X126583164Y-106353632D01*
X126584626Y-106213957D01*
X126582298Y-106196267D01*
X126517909Y-105965650D01*
X126511086Y-105949883D01*
X126387222Y-105745360D01*
X126376411Y-105732009D01*
X126202110Y-105568330D01*
X126188106Y-105558378D01*
X125976210Y-105447602D01*
X125960046Y-105441782D01*
X125726166Y-105392069D01*
X125709032Y-105390811D01*
X125470397Y-105405825D01*
X125453557Y-105409221D01*
X125227752Y-105487854D01*
X125212445Y-105495654D01*
X125016103Y-105632114D01*
X125003457Y-105643743D01*
X124954935Y-105702396D01*
X124950554Y-105704628D01*
X124934510Y-105716285D01*
X124103889Y-106546907D01*
X124073397Y-106548825D01*
X124056557Y-106552221D01*
X123830752Y-106630854D01*
X123815445Y-106638654D01*
X123619103Y-106775114D01*
X123606457Y-106786743D01*
X123454045Y-106970977D01*
X123444992Y-106985578D01*
X123347738Y-107204012D01*
X123342945Y-107220510D01*
X123308017Y-107457050D01*
X123307837Y-107474229D01*
X123337805Y-107711449D01*
X123342251Y-107728043D01*
X123343293Y-107730521D01*
X119623857Y-107730521D01*
X119662957Y-107601019D01*
X120144078Y-107119898D01*
X120284563Y-107093100D01*
X120300846Y-107087620D01*
X120515016Y-106981304D01*
X120529225Y-106971648D01*
X120706915Y-106811656D01*
X120718004Y-106798534D01*
X120846123Y-106596649D01*
X120853274Y-106581029D01*
X120922480Y-106351812D01*
X120925179Y-106334174D01*
X120927866Y-106077467D01*
X120925538Y-106059777D01*
X120861149Y-105829160D01*
X120854326Y-105813393D01*
X120730462Y-105608870D01*
X120719651Y-105595519D01*
X120545350Y-105431840D01*
X120531346Y-105421888D01*
X120319450Y-105311112D01*
X120303286Y-105305292D01*
X120069406Y-105255579D01*
X120052272Y-105254321D01*
X119813637Y-105269335D01*
X119796797Y-105272731D01*
X119570992Y-105351364D01*
X119555685Y-105359164D01*
X119359343Y-105495624D01*
X119346697Y-105507253D01*
X119194285Y-105691487D01*
X119185232Y-105706088D01*
X119087979Y-105924522D01*
X119083186Y-105941020D01*
X119068055Y-106043490D01*
X118619135Y-106492411D01*
X118560898Y-106496075D01*
X118544057Y-106499471D01*
X118318252Y-106578104D01*
X118302945Y-106585904D01*
X118106603Y-106722364D01*
X118093957Y-106733993D01*
X117941545Y-106918227D01*
X117932492Y-106932828D01*
X117835238Y-107151262D01*
X117830445Y-107167760D01*
X117795517Y-107404300D01*
X117795337Y-107421479D01*
X117825305Y-107658699D01*
X117829751Y-107675293D01*
X117852967Y-107730521D01*
X117251061Y-107730521D01*
X117251049Y-107730522D01*
X117195749Y-107730522D01*
X117176160Y-107733624D01*
X117128045Y-107749258D01*
X117078063Y-107757175D01*
X117059201Y-107763303D01*
X117014113Y-107786276D01*
X116965994Y-107801911D01*
X116948323Y-107810916D01*
X116907389Y-107840656D01*
X116862306Y-107863627D01*
X116846260Y-107875285D01*
X116803469Y-107918077D01*
X113184000Y-111537547D01*
X113034755Y-111686791D01*
X113023098Y-111702836D01*
X113000128Y-111747915D01*
X112970383Y-111788856D01*
X112961379Y-111806528D01*
X112945742Y-111854654D01*
X112922774Y-111899731D01*
X112916645Y-111918593D01*
X112908728Y-111968576D01*
X112893093Y-112016694D01*
X112889991Y-112036282D01*
X112889991Y-112091580D01*
X112889990Y-112091592D01*
X112889990Y-112444208D01*
X112887213Y-112448030D01*
X112853545Y-112488727D01*
X112844492Y-112503328D01*
X112747238Y-112721762D01*
X112742445Y-112738260D01*
X112707517Y-112974800D01*
X112707337Y-112991979D01*
X112705490Y-112991979D01*
X112705490Y-112733053D01*
X112798883Y-112585890D01*
X112806034Y-112570269D01*
X112875240Y-112341052D01*
X112877939Y-112323414D01*
X112880626Y-112066707D01*
X112878298Y-112049017D01*
X112813909Y-111818400D01*
X112807086Y-111802633D01*
X112683222Y-111598110D01*
X112672411Y-111584759D01*
X112498110Y-111421080D01*
X112484106Y-111411128D01*
X112272210Y-111300352D01*
X112256046Y-111294532D01*
X112055480Y-111251900D01*
X112055480Y-108835286D01*
X112180713Y-108618376D01*
X112187034Y-108603116D01*
X112253324Y-108355719D01*
X112255480Y-108339343D01*
X112255480Y-108083219D01*
X112253324Y-108066843D01*
X112187034Y-107819446D01*
X112180713Y-107804186D01*
X112052651Y-107582376D01*
X112042596Y-107569272D01*
X111861489Y-107388165D01*
X111848385Y-107378110D01*
X111626575Y-107250048D01*
X111611315Y-107243727D01*
X111363918Y-107177437D01*
X111347542Y-107175281D01*
X111091418Y-107175281D01*
X111075042Y-107177437D01*
X110827645Y-107243727D01*
X110812385Y-107250048D01*
X110590575Y-107378110D01*
X110577471Y-107388165D01*
X110396364Y-107569272D01*
X110386309Y-107582376D01*
X110258247Y-107804186D01*
X110251926Y-107819446D01*
X110185636Y-108066843D01*
X110183480Y-108083219D01*
X104953313Y-108083219D01*
X104967740Y-108035438D01*
X104970439Y-108017800D01*
X104973126Y-107761093D01*
X104970798Y-107743403D01*
X104906409Y-107512786D01*
X104899586Y-107497019D01*
X104775722Y-107292496D01*
X104764911Y-107279145D01*
X104590610Y-107115466D01*
X104576606Y-107105514D01*
X104364710Y-106994738D01*
X104348546Y-106988918D01*
X104114666Y-106939205D01*
X104097532Y-106937947D01*
X104084882Y-106938743D01*
X104084882Y-103540367D01*
X104239833Y-103510809D01*
X104256116Y-103505329D01*
X104470286Y-103399013D01*
X104484495Y-103389357D01*
X104662185Y-103229365D01*
X104673274Y-103216243D01*
X104801393Y-103014358D01*
X104808544Y-102998738D01*
X104877750Y-102769521D01*
X104880449Y-102751883D01*
X104883136Y-102495176D01*
X104880808Y-102477486D01*
X104816419Y-102246869D01*
X104809596Y-102231102D01*
X104685732Y-102026579D01*
X104674921Y-102013228D01*
X104500620Y-101849549D01*
X104486616Y-101839597D01*
X104274720Y-101728821D01*
X104258556Y-101723001D01*
X104084882Y-101686085D01*
X104084882Y-99315359D01*
X104136722Y-99333716D01*
X104146721Y-99336358D01*
X104303805Y-99364337D01*
X104393990Y-99288796D01*
X104393990Y-97972580D01*
X104649990Y-97972580D01*
X104649990Y-99288671D01*
X104737829Y-99364091D01*
X104861953Y-99345096D01*
X104872012Y-99342699D01*
X105094100Y-99270111D01*
X105103634Y-99266103D01*
X105310883Y-99158216D01*
X105319634Y-99152705D01*
X105506480Y-99012417D01*
X105514214Y-99005550D01*
X105675637Y-98836630D01*
X105682146Y-98828593D01*
X105813813Y-98635575D01*
X105818922Y-98626582D01*
X105917296Y-98414652D01*
X105920867Y-98404947D01*
X105983410Y-98179424D01*
X105985426Y-98168495D01*
X106003133Y-97981172D01*
X105928154Y-97898771D01*
X104723799Y-97898771D01*
X104649990Y-97972580D01*
X104393990Y-97972580D01*
X104393990Y-96252871D01*
X104393845Y-96252746D01*
X104649990Y-96252746D01*
X104649990Y-97568962D01*
X104723799Y-97642771D01*
X105929284Y-97642771D01*
X106004142Y-97561505D01*
X105991500Y-97407736D01*
X105989810Y-97397533D01*
X105932889Y-97170923D01*
X105929556Y-97161134D01*
X105836390Y-96946864D01*
X105831503Y-96937750D01*
X105704590Y-96741572D01*
X105698280Y-96733379D01*
X105541030Y-96560565D01*
X105533467Y-96553512D01*
X105350104Y-96408701D01*
X105341490Y-96402978D01*
X105136939Y-96290060D01*
X105127506Y-96285820D01*
X104907258Y-96207826D01*
X104897259Y-96205184D01*
X104740175Y-96177205D01*
X104649990Y-96252746D01*
X104393845Y-96252746D01*
X104306151Y-96177451D01*
X104182027Y-96196446D01*
X104171968Y-96198843D01*
X103949880Y-96271431D01*
X103940346Y-96275439D01*
X103733097Y-96383326D01*
X103724346Y-96388837D01*
X103537500Y-96529126D01*
X103529766Y-96535992D01*
X103368343Y-96704913D01*
X103361835Y-96712950D01*
X103271625Y-96845192D01*
X103204590Y-96741572D01*
X103198280Y-96733379D01*
X103041030Y-96560565D01*
X103033467Y-96553512D01*
X102850104Y-96408701D01*
X102841490Y-96402978D01*
X102636939Y-96290060D01*
X102627506Y-96285820D01*
X102407258Y-96207826D01*
X102397260Y-96205184D01*
X102167231Y-96164211D01*
X102156936Y-96163238D01*
X101923305Y-96160382D01*
X101912988Y-96161104D01*
X101682028Y-96196446D01*
X101671968Y-96198843D01*
X101449880Y-96271431D01*
X101440346Y-96275439D01*
X101233097Y-96383326D01*
X101224346Y-96388837D01*
X101037500Y-96529126D01*
X101029766Y-96535992D01*
X100868343Y-96704913D01*
X100861835Y-96712950D01*
X100771625Y-96845192D01*
X100704590Y-96741572D01*
X100698280Y-96733379D01*
X100541030Y-96560565D01*
X100533467Y-96553512D01*
X100350104Y-96408701D01*
X100341490Y-96402978D01*
X100136939Y-96290060D01*
X100127506Y-96285820D01*
X99907258Y-96207826D01*
X99897260Y-96205184D01*
X99667231Y-96164211D01*
X99656936Y-96163238D01*
X99423305Y-96160382D01*
X99412988Y-96161104D01*
X99182028Y-96196446D01*
X99171968Y-96198843D01*
X98949880Y-96271431D01*
X98940346Y-96275439D01*
X98733097Y-96383326D01*
X98724346Y-96388837D01*
X98537500Y-96529126D01*
X98529766Y-96535992D01*
X98416881Y-96654119D01*
X98299294Y-96471151D01*
X98287491Y-96457530D01*
X98109141Y-96302988D01*
X98093979Y-96293244D01*
X97879313Y-96195210D01*
X97862020Y-96190132D01*
X97632896Y-96157189D01*
X97623919Y-96156547D01*
X96417807Y-96156547D01*
X96404377Y-96157991D01*
X96068637Y-96231026D01*
X96047803Y-96239656D01*
X95847370Y-96368467D01*
X95833749Y-96380270D01*
X95679207Y-96558620D01*
X95669463Y-96573782D01*
X95571429Y-96788448D01*
X95566351Y-96805741D01*
X95533408Y-97034865D01*
X95532766Y-97043842D01*
X94761133Y-97043842D01*
X94761338Y-97043638D01*
X94901823Y-97016840D01*
X94918106Y-97011360D01*
X95132276Y-96905044D01*
X95146485Y-96895388D01*
X95324175Y-96735396D01*
X95335264Y-96722274D01*
X95463383Y-96520389D01*
X95470534Y-96504769D01*
X95539740Y-96275552D01*
X95542439Y-96257914D01*
X95545126Y-96001207D01*
X95542798Y-95983517D01*
X95478409Y-95752900D01*
X95471586Y-95737133D01*
X95347722Y-95532610D01*
X95336911Y-95519259D01*
X95162610Y-95355580D01*
X95148606Y-95345628D01*
X94936710Y-95234852D01*
X94920546Y-95229032D01*
X94686666Y-95179319D01*
X94669532Y-95178061D01*
X94430897Y-95193075D01*
X94414057Y-95196471D01*
X94188252Y-95275104D01*
X94172945Y-95282904D01*
X93976603Y-95419364D01*
X93963957Y-95430993D01*
X93811545Y-95615227D01*
X93802492Y-95629828D01*
X93705239Y-95848262D01*
X93700445Y-95864760D01*
X93685314Y-95967232D01*
X91983000Y-97669547D01*
X91833755Y-97818791D01*
X91822098Y-97834836D01*
X91799128Y-97879915D01*
X91769383Y-97920856D01*
X91760379Y-97938528D01*
X91744743Y-97986653D01*
X91721773Y-98031731D01*
X91715644Y-98050594D01*
X91707729Y-98100572D01*
X91692093Y-98148693D01*
X91688991Y-98168282D01*
X91688991Y-98228797D01*
X91688990Y-101286172D01*
X91652545Y-101330227D01*
X91643492Y-101344828D01*
X91546238Y-101563262D01*
X91541445Y-101579760D01*
X91506517Y-101816300D01*
X91506337Y-101833479D01*
X90182000Y-101833479D01*
X90182000Y-94908122D01*
X90181999Y-94908110D01*
X90181999Y-94852811D01*
X90178897Y-94833222D01*
X90163263Y-94785107D01*
X90155347Y-94735124D01*
X90149218Y-94716262D01*
X90126245Y-94671175D01*
X90110611Y-94623057D01*
X90101606Y-94605385D01*
X90071867Y-94564454D01*
X90048894Y-94519366D01*
X90037236Y-94503321D01*
X89953374Y-94419460D01*
X89931733Y-94376987D01*
X89920075Y-94360941D01*
X89882753Y-94323621D01*
X89882747Y-94323613D01*
X89373688Y-93814556D01*
X89373684Y-93814551D01*
X88802189Y-93243057D01*
X88802184Y-93243051D01*
X87842313Y-92283181D01*
X87836232Y-92271247D01*
X87824574Y-92255201D01*
X87787255Y-92217883D01*
X87787248Y-92217874D01*
X86893379Y-91324007D01*
X86673715Y-91070079D01*
X86441318Y-90795537D01*
X86212109Y-90518795D01*
X85985799Y-90239511D01*
X85762426Y-89957726D01*
X85542378Y-89673935D01*
X85325125Y-89387458D01*
X85111099Y-89098859D01*
X84900025Y-88807765D01*
X84692195Y-88514583D01*
X84487483Y-88219130D01*
X84285982Y-87921547D01*
X84087621Y-87621720D01*
X83892577Y-87319929D01*
X83700800Y-87016093D01*
X83512181Y-86710038D01*
X83326989Y-86402197D01*
X83144893Y-86092022D01*
X82966309Y-85780219D01*
X82791059Y-85466479D01*
X82619134Y-85150792D01*
X82450568Y-84833204D01*
X82285487Y-84513965D01*
X82217795Y-84379542D01*
X82123890Y-84193069D01*
X81965672Y-83870318D01*
X81810934Y-83545907D01*
X81659687Y-83219862D01*
X81511990Y-82892315D01*
X81367687Y-82562910D01*
X81226997Y-82232145D01*
X81089879Y-81899931D01*
X80956347Y-81566301D01*
X80826401Y-81231269D01*
X80700052Y-80894846D01*
X80577217Y-80556807D01*
X80458135Y-80217818D01*
X80342602Y-79877294D01*
X80230844Y-79535901D01*
X80122719Y-79193228D01*
X80018195Y-78849157D01*
X79917463Y-78504301D01*
X79820336Y-78158038D01*
X79727021Y-77811095D01*
X79637383Y-77462984D01*
X79551473Y-77113884D01*
X79469375Y-76764154D01*
X79390986Y-76413366D01*
X79316378Y-76061818D01*
X79245507Y-75709305D01*
X79178454Y-75356222D01*
X79115203Y-75002516D01*
X79055734Y-74648063D01*
X79000063Y-74292943D01*
X78948198Y-73937215D01*
X78918935Y-73720237D01*
X78932912Y-73677220D01*
X78955885Y-73632133D01*
X78962014Y-73613271D01*
X78969930Y-73563288D01*
X78985564Y-73515173D01*
X78988666Y-73495584D01*
X78988666Y-73440285D01*
X78988667Y-73440273D01*
X78988667Y-73426382D01*
X79082060Y-73279219D01*
X79089211Y-73263598D01*
X79158417Y-73034381D01*
X79161116Y-73016743D01*
X79163803Y-72760036D01*
X79161475Y-72742346D01*
X79097086Y-72511729D01*
X79090263Y-72495962D01*
X78966399Y-72291439D01*
X78955588Y-72278088D01*
X78781287Y-72114409D01*
X78767283Y-72104457D01*
X78555387Y-71993681D01*
X78539223Y-71987861D01*
X78328161Y-71942998D01*
X78326330Y-71920277D01*
X78326330Y-71486008D01*
X78326329Y-71485996D01*
X78326329Y-71430695D01*
X78323226Y-71411107D01*
X78307593Y-71362992D01*
X78299677Y-71313009D01*
X78294761Y-71297880D01*
X78294761Y-70751690D01*
X78294760Y-70751678D01*
X78294760Y-70696378D01*
X78291657Y-70676790D01*
X78276024Y-70628675D01*
X78268108Y-70578692D01*
X78261979Y-70559830D01*
X78254904Y-70545945D01*
X78254904Y-69992324D01*
X78254903Y-69992312D01*
X78254903Y-69937012D01*
X78251800Y-69917424D01*
X78236167Y-69869309D01*
X78230978Y-69836546D01*
X78230978Y-69098185D01*
X78230977Y-69098173D01*
X78230977Y-69066936D01*
X78259082Y-68973850D01*
X78261781Y-68956212D01*
X78264468Y-68699505D01*
X78262140Y-68681815D01*
X78197751Y-68451198D01*
X78190928Y-68435431D01*
X78067064Y-68230908D01*
X78056253Y-68217557D01*
X77881952Y-68053878D01*
X77867948Y-68043926D01*
X77656052Y-67933150D01*
X77639888Y-67927330D01*
X77406008Y-67877617D01*
X77388874Y-67876359D01*
X77150239Y-67891373D01*
X77133399Y-67894769D01*
X76907594Y-67973402D01*
X76892287Y-67981202D01*
X76695945Y-68117662D01*
X76683299Y-68129291D01*
X76530887Y-68313525D01*
X76521834Y-68328126D01*
X76424580Y-68546560D01*
X76419787Y-68563058D01*
X76407538Y-68646010D01*
X75770991Y-68646010D01*
X75770991Y-59914010D01*
X82502991Y-59914010D01*
X82502992Y-68646010D01*
G37*
D18*
X82502992Y-68646010D02*
X82218573Y-68646010D01*
X82211526Y-68645082D01*
X82129754Y-68646010D01*
X82112287Y-68646010D01*
X82034990Y-68518378D01*
X82034990Y-64822592D01*
X82034989Y-64822580D01*
X82034989Y-64767281D01*
X82031887Y-64747693D01*
X82016254Y-64699579D01*
X82008337Y-64649594D01*
X82002208Y-64630733D01*
X81979237Y-64585650D01*
X81963600Y-64537525D01*
X81954596Y-64519853D01*
X81924852Y-64478915D01*
X81901884Y-64433837D01*
X81890227Y-64417792D01*
X81740981Y-64268547D01*
X80427415Y-62954982D01*
X80365409Y-62732900D01*
X80358586Y-62717133D01*
X80234722Y-62512610D01*
X80223911Y-62499259D01*
X80049610Y-62335580D01*
X80035606Y-62325628D01*
X79823710Y-62214852D01*
X79807546Y-62209032D01*
X79573666Y-62159319D01*
X79556532Y-62158061D01*
X79317897Y-62173075D01*
X79301057Y-62176471D01*
X79075252Y-62255104D01*
X79059945Y-62262904D01*
X78863603Y-62399364D01*
X78850957Y-62410993D01*
X78698545Y-62595227D01*
X78689492Y-62609828D01*
X78592238Y-62828262D01*
X78587445Y-62844760D01*
X78552517Y-63081300D01*
X78552337Y-63098479D01*
X78582305Y-63335699D01*
X78586751Y-63352293D01*
X78679408Y-63572716D01*
X78688153Y-63587504D01*
X78836673Y-63774889D01*
X78849073Y-63786780D01*
X79042513Y-63927323D01*
X79057654Y-63935441D01*
X79281764Y-64018787D01*
X79298530Y-64022534D01*
X79346573Y-64026569D01*
X80512991Y-65192987D01*
X80512990Y-68520172D01*
X80476545Y-68564227D01*
X80467492Y-68578828D01*
X80370238Y-68797262D01*
X80365445Y-68813760D01*
X80330517Y-69050300D01*
X80330337Y-69067479D01*
X80360305Y-69304699D01*
X80364751Y-69321293D01*
X80457408Y-69541716D01*
X80466153Y-69556504D01*
X80614673Y-69743889D01*
X80627073Y-69755780D01*
X80820513Y-69896323D01*
X80835654Y-69904441D01*
X81059764Y-69987787D01*
X81076530Y-69991534D01*
X81314797Y-70011542D01*
X81331953Y-70010643D01*
X81509830Y-69976712D01*
X81516217Y-70342633D01*
X81516466Y-70345439D01*
X81516374Y-70348748D01*
X81516889Y-70359875D01*
X81516908Y-70360258D01*
X81571956Y-71410633D01*
X81572303Y-71413425D01*
X81572326Y-71416753D01*
X81573230Y-71427851D01*
X81573262Y-71428228D01*
X81664933Y-72476043D01*
X81665376Y-72478819D01*
X81665516Y-72482141D01*
X81666808Y-72493206D01*
X81666852Y-72493579D01*
X81795036Y-73537555D01*
X81795575Y-73540310D01*
X81795831Y-73543630D01*
X81797508Y-73554643D01*
X81797566Y-73555014D01*
X81962106Y-74593881D01*
X81962740Y-74596611D01*
X81963110Y-74599913D01*
X81965170Y-74610862D01*
X81965241Y-74611237D01*
X82165938Y-75643732D01*
X82166671Y-75646452D01*
X82167156Y-75649737D01*
X82169596Y-75660604D01*
X82169680Y-75660971D01*
X82406287Y-76685829D01*
X82407113Y-76688519D01*
X82407712Y-76691780D01*
X82410529Y-76702556D01*
X82410627Y-76702926D01*
X82682858Y-77718908D01*
X82683777Y-77721565D01*
X82684489Y-77724804D01*
X82687682Y-77735477D01*
X82687792Y-77735840D01*
X82995313Y-78741696D01*
X82996326Y-78744324D01*
X82997149Y-78747531D01*
X83000710Y-78758082D01*
X83000835Y-78758448D01*
X83343273Y-79752963D01*
X83344376Y-79755551D01*
X83345311Y-79758729D01*
X83349239Y-79769151D01*
X83349376Y-79769511D01*
X83726314Y-80751470D01*
X83727508Y-80754023D01*
X83728554Y-80757165D01*
X83732843Y-80767444D01*
X83732992Y-80767797D01*
X84143969Y-81735999D01*
X84145250Y-81738505D01*
X84146407Y-81741615D01*
X84151052Y-81751736D01*
X84151212Y-81752083D01*
X84595731Y-82705356D01*
X84597096Y-82707812D01*
X84598365Y-82710889D01*
X84603363Y-82720843D01*
X84603532Y-82721178D01*
X85081045Y-83658352D01*
X85082498Y-83660763D01*
X85083866Y-83663780D01*
X85089206Y-83673553D01*
X85089392Y-83673891D01*
X85599324Y-84593832D01*
X85600856Y-84596184D01*
X85602336Y-84599166D01*
X85608015Y-84608747D01*
X85608209Y-84609072D01*
X86149935Y-85510656D01*
X86151552Y-85512959D01*
X86153129Y-85515876D01*
X86159139Y-85525254D01*
X86159346Y-85525575D01*
X86732208Y-86407705D01*
X86733904Y-86409949D01*
X86735585Y-86412814D01*
X86741920Y-86421978D01*
X86742135Y-86422287D01*
X87345431Y-87283883D01*
X87347203Y-87286066D01*
X87348977Y-87288861D01*
X87355626Y-87297798D01*
X87355858Y-87298107D01*
X87988859Y-88138128D01*
X87990705Y-88140246D01*
X87992577Y-88142980D01*
X87999534Y-88151680D01*
X87999776Y-88151981D01*
X88661710Y-88969400D01*
X88663629Y-88971453D01*
X88665599Y-88974124D01*
X88672856Y-88982575D01*
X88673105Y-88982863D01*
X89363156Y-89776677D01*
X89365147Y-89778662D01*
X89367214Y-89781270D01*
X89374759Y-89789460D01*
X89375018Y-89789739D01*
X90092355Y-90558988D01*
X90094409Y-90560898D01*
X90096571Y-90563439D01*
X90104399Y-90571360D01*
X90104664Y-90571627D01*
X90848409Y-91315373D01*
X90850536Y-91317217D01*
X90852775Y-91319669D01*
X90860874Y-91327313D01*
X90861151Y-91327573D01*
X91630403Y-92044912D01*
X91632590Y-92046678D01*
X91634911Y-92049048D01*
X91643274Y-92056407D01*
X91643561Y-92056658D01*
X92437377Y-92746712D01*
X92439626Y-92748402D01*
X92442034Y-92750695D01*
X92450647Y-92757756D01*
X92450940Y-92757995D01*
X93268354Y-93419923D01*
X93270657Y-93421531D01*
X93273142Y-93423737D01*
X93281996Y-93430494D01*
X93282300Y-93430724D01*
X94122316Y-94063723D01*
X94124677Y-94065252D01*
X94127230Y-94067364D01*
X94136313Y-94073807D01*
X94136631Y-94074031D01*
X94998233Y-94677331D01*
X95000649Y-94678778D01*
X95003272Y-94680798D01*
X95012577Y-94686922D01*
X95012897Y-94687131D01*
X95895028Y-95259994D01*
X95897486Y-95261352D01*
X95900183Y-95263283D01*
X95909697Y-95269079D01*
X95910024Y-95269277D01*
X96811609Y-95811003D01*
X96819602Y-95815063D01*
X96879061Y-95840117D01*
X96941690Y-95869522D01*
X96959245Y-95874830D01*
X96962642Y-95875338D01*
X96966100Y-95876795D01*
X96983465Y-95881351D01*
X97067242Y-95890970D01*
X97088043Y-95894079D01*
X97097367Y-95894772D01*
X97100352Y-95894772D01*
X97145866Y-95899998D01*
X97163812Y-95899496D01*
X97191305Y-95894772D01*
X108727075Y-95894772D01*
X108691238Y-95975262D01*
X108686445Y-95991760D01*
X108651517Y-96228300D01*
X108651337Y-96245479D01*
X108681305Y-96482699D01*
X108685751Y-96499293D01*
X108778408Y-96719716D01*
X108787153Y-96734504D01*
X108935673Y-96921889D01*
X108948073Y-96933780D01*
X109141513Y-97074323D01*
X109156654Y-97082441D01*
X109380764Y-97165787D01*
X109397530Y-97169534D01*
X109635797Y-97189542D01*
X109652953Y-97188643D01*
X109887823Y-97143840D01*
X109904106Y-97138360D01*
X110103990Y-97039136D01*
X110103991Y-105290198D01*
X110103991Y-105501260D01*
X110107093Y-105520849D01*
X110122729Y-105568970D01*
X110130644Y-105618948D01*
X110136773Y-105637811D01*
X110159743Y-105682889D01*
X110175379Y-105731014D01*
X110184383Y-105748686D01*
X110214128Y-105789627D01*
X110237098Y-105834706D01*
X110248755Y-105850751D01*
X110492042Y-106094037D01*
X110492043Y-106094040D01*
X110659010Y-106261007D01*
X110675056Y-106272665D01*
X110720143Y-106295639D01*
X110761074Y-106325377D01*
X110778745Y-106334381D01*
X110826861Y-106350015D01*
X110871951Y-106372989D01*
X110890813Y-106379118D01*
X110940795Y-106387034D01*
X110988910Y-106402667D01*
X111008498Y-106405770D01*
X111063799Y-106405770D01*
X111063811Y-106405771D01*
X113117804Y-106405771D01*
X113117816Y-106405770D01*
X113173114Y-106405770D01*
X113192703Y-106402668D01*
X113240818Y-106387034D01*
X113290801Y-106379118D01*
X113309664Y-106372989D01*
X113354751Y-106350016D01*
X113402869Y-106334382D01*
X113420541Y-106325377D01*
X113461472Y-106295638D01*
X113506559Y-106272665D01*
X113522605Y-106261007D01*
X114021226Y-105762386D01*
X114032884Y-105746341D01*
X114055856Y-105701256D01*
X114085595Y-105660323D01*
X114094600Y-105642652D01*
X114110235Y-105594533D01*
X114133208Y-105549445D01*
X114139336Y-105530583D01*
X114147253Y-105480601D01*
X114162887Y-105432486D01*
X114165989Y-105412897D01*
X114165989Y-105357597D01*
X114165990Y-105357585D01*
X114165990Y-98254020D01*
X114834153Y-98254020D01*
X114834153Y-99967779D01*
X114836309Y-99984155D01*
X114911127Y-100263380D01*
X114923870Y-100287860D01*
X115054980Y-100444111D01*
X115071869Y-100458282D01*
X115246110Y-100558880D01*
X115266827Y-100566421D01*
X115459528Y-100600399D01*
X115470489Y-100601358D01*
X117184248Y-100601358D01*
X117200624Y-100599202D01*
X117479849Y-100524384D01*
X117504329Y-100511641D01*
X117660580Y-100380531D01*
X117674751Y-100363642D01*
X117775349Y-100189401D01*
X117782890Y-100168684D01*
X117789515Y-100131114D01*
X117864788Y-100211553D01*
X117872712Y-100218701D01*
X118064782Y-100364489D01*
X118073798Y-100370200D01*
X118287686Y-100481542D01*
X118297535Y-100485652D01*
X118527124Y-100559365D01*
X118537525Y-100561757D01*
X118776252Y-100595733D01*
X118786907Y-100596338D01*
X119027946Y-100589605D01*
X119038551Y-100588406D01*
X119275009Y-100541157D01*
X119285260Y-100538188D01*
X119510377Y-100451774D01*
X119519981Y-100447121D01*
X119727320Y-100324012D01*
X119736002Y-100317807D01*
X119919635Y-100161525D01*
X119927148Y-100153945D01*
X120081823Y-99968956D01*
X120087952Y-99960219D01*
X120135476Y-99878564D01*
X120233420Y-100027105D01*
X120240028Y-100035486D01*
X120404788Y-100211553D01*
X120412712Y-100218701D01*
X120604782Y-100364489D01*
X120613798Y-100370200D01*
X120827686Y-100481542D01*
X120837535Y-100485652D01*
X121067124Y-100559365D01*
X121077525Y-100561757D01*
X121316252Y-100595733D01*
X121326907Y-100596338D01*
X121567946Y-100589605D01*
X121578551Y-100588406D01*
X121815009Y-100541157D01*
X121825260Y-100538188D01*
X122050377Y-100451774D01*
X122059981Y-100447121D01*
X122267320Y-100324012D01*
X122276002Y-100317807D01*
X122459635Y-100161525D01*
X122467148Y-100153945D01*
X122621823Y-99968956D01*
X122627952Y-99960219D01*
X122675476Y-99878564D01*
X122773420Y-100027105D01*
X122780028Y-100035486D01*
X122944788Y-100211553D01*
X122952712Y-100218701D01*
X123144782Y-100364489D01*
X123153798Y-100370200D01*
X123367686Y-100481542D01*
X123377535Y-100485652D01*
X123607124Y-100559365D01*
X123617525Y-100561757D01*
X123856252Y-100595733D01*
X123866907Y-100596338D01*
X124107946Y-100589605D01*
X124118551Y-100588406D01*
X124355009Y-100541157D01*
X124365260Y-100538188D01*
X124590377Y-100451774D01*
X124599981Y-100447121D01*
X124807320Y-100324012D01*
X124816002Y-100317807D01*
X124999635Y-100161525D01*
X125007148Y-100153945D01*
X125161823Y-99968956D01*
X125167952Y-99960219D01*
X125215476Y-99878564D01*
X125313420Y-100027105D01*
X125320028Y-100035486D01*
X125484788Y-100211553D01*
X125492712Y-100218701D01*
X125684782Y-100364489D01*
X125693798Y-100370200D01*
X125907686Y-100481542D01*
X125917535Y-100485652D01*
X126147124Y-100559365D01*
X126157525Y-100561757D01*
X126396252Y-100595733D01*
X126406907Y-100596338D01*
X126647946Y-100589605D01*
X126658551Y-100588406D01*
X126895009Y-100541157D01*
X126905260Y-100538188D01*
X127130377Y-100451774D01*
X127139981Y-100447121D01*
X127347320Y-100324012D01*
X127356002Y-100317807D01*
X127539635Y-100161525D01*
X127547148Y-100153945D01*
X127701823Y-99968956D01*
X127707952Y-99960219D01*
X127755476Y-99878564D01*
X127853420Y-100027105D01*
X127860028Y-100035486D01*
X128024788Y-100211553D01*
X128032712Y-100218701D01*
X128224782Y-100364489D01*
X128233798Y-100370200D01*
X128447686Y-100481542D01*
X128457535Y-100485652D01*
X128687124Y-100559366D01*
X128697525Y-100561757D01*
X128811152Y-100577928D01*
X128897187Y-100503269D01*
X129153989Y-100503269D01*
X129246207Y-100578883D01*
X129435009Y-100541157D01*
X129445260Y-100538188D01*
X129670377Y-100451774D01*
X129679981Y-100447121D01*
X129887320Y-100324012D01*
X129896002Y-100317807D01*
X130079635Y-100161525D01*
X130087148Y-100153945D01*
X130241823Y-99968956D01*
X130247952Y-99960219D01*
X130369246Y-99751815D01*
X130373815Y-99742171D01*
X130458262Y-99516308D01*
X130461141Y-99506032D01*
X130494933Y-99328891D01*
X130419346Y-99237521D01*
X129227799Y-99237520D01*
X129153990Y-99311329D01*
X129153989Y-100503269D01*
X128897187Y-100503269D01*
X128897990Y-100502573D01*
X128897991Y-99311329D01*
X128897990Y-99311328D01*
X128897990Y-98907712D01*
X129153989Y-98907712D01*
X129227798Y-98981521D01*
X130418853Y-98981522D01*
X130494363Y-98892009D01*
X130468489Y-98740635D01*
X130465807Y-98730305D01*
X130385713Y-98502864D01*
X130381329Y-98493133D01*
X130264057Y-98282437D01*
X130258097Y-98273585D01*
X130107003Y-98085661D01*
X130099637Y-98077938D01*
X129919039Y-97918159D01*
X129910476Y-97911788D01*
X129705539Y-97784723D01*
X129696026Y-97779886D01*
X129472609Y-97689166D01*
X129462417Y-97686001D01*
X129248086Y-97638877D01*
X129153990Y-97714532D01*
X129153989Y-98907712D01*
X128897990Y-98907712D01*
X128897991Y-97715722D01*
X128812971Y-97640503D01*
X128725464Y-97651247D01*
X128715020Y-97653439D01*
X128484058Y-97722731D01*
X128474132Y-97726651D01*
X128258145Y-97833867D01*
X128249022Y-97839403D01*
X128054189Y-97981478D01*
X128046128Y-97988473D01*
X127878019Y-98161343D01*
X127871253Y-98169595D01*
X127755219Y-98338424D01*
X127724057Y-98282437D01*
X127718097Y-98273585D01*
X127567003Y-98085661D01*
X127559637Y-98077938D01*
X127379039Y-97918159D01*
X127370476Y-97911788D01*
X127165539Y-97784723D01*
X127156026Y-97779886D01*
X126932609Y-97689166D01*
X126922417Y-97686001D01*
X126686909Y-97634221D01*
X126676330Y-97632819D01*
X126435465Y-97621460D01*
X126424799Y-97621860D01*
X126185464Y-97651248D01*
X126175020Y-97653439D01*
X125944058Y-97722731D01*
X125934132Y-97726651D01*
X125718145Y-97833867D01*
X125709022Y-97839403D01*
X125514189Y-97981478D01*
X125506128Y-97988473D01*
X125338019Y-98161343D01*
X125331253Y-98169595D01*
X125215219Y-98338424D01*
X125184057Y-98282437D01*
X125178097Y-98273585D01*
X125027003Y-98085661D01*
X125019637Y-98077938D01*
X124839039Y-97918159D01*
X124830476Y-97911788D01*
X124625539Y-97784723D01*
X124616026Y-97779886D01*
X124392609Y-97689166D01*
X124382417Y-97686001D01*
X124146909Y-97634221D01*
X124136330Y-97632819D01*
X123895465Y-97621460D01*
X123884799Y-97621860D01*
X123645464Y-97651248D01*
X123635020Y-97653439D01*
X123404058Y-97722731D01*
X123394132Y-97726651D01*
X123178145Y-97833867D01*
X123169022Y-97839403D01*
X122974189Y-97981478D01*
X122966128Y-97988473D01*
X122798019Y-98161343D01*
X122791253Y-98169595D01*
X122675219Y-98338424D01*
X122644057Y-98282437D01*
X122638097Y-98273585D01*
X122487003Y-98085661D01*
X122479637Y-98077938D01*
X122299039Y-97918159D01*
X122290476Y-97911788D01*
X122085539Y-97784723D01*
X122076026Y-97779886D01*
X121852609Y-97689166D01*
X121842417Y-97686001D01*
X121606909Y-97634221D01*
X121596330Y-97632819D01*
X121355465Y-97621460D01*
X121344799Y-97621860D01*
X121105464Y-97651248D01*
X121095020Y-97653439D01*
X120864058Y-97722731D01*
X120854132Y-97726651D01*
X120638145Y-97833867D01*
X120629022Y-97839403D01*
X120434189Y-97981478D01*
X120426128Y-97988473D01*
X120258019Y-98161343D01*
X120251253Y-98169595D01*
X120135219Y-98338424D01*
X120104057Y-98282437D01*
X120098097Y-98273585D01*
X119947003Y-98085661D01*
X119939637Y-98077938D01*
X119759039Y-97918159D01*
X119750476Y-97911788D01*
X119545539Y-97784723D01*
X119536026Y-97779886D01*
X119312609Y-97689166D01*
X119302417Y-97686001D01*
X119066909Y-97634221D01*
X119056330Y-97632819D01*
X118815465Y-97621460D01*
X118804799Y-97621860D01*
X118565464Y-97651248D01*
X118555020Y-97653439D01*
X118324058Y-97722731D01*
X118314132Y-97726651D01*
X118098145Y-97833867D01*
X118089022Y-97839403D01*
X117894189Y-97981478D01*
X117886128Y-97988473D01*
X117779127Y-98098504D01*
X117740853Y-97955663D01*
X117728110Y-97931183D01*
X117597000Y-97774931D01*
X117580111Y-97760760D01*
X117405870Y-97660162D01*
X117385153Y-97652621D01*
X117192452Y-97618643D01*
X117181491Y-97617684D01*
X115467732Y-97617684D01*
X115451356Y-97619840D01*
X115172132Y-97694658D01*
X115147652Y-97707401D01*
X114991400Y-97838511D01*
X114977229Y-97855400D01*
X114876631Y-98029641D01*
X114869090Y-98050358D01*
X114835112Y-98243059D01*
X114834153Y-98254020D01*
X114165990Y-98254020D01*
X114165990Y-96372771D01*
X126846952Y-96372771D01*
X126939408Y-96592716D01*
X126948153Y-96607504D01*
X127096673Y-96794889D01*
X127109073Y-96806780D01*
X127302513Y-96947323D01*
X127317654Y-96955441D01*
X127541764Y-97038787D01*
X127558530Y-97042534D01*
X127796797Y-97062542D01*
X127813953Y-97061643D01*
X128048823Y-97016840D01*
X128065106Y-97011360D01*
X128279276Y-96905044D01*
X128293485Y-96895388D01*
X128471175Y-96735396D01*
X128482264Y-96722274D01*
X128610383Y-96520389D01*
X128617534Y-96504769D01*
X128686740Y-96275552D01*
X128689439Y-96257914D01*
X128692126Y-96001207D01*
X128689798Y-95983517D01*
X128625409Y-95752900D01*
X128618586Y-95737133D01*
X128494722Y-95532610D01*
X128483911Y-95519259D01*
X128309610Y-95355580D01*
X128295606Y-95345628D01*
X128264206Y-95329212D01*
X128367636Y-95267065D01*
X128369939Y-95265448D01*
X128372856Y-95263871D01*
X128382234Y-95257861D01*
X128382555Y-95257654D01*
X129264686Y-94684792D01*
X129266930Y-94683096D01*
X129269795Y-94681415D01*
X129278959Y-94675080D01*
X129279268Y-94674865D01*
X130140864Y-94071569D01*
X130143047Y-94069797D01*
X130145842Y-94068023D01*
X130154779Y-94061374D01*
X130155088Y-94061142D01*
X130995109Y-93428141D01*
X130997224Y-93426298D01*
X130999969Y-93424418D01*
X131008667Y-93417461D01*
X131008964Y-93417222D01*
X131826378Y-92755294D01*
X131828436Y-92753370D01*
X131831107Y-92751400D01*
X131839556Y-92744145D01*
X131839844Y-92743896D01*
X132633661Y-92053842D01*
X132635651Y-92051846D01*
X132638249Y-92049787D01*
X132646440Y-92042241D01*
X132646720Y-92041982D01*
X133415968Y-91324645D01*
X133417878Y-91322591D01*
X133420419Y-91320429D01*
X133428340Y-91312601D01*
X133428607Y-91312336D01*
X134172353Y-90568591D01*
X134174197Y-90566464D01*
X134176649Y-90564225D01*
X134184293Y-90556126D01*
X134184553Y-90555849D01*
X134901892Y-89786598D01*
X134903658Y-89784411D01*
X134906028Y-89782090D01*
X134913387Y-89773727D01*
X134913638Y-89773440D01*
X135603693Y-88979624D01*
X135605383Y-88977375D01*
X135607676Y-88974967D01*
X135614737Y-88966354D01*
X135614976Y-88966061D01*
X136276904Y-88148647D01*
X136278514Y-88146342D01*
X136280713Y-88143865D01*
X136287469Y-88135012D01*
X136287703Y-88134703D01*
X136920704Y-87294683D01*
X136922236Y-87292317D01*
X136924351Y-87289760D01*
X136930793Y-87280677D01*
X136931012Y-87280366D01*
X137534311Y-86418768D01*
X137535758Y-86416352D01*
X137537778Y-86413729D01*
X137543902Y-86404424D01*
X137544111Y-86404104D01*
X138116974Y-85521972D01*
X138118332Y-85519514D01*
X138120263Y-85516817D01*
X138126059Y-85507303D01*
X138126257Y-85506976D01*
X138667984Y-84605390D01*
X138669255Y-84602887D01*
X138671095Y-84600117D01*
X138676553Y-84590408D01*
X138676738Y-84590077D01*
X139186669Y-83670138D01*
X139187853Y-83667590D01*
X139189595Y-83664758D01*
X139194711Y-83654865D01*
X139194885Y-83654527D01*
X139672398Y-82717352D01*
X139673491Y-82714768D01*
X139675137Y-82711870D01*
X139679905Y-82701804D01*
X139680065Y-82701463D01*
X140124581Y-81748197D01*
X140125588Y-81745563D01*
X140127122Y-81742629D01*
X140131535Y-81732407D01*
X140131687Y-81732052D01*
X140542666Y-80763846D01*
X140543579Y-80761184D01*
X140545009Y-80758198D01*
X140549064Y-80747826D01*
X140549204Y-80747465D01*
X140926143Y-79765505D01*
X140926961Y-79762818D01*
X140928291Y-79759773D01*
X140931981Y-79749264D01*
X140932106Y-79748905D01*
X141274543Y-78754396D01*
X141275269Y-78751673D01*
X141276488Y-78748593D01*
X141279809Y-78737965D01*
X141279923Y-78737595D01*
X141587446Y-77731732D01*
X141588075Y-77728990D01*
X141589189Y-77725861D01*
X141592137Y-77715117D01*
X141592235Y-77714755D01*
X141864465Y-76698780D01*
X141864997Y-76696025D01*
X141866004Y-76692849D01*
X141868574Y-76682011D01*
X141868660Y-76681644D01*
X142105267Y-75656785D01*
X142105702Y-75654014D01*
X142106594Y-75650821D01*
X142108786Y-75639899D01*
X142108861Y-75639520D01*
X142309558Y-74607025D01*
X142309897Y-74604233D01*
X142310679Y-74601001D01*
X142312487Y-74590011D01*
X142312547Y-74589638D01*
X142477087Y-73550772D01*
X142477328Y-73547977D01*
X142477999Y-73544707D01*
X142479422Y-73533660D01*
X142479468Y-73533290D01*
X142607652Y-72489316D01*
X142607795Y-72486514D01*
X142608350Y-72483233D01*
X142609388Y-72472143D01*
X142609422Y-72471766D01*
X142701094Y-71423948D01*
X142701139Y-71421145D01*
X142701579Y-71417850D01*
X142702229Y-71406729D01*
X142702250Y-71406349D01*
X142757298Y-70355975D01*
X142757245Y-70353157D01*
X142757568Y-70349865D01*
X142757830Y-70338732D01*
X142757838Y-70338345D01*
X142776195Y-69286684D01*
X142775714Y-69277732D01*
X142771272Y-69242324D01*
X142771517Y-69202151D01*
X142769081Y-69184364D01*
X142760028Y-69152690D01*
X142755927Y-69119994D01*
X142751190Y-69102678D01*
X142735197Y-69065807D01*
X142724159Y-69027188D01*
X142716828Y-69010800D01*
X142699252Y-68982944D01*
X142686139Y-68952713D01*
X142676731Y-68937420D01*
X142651034Y-68906522D01*
X142629601Y-68872553D01*
X142617966Y-68858882D01*
X142593272Y-68837072D01*
X142572203Y-68811739D01*
X142558882Y-68799703D01*
X142525551Y-68777263D01*
X142495440Y-68750670D01*
X142480435Y-68740814D01*
X142450615Y-68726814D01*
X142423282Y-68708412D01*
X142407119Y-68700598D01*
X142368834Y-68688416D01*
X142332289Y-68671259D01*
X142314735Y-68665951D01*
X142283606Y-68661299D01*
X142251345Y-68651035D01*
X142233640Y-68648072D01*
X142187877Y-68646993D01*
X142185933Y-68646702D01*
X142176612Y-68646010D01*
X142146181Y-68646010D01*
X142070218Y-68644219D01*
X142055201Y-68646010D01*
X141770991Y-68646010D01*
X141770991Y-59914010D01*
X148502991Y-59914010D01*
X148502992Y-68646010D01*
X147566074Y-68646010D01*
X147566074Y-64440676D01*
X147566073Y-64440664D01*
X147566073Y-64385365D01*
X147562971Y-64365777D01*
X147547338Y-64317663D01*
X147539421Y-64267678D01*
X147533292Y-64248817D01*
X147510321Y-64203734D01*
X147494684Y-64155609D01*
X147485680Y-64137937D01*
X147455936Y-64096999D01*
X147432968Y-64051921D01*
X147421311Y-64035876D01*
X147378518Y-63993084D01*
X146875844Y-63490411D01*
X146875835Y-63490400D01*
X146340415Y-62954981D01*
X146278409Y-62732900D01*
X146271586Y-62717133D01*
X146147722Y-62512610D01*
X146136911Y-62499259D01*
X145962610Y-62335580D01*
X145948606Y-62325628D01*
X145736710Y-62214852D01*
X145720546Y-62209032D01*
X145486666Y-62159319D01*
X145469532Y-62158061D01*
X145230897Y-62173075D01*
X145214057Y-62176471D01*
X144988252Y-62255104D01*
X144972945Y-62262904D01*
X144776603Y-62399364D01*
X144763957Y-62410993D01*
X144611545Y-62595227D01*
X144602492Y-62609828D01*
X144505238Y-62828262D01*
X144500445Y-62844760D01*
X144465517Y-63081300D01*
X144465337Y-63098479D01*
X144495305Y-63335699D01*
X144499751Y-63352293D01*
X144592408Y-63572716D01*
X144601153Y-63587504D01*
X144749673Y-63774889D01*
X144762073Y-63786780D01*
X144955513Y-63927323D01*
X144970654Y-63935441D01*
X145194764Y-64018787D01*
X145211530Y-64022534D01*
X145259572Y-64026569D01*
X145799619Y-64566616D01*
X145799624Y-64566620D01*
X146044074Y-64811071D01*
X146044075Y-69950701D01*
X146043164Y-70007354D01*
X146033413Y-70370921D01*
X146019764Y-70734400D01*
X146010298Y-70930404D01*
X145961003Y-70933505D01*
X145944162Y-70936901D01*
X145718357Y-71015534D01*
X145703050Y-71023334D01*
X145506708Y-71159794D01*
X145494062Y-71171423D01*
X145341650Y-71355657D01*
X145332597Y-71370258D01*
X145235343Y-71588692D01*
X145230550Y-71605190D01*
X145195622Y-71841730D01*
X145195442Y-71858909D01*
X145225410Y-72096129D01*
X145229856Y-72112723D01*
X145322513Y-72333146D01*
X145331258Y-72347934D01*
X145454054Y-72502863D01*
X145454054Y-72905794D01*
X145418040Y-73224266D01*
X145373815Y-73581049D01*
X145325786Y-73937174D01*
X145273935Y-74292827D01*
X145218252Y-74648024D01*
X145158803Y-75002366D01*
X145095520Y-75356257D01*
X145028490Y-75709215D01*
X144957608Y-76061791D01*
X144883004Y-76413318D01*
X144804655Y-76763930D01*
X144722463Y-77114065D01*
X144636583Y-77463032D01*
X144546973Y-77811037D01*
X144453603Y-78158178D01*
X144356526Y-78504268D01*
X144255764Y-78849227D01*
X144151295Y-79193117D01*
X144043478Y-79534816D01*
X144043164Y-79535811D01*
X143931275Y-79877598D01*
X143815892Y-80217681D01*
X143696734Y-80556889D01*
X143573949Y-80894788D01*
X143447613Y-81231172D01*
X143317553Y-81566501D01*
X143184125Y-81899871D01*
X143046931Y-82232268D01*
X142906325Y-82562837D01*
X142762048Y-82892182D01*
X142614288Y-83219872D01*
X142463100Y-83545790D01*
X142308276Y-83870381D01*
X142150077Y-84193094D01*
X141988479Y-84513985D01*
X141823420Y-84833185D01*
X141654845Y-85150790D01*
X141529106Y-85381677D01*
X141529101Y-85381683D01*
X141482930Y-85466462D01*
X141407794Y-85600975D01*
X141407787Y-85600984D01*
X141334325Y-85732498D01*
X141307699Y-85780164D01*
X141128994Y-86092181D01*
X141080081Y-86175498D01*
X140947091Y-86402030D01*
X140761874Y-86709914D01*
X140630719Y-86922727D01*
X140573238Y-87015997D01*
X140381433Y-87319878D01*
X140186322Y-87621778D01*
X140003447Y-87898193D01*
X139988011Y-87921525D01*
X139876504Y-88086203D01*
X139786403Y-88219267D01*
X139581852Y-88514485D01*
X139373897Y-88807846D01*
X139163032Y-89098649D01*
X138948846Y-89387467D01*
X138731598Y-89673936D01*
X138511401Y-89957918D01*
X138288173Y-90239522D01*
X138061872Y-90518794D01*
X137832622Y-90795584D01*
X137759065Y-90882481D01*
X134050896Y-94590651D01*
X134050881Y-94590664D01*
X133979547Y-94661999D01*
X133870754Y-94770792D01*
X133859098Y-94786836D01*
X133836128Y-94831915D01*
X133806383Y-94872856D01*
X133797379Y-94890528D01*
X133781742Y-94938654D01*
X133758774Y-94983731D01*
X133752645Y-95002593D01*
X133744728Y-95052576D01*
X133729093Y-95100694D01*
X133725991Y-95120282D01*
X133725991Y-95175580D01*
X133725990Y-95175592D01*
X133725990Y-95571172D01*
X133689545Y-95615227D01*
X133680492Y-95629828D01*
X133583238Y-95848262D01*
X133578445Y-95864760D01*
X133543517Y-96101300D01*
X133543337Y-96118479D01*
X133573305Y-96355699D01*
X133577751Y-96372293D01*
X133670408Y-96592716D01*
X133679153Y-96607504D01*
X133827673Y-96794889D01*
X133840073Y-96806780D01*
X134033513Y-96947323D01*
X134048654Y-96955441D01*
X134272764Y-97038787D01*
X134289530Y-97042534D01*
X134527797Y-97062542D01*
X134544953Y-97061643D01*
X134779823Y-97016840D01*
X134796106Y-97011360D01*
X134955069Y-96932449D01*
X134955071Y-129626772D01*
X89318912Y-129626772D01*
X89318912Y-128043509D01*
X103198592Y-128043509D01*
X103261211Y-128294662D01*
X103264659Y-128304761D01*
X103361581Y-128525557D01*
X103366682Y-128534932D01*
X103499420Y-128736241D01*
X103506028Y-128744622D01*
X103670788Y-128920689D01*
X103678712Y-128927837D01*
X103870782Y-129073625D01*
X103879798Y-129079336D01*
X104093686Y-129190678D01*
X104103535Y-129194788D01*
X104333124Y-129268502D01*
X104343525Y-129270893D01*
X104457152Y-129287064D01*
X104543990Y-129211709D01*
X104543991Y-128020466D01*
X104470182Y-127946657D01*
X103274262Y-127946656D01*
X103198592Y-128043509D01*
X89318912Y-128043509D01*
X89318912Y-127591890D01*
X103196075Y-127591890D01*
X103271724Y-127690657D01*
X104470181Y-127690658D01*
X104543990Y-127616849D01*
X104799989Y-127616849D01*
X104799990Y-127616850D01*
X104799989Y-129212405D01*
X104892207Y-129288019D01*
X105081009Y-129250293D01*
X105091260Y-129247324D01*
X105316377Y-129160910D01*
X105325981Y-129156257D01*
X105533320Y-129033148D01*
X105542002Y-129026943D01*
X105725635Y-128870661D01*
X105733148Y-128863081D01*
X105759393Y-128831692D01*
X105797127Y-128972516D01*
X105809870Y-128996996D01*
X105940980Y-129153247D01*
X105957869Y-129167418D01*
X106132110Y-129268016D01*
X106152827Y-129275557D01*
X106345528Y-129309535D01*
X106356489Y-129310494D01*
X108070248Y-129310494D01*
X108086624Y-129308338D01*
X108365849Y-129233520D01*
X108390329Y-129220777D01*
X108546580Y-129089667D01*
X108560751Y-129072778D01*
X108661349Y-128898537D01*
X108668890Y-128877820D01*
X108702868Y-128685119D01*
X108703827Y-128674158D01*
X108703827Y-126960399D01*
X108701671Y-126944023D01*
X108626853Y-126664799D01*
X108614110Y-126640319D01*
X108483000Y-126484067D01*
X108466111Y-126469896D01*
X108291870Y-126369298D01*
X108271153Y-126361757D01*
X108078452Y-126327779D01*
X108067491Y-126326820D01*
X106353732Y-126326820D01*
X106337356Y-126328976D01*
X106058132Y-126403794D01*
X106033652Y-126416537D01*
X105877400Y-126547647D01*
X105863229Y-126564536D01*
X105762631Y-126738777D01*
X105755090Y-126759494D01*
X105749511Y-126791136D01*
X105745637Y-126787074D01*
X105565039Y-126627295D01*
X105556476Y-126620924D01*
X105351539Y-126493859D01*
X105342026Y-126489022D01*
X105118609Y-126398302D01*
X105108417Y-126395137D01*
X104894086Y-126348013D01*
X104799990Y-126423668D01*
X104799989Y-127616849D01*
X104543990Y-127616849D01*
X104543991Y-126424858D01*
X104458971Y-126349639D01*
X104371464Y-126360383D01*
X104361020Y-126362575D01*
X104130058Y-126431867D01*
X104120132Y-126435787D01*
X103904145Y-126543003D01*
X103895022Y-126548539D01*
X103700189Y-126690614D01*
X103692128Y-126697609D01*
X103524019Y-126870479D01*
X103517253Y-126878731D01*
X103380673Y-127077455D01*
X103375393Y-127086730D01*
X103274250Y-127305625D01*
X103270609Y-127315657D01*
X103196075Y-127591890D01*
X89318912Y-127591890D01*
X89318912Y-110215479D01*
X92141337Y-110215479D01*
X92171305Y-110452699D01*
X92175751Y-110469293D01*
X92268408Y-110689716D01*
X92277153Y-110704504D01*
X92425673Y-110891889D01*
X92438072Y-110903780D01*
X92450991Y-110913166D01*
X92450990Y-114621172D01*
X92414545Y-114665227D01*
X92405492Y-114679828D01*
X92308238Y-114898262D01*
X92303445Y-114914760D01*
X92268517Y-115151300D01*
X92268337Y-115168479D01*
X92298305Y-115405699D01*
X92302751Y-115422293D01*
X92395408Y-115642716D01*
X92404153Y-115657504D01*
X92552673Y-115844889D01*
X92565073Y-115856780D01*
X92758513Y-115997323D01*
X92773654Y-116005441D01*
X92997764Y-116088787D01*
X93014530Y-116092534D01*
X93252797Y-116112542D01*
X93269953Y-116111643D01*
X93504823Y-116066840D01*
X93521106Y-116061360D01*
X93735276Y-115955044D01*
X93749485Y-115945388D01*
X93927175Y-115785396D01*
X93938264Y-115772274D01*
X94066383Y-115570389D01*
X94073534Y-115554769D01*
X94142740Y-115325552D01*
X94145439Y-115307914D01*
X94148126Y-115051207D01*
X94145798Y-115033517D01*
X94081409Y-114802900D01*
X94074586Y-114787133D01*
X93972990Y-114619378D01*
X93972990Y-113055061D01*
X94046408Y-113229716D01*
X94055153Y-113244504D01*
X94203673Y-113431889D01*
X94216073Y-113443780D01*
X94409513Y-113584323D01*
X94424654Y-113592441D01*
X94648764Y-113675787D01*
X94665530Y-113679534D01*
X94903797Y-113699542D01*
X94920953Y-113698643D01*
X95155823Y-113653840D01*
X95172106Y-113648360D01*
X95266505Y-113601500D01*
X96344951Y-114679946D01*
X96341383Y-114684856D01*
X96332379Y-114702528D01*
X96316743Y-114750653D01*
X96293773Y-114795731D01*
X96287644Y-114814594D01*
X96279729Y-114864572D01*
X96264093Y-114912693D01*
X96260991Y-114932282D01*
X96260991Y-114992797D01*
X96260990Y-117669172D01*
X96224545Y-117713227D01*
X96215492Y-117727828D01*
X96118238Y-117946262D01*
X96113445Y-117962760D01*
X96078517Y-118199300D01*
X96078337Y-118216479D01*
X96108305Y-118453699D01*
X96112751Y-118470293D01*
X96205408Y-118690716D01*
X96214153Y-118705504D01*
X96362673Y-118892889D01*
X96375073Y-118904780D01*
X96568513Y-119045323D01*
X96583654Y-119053441D01*
X96807764Y-119136787D01*
X96824530Y-119140534D01*
X97062797Y-119160542D01*
X97079953Y-119159643D01*
X97314823Y-119114840D01*
X97331106Y-119109360D01*
X97545276Y-119003044D01*
X97559485Y-118993388D01*
X97737175Y-118833396D01*
X97748264Y-118820274D01*
X97876383Y-118618389D01*
X97883534Y-118602769D01*
X97952740Y-118373552D01*
X97955439Y-118355914D01*
X97958126Y-118099207D01*
X97955798Y-118081517D01*
X97891409Y-117850900D01*
X97884586Y-117835133D01*
X97782990Y-117667378D01*
X97782990Y-115518173D01*
X97926276Y-115447044D01*
X97940485Y-115437388D01*
X98118175Y-115277396D01*
X98129264Y-115264274D01*
X98257383Y-115062389D01*
X98264534Y-115046769D01*
X98333740Y-114817552D01*
X98336439Y-114799914D01*
X98339126Y-114543207D01*
X98336798Y-114525517D01*
X98272409Y-114294900D01*
X98265586Y-114279133D01*
X98141722Y-114074610D01*
X98130911Y-114061259D01*
X97956610Y-113897580D01*
X97942606Y-113887628D01*
X97730710Y-113776852D01*
X97714546Y-113771032D01*
X97554433Y-113736999D01*
X96114402Y-112296969D01*
X96114397Y-112296962D01*
X95957970Y-112140535D01*
X95941924Y-112128877D01*
X95896837Y-112105904D01*
X95855906Y-112076165D01*
X95838234Y-112067160D01*
X95790116Y-112051526D01*
X95745029Y-112028553D01*
X95726166Y-112022424D01*
X95676183Y-112014508D01*
X95628068Y-111998874D01*
X95608479Y-111995772D01*
X95553181Y-111995772D01*
X95553169Y-111995771D01*
X95420009Y-111995771D01*
X95416611Y-111992580D01*
X95402607Y-111982628D01*
X95190710Y-111871852D01*
X95174546Y-111866032D01*
X94940666Y-111816319D01*
X94923532Y-111815061D01*
X94684897Y-111830075D01*
X94668057Y-111833471D01*
X94442252Y-111912104D01*
X94426945Y-111919904D01*
X94230603Y-112056364D01*
X94217957Y-112067993D01*
X94065545Y-112252227D01*
X94056492Y-112266828D01*
X93972990Y-112454375D01*
X93972990Y-110514144D01*
X94015740Y-110372552D01*
X94018439Y-110354914D01*
X94021126Y-110098207D01*
X94018798Y-110080517D01*
X93954409Y-109849900D01*
X93947586Y-109834133D01*
X93823722Y-109629610D01*
X93812911Y-109616259D01*
X93638610Y-109452580D01*
X93624606Y-109442628D01*
X93412710Y-109331852D01*
X93396546Y-109326032D01*
X93162666Y-109276319D01*
X93145532Y-109275061D01*
X92906897Y-109290075D01*
X92890057Y-109293471D01*
X92664252Y-109372104D01*
X92648945Y-109379904D01*
X92452603Y-109516364D01*
X92439957Y-109527993D01*
X92287545Y-109712227D01*
X92278492Y-109726828D01*
X92181238Y-109945262D01*
X92176445Y-109961760D01*
X92141517Y-110198300D01*
X92141337Y-110215479D01*
X89318912Y-110215479D01*
X89318912Y-104986908D01*
X89577011Y-105245008D01*
X89593056Y-105256665D01*
X89638134Y-105279633D01*
X89679072Y-105309377D01*
X89696744Y-105318381D01*
X89744869Y-105334018D01*
X89789952Y-105356989D01*
X89808813Y-105363118D01*
X89858798Y-105371035D01*
X89906912Y-105386668D01*
X89926500Y-105389770D01*
X89981799Y-105389770D01*
X89981811Y-105389771D01*
X92286432Y-105389771D01*
X92156252Y-105435104D01*
X92140945Y-105442904D01*
X91944603Y-105579364D01*
X91931957Y-105590993D01*
X91779545Y-105775227D01*
X91770492Y-105789828D01*
X91673238Y-106008262D01*
X91668445Y-106024760D01*
X91633517Y-106261300D01*
X91633337Y-106278479D01*
X91663305Y-106515699D01*
X91667751Y-106532293D01*
X91760408Y-106752716D01*
X91769153Y-106767504D01*
X91917673Y-106954889D01*
X91930073Y-106966780D01*
X92123513Y-107107323D01*
X92138654Y-107115441D01*
X92362764Y-107198787D01*
X92379530Y-107202534D01*
X92492098Y-107211986D01*
X92521331Y-107221485D01*
X92566421Y-107244459D01*
X92585284Y-107250588D01*
X92635266Y-107258504D01*
X92683381Y-107274137D01*
X92702969Y-107277240D01*
X92758269Y-107277240D01*
X92758281Y-107277241D01*
X93503531Y-107277241D01*
X93595132Y-107343793D01*
X93610273Y-107351911D01*
X93834383Y-107435257D01*
X93851149Y-107439004D01*
X94089416Y-107459012D01*
X94106572Y-107458113D01*
X94341442Y-107413310D01*
X94357725Y-107407830D01*
X94571895Y-107301514D01*
X94586104Y-107291858D01*
X94763794Y-107131866D01*
X94774883Y-107118744D01*
X94903002Y-106916859D01*
X94910153Y-106901239D01*
X94979359Y-106672022D01*
X94982058Y-106654384D01*
X94984745Y-106397677D01*
X94982417Y-106379987D01*
X94918028Y-106149370D01*
X94911205Y-106133603D01*
X94787341Y-105929080D01*
X94776530Y-105915729D01*
X94602229Y-105752050D01*
X94588225Y-105742098D01*
X94376329Y-105631322D01*
X94360165Y-105625502D01*
X94126285Y-105575789D01*
X94109151Y-105574531D01*
X93870516Y-105589545D01*
X93853676Y-105592941D01*
X93627871Y-105671574D01*
X93612564Y-105679374D01*
X93503404Y-105755241D01*
X93353652Y-105755241D01*
X93315722Y-105692610D01*
X93304911Y-105679259D01*
X93130610Y-105515580D01*
X93116606Y-105505628D01*
X92904710Y-105394852D01*
X92890598Y-105389771D01*
X93428912Y-105389771D01*
X93520513Y-105456323D01*
X93535654Y-105464441D01*
X93759764Y-105547787D01*
X93776530Y-105551534D01*
X94014797Y-105571542D01*
X94031953Y-105570643D01*
X94266823Y-105525840D01*
X94283106Y-105520360D01*
X94497276Y-105414044D01*
X94511485Y-105404388D01*
X94689175Y-105244396D01*
X94700264Y-105231274D01*
X94828383Y-105029389D01*
X94835534Y-105013769D01*
X94904740Y-104784552D01*
X94907439Y-104766914D01*
X94910126Y-104510207D01*
X94907798Y-104492517D01*
X94843409Y-104261900D01*
X94836586Y-104246133D01*
X94712722Y-104041610D01*
X94701911Y-104028259D01*
X94527610Y-103864580D01*
X94513606Y-103854628D01*
X94301710Y-103743852D01*
X94285546Y-103738032D01*
X94051666Y-103688319D01*
X94034532Y-103687061D01*
X93795897Y-103702075D01*
X93779057Y-103705471D01*
X93553252Y-103784104D01*
X93537945Y-103791904D01*
X93428785Y-103867771D01*
X90645439Y-103867771D01*
X90713740Y-103641552D01*
X90716439Y-103623914D01*
X90719126Y-103367207D01*
X90716798Y-103349517D01*
X90652409Y-103118900D01*
X90645586Y-103103133D01*
X90521722Y-102898610D01*
X90510911Y-102885259D01*
X90336610Y-102721580D01*
X90322606Y-102711628D01*
X90182000Y-102638121D01*
X90182000Y-101833479D01*
X91506337Y-101833479D01*
X91536305Y-102070699D01*
X91540751Y-102087293D01*
X91633408Y-102307716D01*
X91642153Y-102322504D01*
X91790673Y-102509889D01*
X91803073Y-102521780D01*
X91996513Y-102662323D01*
X92011654Y-102670441D01*
X92235764Y-102753787D01*
X92252530Y-102757534D01*
X92490797Y-102777542D01*
X92507953Y-102776643D01*
X92742823Y-102731840D01*
X92759106Y-102726360D01*
X92973276Y-102620044D01*
X92987485Y-102610388D01*
X93165175Y-102450396D01*
X93176264Y-102437274D01*
X93304383Y-102235389D01*
X93311534Y-102219769D01*
X93380740Y-101990552D01*
X93383439Y-101972914D01*
X93386126Y-101716207D01*
X93383798Y-101698517D01*
X93319409Y-101467900D01*
X93312586Y-101452133D01*
X93210990Y-101284378D01*
X93210990Y-98593985D01*
X94761133Y-97043842D01*
X95532766Y-97043842D01*
X95532766Y-98499954D01*
X95534210Y-98513384D01*
X95607245Y-98849124D01*
X95615875Y-98869958D01*
X95744686Y-99070391D01*
X95756489Y-99084012D01*
X95934839Y-99238554D01*
X95950001Y-99248298D01*
X96164667Y-99346332D01*
X96181960Y-99351410D01*
X96411084Y-99384353D01*
X96420061Y-99384995D01*
X97560000Y-99384995D01*
X101213991Y-103038987D01*
X101213990Y-106670858D01*
X100576990Y-106033858D01*
X100576990Y-103906553D01*
X100670383Y-103759390D01*
X100677534Y-103743769D01*
X100746740Y-103514552D01*
X100749439Y-103496914D01*
X100752126Y-103240207D01*
X100749798Y-103222517D01*
X100685409Y-102991900D01*
X100678586Y-102976133D01*
X100554722Y-102771610D01*
X100543911Y-102758259D01*
X100369610Y-102594580D01*
X100355606Y-102584628D01*
X100143710Y-102473852D01*
X100127546Y-102468032D01*
X99893666Y-102418319D01*
X99876532Y-102417061D01*
X99637897Y-102432075D01*
X99621057Y-102435471D01*
X99395252Y-102514104D01*
X99379945Y-102521904D01*
X99183603Y-102658364D01*
X99170957Y-102669993D01*
X99018545Y-102854227D01*
X99009492Y-102868828D01*
X98912238Y-103087262D01*
X98907445Y-103103760D01*
X98888794Y-103230069D01*
X98870235Y-103193644D01*
X98854600Y-103145525D01*
X98845595Y-103127854D01*
X98815855Y-103086920D01*
X98792884Y-103041837D01*
X98781226Y-103025791D01*
X98715414Y-102959980D01*
X98653409Y-102737900D01*
X98646586Y-102722133D01*
X98522722Y-102517610D01*
X98511911Y-102504259D01*
X98337610Y-102340580D01*
X98323606Y-102330628D01*
X98111710Y-102219852D01*
X98095546Y-102214032D01*
X97861666Y-102164319D01*
X97844532Y-102163061D01*
X97605897Y-102178075D01*
X97589057Y-102181471D01*
X97363252Y-102260104D01*
X97347945Y-102267904D01*
X97151603Y-102404364D01*
X97138957Y-102415993D01*
X96986545Y-102600227D01*
X96977492Y-102614828D01*
X96880238Y-102833262D01*
X96875445Y-102849760D01*
X96840517Y-103086300D01*
X96840337Y-103103479D01*
X96870305Y-103340699D01*
X96874751Y-103357293D01*
X96967408Y-103577716D01*
X96976153Y-103592504D01*
X97124673Y-103779889D01*
X97137073Y-103791780D01*
X97330513Y-103932323D01*
X97345654Y-103940441D01*
X97403991Y-103962136D01*
X97403990Y-108747949D01*
X97403991Y-108747961D01*
X97403991Y-108803260D01*
X97407093Y-108822848D01*
X97422726Y-108870962D01*
X97430643Y-108920947D01*
X97436772Y-108939808D01*
X97459743Y-108984891D01*
X97475380Y-109033016D01*
X97484384Y-109050688D01*
X97514128Y-109091626D01*
X97537096Y-109136704D01*
X97548753Y-109152749D01*
X97705180Y-109309177D01*
X97705187Y-109309182D01*
X98256692Y-109860687D01*
X98267305Y-109944699D01*
X98271751Y-109961293D01*
X98364408Y-110181716D01*
X98373153Y-110196504D01*
X98521673Y-110383889D01*
X98534073Y-110395780D01*
X98727513Y-110536323D01*
X98742654Y-110544441D01*
X98966764Y-110627787D01*
X98983530Y-110631534D01*
X99221797Y-110651542D01*
X99238953Y-110650643D01*
X99473823Y-110605840D01*
X99490106Y-110600360D01*
X99704276Y-110494044D01*
X99718485Y-110484388D01*
X99896175Y-110324396D01*
X99907264Y-110311274D01*
X100035383Y-110109390D01*
X100042534Y-110093769D01*
X100066962Y-110012861D01*
X100110797Y-110016542D01*
X100127953Y-110015643D01*
X100362823Y-109970840D01*
X100379106Y-109965360D01*
X100593276Y-109859044D01*
X100607485Y-109849388D01*
X100785175Y-109689396D01*
X100796264Y-109676274D01*
X100924383Y-109474389D01*
X100931534Y-109458769D01*
X101000740Y-109229552D01*
X101003439Y-109211914D01*
X101003786Y-109178782D01*
X101721990Y-109896987D01*
X101721991Y-115764171D01*
X101685545Y-115808227D01*
X101676492Y-115822828D01*
X101579238Y-116041262D01*
X101574445Y-116057760D01*
X101539517Y-116294300D01*
X101539337Y-116311479D01*
X101569305Y-116548699D01*
X101573751Y-116565293D01*
X101666408Y-116785716D01*
X101675153Y-116800504D01*
X101823673Y-116987889D01*
X101836073Y-116999780D01*
X102029513Y-117140323D01*
X102044654Y-117148441D01*
X102268764Y-117231787D01*
X102285530Y-117235534D01*
X102523797Y-117255542D01*
X102540953Y-117254643D01*
X102775823Y-117209840D01*
X102792106Y-117204360D01*
X103006276Y-117098044D01*
X103020485Y-117088388D01*
X103198175Y-116928396D01*
X103209264Y-116915274D01*
X103337383Y-116713389D01*
X103344534Y-116697769D01*
X103413740Y-116468552D01*
X103416439Y-116450914D01*
X103419126Y-116194207D01*
X103416798Y-116176517D01*
X103352409Y-115945900D01*
X103345586Y-115930133D01*
X103243990Y-115762378D01*
X103243990Y-114678817D01*
X103364689Y-114688952D01*
X103381845Y-114688053D01*
X103616715Y-114643250D01*
X103632998Y-114637770D01*
X103641094Y-114633751D01*
X103668615Y-114851604D01*
X103673061Y-114868198D01*
X103765718Y-115088621D01*
X103774463Y-115103409D01*
X103922983Y-115290794D01*
X103935383Y-115302685D01*
X104128823Y-115443228D01*
X104143964Y-115451346D01*
X104368074Y-115534692D01*
X104384840Y-115538439D01*
X104623107Y-115558447D01*
X104640263Y-115557548D01*
X104875133Y-115512745D01*
X104891416Y-115507265D01*
X105105586Y-115400949D01*
X105119795Y-115391293D01*
X105136029Y-115376676D01*
X108344680Y-115376676D01*
X110448693Y-117480691D01*
X110459305Y-117564699D01*
X110463751Y-117581293D01*
X110556408Y-117801716D01*
X110565153Y-117816504D01*
X110623224Y-117889771D01*
X110345995Y-117889771D01*
X110129085Y-117764538D01*
X110113825Y-117758217D01*
X109866428Y-117691927D01*
X109850052Y-117689771D01*
X109593928Y-117689771D01*
X109577552Y-117691927D01*
X109330155Y-117758217D01*
X109314895Y-117764538D01*
X109093085Y-117892600D01*
X109079981Y-117902655D01*
X108898874Y-118083762D01*
X108888819Y-118096866D01*
X108760757Y-118318676D01*
X108754436Y-118333936D01*
X108688146Y-118581333D01*
X108685990Y-118597709D01*
X108685990Y-118853833D01*
X108688146Y-118870209D01*
X108754436Y-119117606D01*
X108760757Y-119132866D01*
X108888819Y-119354676D01*
X108898874Y-119367780D01*
X109079981Y-119548887D01*
X109093085Y-119558942D01*
X109314895Y-119687004D01*
X109330155Y-119693325D01*
X109577552Y-119759615D01*
X109593928Y-119761771D01*
X109601677Y-119761771D01*
X109643436Y-119917617D01*
X109647991Y-119928614D01*
X109647990Y-123435766D01*
X109522757Y-123652676D01*
X109516436Y-123667936D01*
X109450146Y-123915333D01*
X109447990Y-123931709D01*
X109447990Y-124187833D01*
X109450146Y-124204209D01*
X109516436Y-124451606D01*
X109522757Y-124466866D01*
X109650819Y-124688676D01*
X109660874Y-124701780D01*
X109841981Y-124882887D01*
X109855085Y-124892942D01*
X110076895Y-125021004D01*
X110092155Y-125027325D01*
X110339552Y-125093615D01*
X110355928Y-125095771D01*
X110612052Y-125095771D01*
X110628428Y-125093615D01*
X110875825Y-125027325D01*
X110891085Y-125021004D01*
X111112895Y-124892942D01*
X111125999Y-124882887D01*
X111307106Y-124701780D01*
X111317161Y-124688676D01*
X111445223Y-124466866D01*
X111451544Y-124451606D01*
X111517834Y-124204209D01*
X111519990Y-124187833D01*
X111519990Y-123931709D01*
X111517834Y-123915333D01*
X111451544Y-123667936D01*
X111445223Y-123652676D01*
X111319990Y-123435766D01*
X111319990Y-120281905D01*
X111405125Y-120196771D01*
X116177721Y-120196771D01*
X116061706Y-120277403D01*
X116049060Y-120289032D01*
X115896648Y-120473266D01*
X115887595Y-120487867D01*
X115790341Y-120706301D01*
X115785548Y-120722799D01*
X115750620Y-120959339D01*
X115750440Y-120976518D01*
X115780408Y-121213738D01*
X115784854Y-121230332D01*
X115877511Y-121450755D01*
X115886256Y-121465543D01*
X116034776Y-121652928D01*
X116047176Y-121664819D01*
X116240616Y-121805362D01*
X116255757Y-121813480D01*
X116479867Y-121896826D01*
X116496633Y-121900573D01*
X116734900Y-121920581D01*
X116752056Y-121919682D01*
X116986926Y-121874879D01*
X117003209Y-121869399D01*
X117217379Y-121763083D01*
X117231588Y-121753427D01*
X117370588Y-121628271D01*
X120979912Y-121628271D01*
X121071513Y-121694823D01*
X121086654Y-121702941D01*
X121310764Y-121786287D01*
X121327530Y-121790034D01*
X121565797Y-121810042D01*
X121582953Y-121809143D01*
X121817823Y-121764340D01*
X121834106Y-121758860D01*
X122048276Y-121652544D01*
X122062485Y-121642888D01*
X122240175Y-121482896D01*
X122251264Y-121469774D01*
X122379383Y-121267889D01*
X122386534Y-121252269D01*
X122455740Y-121023052D01*
X122458439Y-121005414D01*
X122461126Y-120748707D01*
X122458798Y-120731017D01*
X122394409Y-120500400D01*
X122387586Y-120484633D01*
X122263722Y-120280110D01*
X122252911Y-120266759D01*
X122178381Y-120196771D01*
X127197603Y-120196771D01*
X127214680Y-120200635D01*
X127232575Y-120202075D01*
X127318066Y-120196771D01*
X127346721Y-120196771D01*
X127355664Y-120196134D01*
X127376549Y-120193143D01*
X127453477Y-120188370D01*
X127471057Y-120184730D01*
X127494575Y-120176240D01*
X127519330Y-120172695D01*
X127536561Y-120167656D01*
X127606740Y-120135747D01*
X127679418Y-120109510D01*
X127695585Y-120100851D01*
X127714859Y-120086589D01*
X127738042Y-120076048D01*
X127753166Y-120066376D01*
X127776758Y-120046048D01*
X127878681Y-120165807D01*
X127887895Y-120174643D01*
X128051318Y-120302323D01*
X128062121Y-120309126D01*
X128247881Y-120401338D01*
X128259830Y-120405829D01*
X128460338Y-120458806D01*
X128472947Y-120460803D01*
X128680011Y-120472380D01*
X128692764Y-120471801D01*
X128897927Y-120441505D01*
X128910303Y-120438373D01*
X129105184Y-120367442D01*
X129116677Y-120361886D01*
X129293315Y-120253218D01*
X129303456Y-120245464D01*
X129454636Y-120103497D01*
X129463011Y-120093862D01*
X129582556Y-119924397D01*
X129588823Y-119913275D01*
X129671850Y-119723232D01*
X129675752Y-119711078D01*
X129718895Y-119508114D01*
X129720275Y-119495201D01*
X129721022Y-119280906D01*
X129719732Y-119267985D01*
X129678009Y-119064725D01*
X129674192Y-119052543D01*
X129592493Y-118861925D01*
X129586304Y-118850760D01*
X129467945Y-118680463D01*
X129459637Y-118670770D01*
X129309453Y-118527751D01*
X129299366Y-118519927D01*
X129275695Y-118505136D01*
X129275695Y-118284272D01*
X129273539Y-118267896D01*
X129207249Y-118020499D01*
X129200928Y-118005239D01*
X129072866Y-117783429D01*
X129062811Y-117770325D01*
X128881704Y-117589218D01*
X128868600Y-117579163D01*
X128646790Y-117451101D01*
X128631530Y-117444780D01*
X128384133Y-117378490D01*
X128367757Y-117376334D01*
X128111633Y-117376334D01*
X128095257Y-117378490D01*
X127847860Y-117444780D01*
X127832600Y-117451101D01*
X127610790Y-117579163D01*
X127597686Y-117589218D01*
X127416579Y-117770325D01*
X127406524Y-117783429D01*
X127278462Y-118005239D01*
X127272141Y-118020499D01*
X127207315Y-118262431D01*
X126944976Y-118524771D01*
X118128460Y-118524771D01*
X118128460Y-118345898D01*
X118126304Y-118329522D01*
X118060014Y-118082125D01*
X118053693Y-118066865D01*
X117925631Y-117845055D01*
X117915576Y-117831951D01*
X117734469Y-117650844D01*
X117721365Y-117640789D01*
X117499555Y-117512727D01*
X117484295Y-117506406D01*
X117236898Y-117440116D01*
X117220522Y-117437960D01*
X116964398Y-117437960D01*
X116948022Y-117440116D01*
X116700625Y-117506406D01*
X116685365Y-117512727D01*
X116463555Y-117640789D01*
X116450451Y-117650844D01*
X116269344Y-117831951D01*
X116259289Y-117845055D01*
X116233472Y-117889771D01*
X112125602Y-117889771D01*
X112227383Y-117729389D01*
X112234534Y-117713769D01*
X112303740Y-117484552D01*
X112306439Y-117466914D01*
X112309126Y-117210207D01*
X112306798Y-117192517D01*
X112242409Y-116961900D01*
X112235586Y-116946133D01*
X112226879Y-116931756D01*
X112253019Y-116890567D01*
X112260170Y-116874946D01*
X112329376Y-116645729D01*
X112332075Y-116628091D01*
X112334762Y-116371384D01*
X112332434Y-116353694D01*
X112268045Y-116123077D01*
X112261222Y-116107310D01*
X112137358Y-115902787D01*
X112126547Y-115889436D01*
X111952246Y-115725757D01*
X111938242Y-115715805D01*
X111726346Y-115605029D01*
X111710182Y-115599209D01*
X111550071Y-115565176D01*
X110782758Y-114797864D01*
X109565754Y-113580861D01*
X109565751Y-113580857D01*
X109409324Y-113424430D01*
X109393278Y-113412772D01*
X109348191Y-113389799D01*
X109307260Y-113360060D01*
X109289588Y-113351055D01*
X109241470Y-113335421D01*
X109196383Y-113312448D01*
X109177520Y-113306319D01*
X109127537Y-113298403D01*
X109079422Y-113282769D01*
X109059833Y-113279667D01*
X109004535Y-113279667D01*
X109004523Y-113279666D01*
X105714320Y-113279666D01*
X105710922Y-113276475D01*
X105696918Y-113266523D01*
X105485021Y-113155747D01*
X105468857Y-113149927D01*
X105234977Y-113100214D01*
X105217843Y-113098956D01*
X104979208Y-113113970D01*
X104962368Y-113117366D01*
X104736563Y-113195999D01*
X104721256Y-113203799D01*
X104524914Y-113340259D01*
X104512268Y-113351888D01*
X104359856Y-113536122D01*
X104350803Y-113550723D01*
X104269453Y-113733438D01*
X104258872Y-113737122D01*
X104260018Y-113627617D01*
X104257690Y-113609927D01*
X104193301Y-113379310D01*
X104186478Y-113363543D01*
X104084882Y-113195788D01*
X104084882Y-112297841D01*
X104299823Y-112256840D01*
X104316106Y-112251360D01*
X104530276Y-112145044D01*
X104544485Y-112135388D01*
X104722175Y-111975396D01*
X104733264Y-111962274D01*
X104861383Y-111760389D01*
X104868534Y-111744769D01*
X104937740Y-111515552D01*
X104940439Y-111497914D01*
X104943126Y-111241207D01*
X104940798Y-111223517D01*
X104876409Y-110992900D01*
X104869586Y-110977133D01*
X104767990Y-110809378D01*
X104767990Y-108474713D01*
X104891383Y-108280275D01*
X104898534Y-108264655D01*
X104953313Y-108083219D01*
X110183480Y-108083219D01*
X110183480Y-108339343D01*
X110185636Y-108355719D01*
X110251926Y-108603116D01*
X110258247Y-108618376D01*
X110383480Y-108835286D01*
X110383481Y-112386764D01*
X110258247Y-112603676D01*
X110251926Y-112618936D01*
X110185636Y-112866333D01*
X110183480Y-112882709D01*
X110183480Y-113138833D01*
X110185636Y-113155209D01*
X110251926Y-113402606D01*
X110258247Y-113417866D01*
X110386309Y-113639676D01*
X110396364Y-113652780D01*
X110577471Y-113833887D01*
X110590575Y-113843942D01*
X110812385Y-113972004D01*
X110827645Y-113978325D01*
X111075042Y-114044615D01*
X111091418Y-114046771D01*
X111183490Y-114046771D01*
X111183490Y-114399449D01*
X111183491Y-114399461D01*
X111183491Y-114454760D01*
X111186593Y-114474348D01*
X111202226Y-114522462D01*
X111210143Y-114572447D01*
X111216272Y-114591308D01*
X111239243Y-114636391D01*
X111254880Y-114684516D01*
X111263884Y-114702188D01*
X111293628Y-114743126D01*
X111316596Y-114788204D01*
X111328253Y-114804249D01*
X111484680Y-114960677D01*
X111484684Y-114960680D01*
X112252880Y-115728878D01*
X112252895Y-115728891D01*
X112292510Y-115768507D01*
X112308555Y-115780164D01*
X112353635Y-115803134D01*
X112394574Y-115832878D01*
X112412245Y-115841882D01*
X112460369Y-115857519D01*
X112505452Y-115880489D01*
X112524313Y-115886618D01*
X112574298Y-115894535D01*
X112622412Y-115910168D01*
X112642000Y-115913270D01*
X112697299Y-115913270D01*
X112697311Y-115913271D01*
X117804912Y-115913271D01*
X117896513Y-115979823D01*
X117911654Y-115987941D01*
X118135764Y-116071287D01*
X118152530Y-116075034D01*
X118390797Y-116095042D01*
X118407953Y-116094143D01*
X118642823Y-116049340D01*
X118659106Y-116043860D01*
X118873276Y-115937544D01*
X118887485Y-115927888D01*
X119065175Y-115767896D01*
X119076264Y-115754774D01*
X119204383Y-115552889D01*
X119211534Y-115537269D01*
X119280740Y-115308052D01*
X119283439Y-115290414D01*
X119286126Y-115033707D01*
X119283798Y-115016017D01*
X119275656Y-114986853D01*
X127548034Y-114986853D01*
X127568272Y-115193251D01*
X127570795Y-115205765D01*
X127632121Y-115403878D01*
X127637109Y-115415630D01*
X127737019Y-115597364D01*
X127744268Y-115607872D01*
X127878681Y-115765807D01*
X127887895Y-115774643D01*
X128051318Y-115902323D01*
X128062121Y-115909126D01*
X128247881Y-116001338D01*
X128259830Y-116005829D01*
X128460338Y-116058806D01*
X128472947Y-116060803D01*
X128680011Y-116072380D01*
X128692764Y-116071801D01*
X128897927Y-116041505D01*
X128910303Y-116038373D01*
X129105184Y-115967442D01*
X129116677Y-115961886D01*
X129293315Y-115853218D01*
X129303456Y-115845464D01*
X129454636Y-115703497D01*
X129463011Y-115693862D01*
X129582556Y-115524397D01*
X129588823Y-115513275D01*
X129671850Y-115323232D01*
X129675752Y-115311078D01*
X129718895Y-115108114D01*
X129720275Y-115095201D01*
X129721022Y-114880906D01*
X129719732Y-114867985D01*
X129678009Y-114664725D01*
X129674192Y-114652543D01*
X129592493Y-114461925D01*
X129586304Y-114450760D01*
X129467945Y-114280463D01*
X129459637Y-114270770D01*
X129309453Y-114127751D01*
X129299366Y-114119927D01*
X129123491Y-114010029D01*
X129112037Y-114004392D01*
X128917655Y-113932103D01*
X128905302Y-113928885D01*
X128700354Y-113897158D01*
X128687606Y-113896490D01*
X128480466Y-113906620D01*
X128467843Y-113908529D01*
X128266972Y-113960105D01*
X128254991Y-113964513D01*
X128068592Y-114055425D01*
X128057742Y-114062152D01*
X127893431Y-114188689D01*
X127884155Y-114197460D01*
X127748644Y-114354452D01*
X127741322Y-114364909D01*
X127640145Y-114545942D01*
X127635075Y-114557658D01*
X127572367Y-114755340D01*
X127569756Y-114767836D01*
X127548079Y-114974088D01*
X127548034Y-114986853D01*
X119275656Y-114986853D01*
X119219409Y-114785400D01*
X119212586Y-114769633D01*
X119088722Y-114565110D01*
X119077911Y-114551759D01*
X118903610Y-114388080D01*
X118889606Y-114378128D01*
X118677710Y-114267352D01*
X118661546Y-114261532D01*
X118427666Y-114211819D01*
X118410532Y-114210561D01*
X118171897Y-114225575D01*
X118155057Y-114228971D01*
X117929252Y-114307604D01*
X117913945Y-114315404D01*
X117804785Y-114391271D01*
X113067705Y-114391271D01*
X112705490Y-114029056D01*
X112705490Y-112991979D01*
X112707337Y-112991979D01*
X112737305Y-113229199D01*
X112741751Y-113245793D01*
X112834408Y-113466216D01*
X112843153Y-113481004D01*
X112991673Y-113668389D01*
X113004073Y-113680280D01*
X113197513Y-113820823D01*
X113212654Y-113828941D01*
X113436764Y-113912287D01*
X113453530Y-113916034D01*
X113691797Y-113936042D01*
X113708953Y-113935143D01*
X113943823Y-113890340D01*
X113960106Y-113884860D01*
X114174276Y-113778544D01*
X114188485Y-113768888D01*
X114366175Y-113608896D01*
X114377264Y-113595774D01*
X114505383Y-113393889D01*
X114512535Y-113378269D01*
X114533273Y-113309581D01*
X114578823Y-113300892D01*
X114595106Y-113295412D01*
X114695308Y-113245671D01*
X114874381Y-113312268D01*
X114891147Y-113316015D01*
X115129414Y-113336023D01*
X115146570Y-113335124D01*
X115381440Y-113290321D01*
X115397723Y-113284841D01*
X115425810Y-113270899D01*
X115483514Y-113312823D01*
X115498654Y-113320941D01*
X115722764Y-113404287D01*
X115739530Y-113408034D01*
X115977797Y-113428042D01*
X115994953Y-113427143D01*
X116229823Y-113382340D01*
X116246106Y-113376860D01*
X116460276Y-113270544D01*
X116474485Y-113260888D01*
X116652175Y-113100896D01*
X116663264Y-113087774D01*
X116791383Y-112885889D01*
X116798534Y-112870269D01*
X116867740Y-112641052D01*
X116870439Y-112623414D01*
X116873126Y-112366707D01*
X116870798Y-112349017D01*
X116806409Y-112118400D01*
X116799586Y-112102633D01*
X116713495Y-111960480D01*
X118152205Y-110521771D01*
X121521775Y-110521771D01*
X121760979Y-110760976D01*
X121760979Y-111006939D01*
X121760980Y-111006951D01*
X121760980Y-111062249D01*
X121764082Y-111081838D01*
X121779716Y-111129953D01*
X121787632Y-111179937D01*
X121793761Y-111198800D01*
X121816734Y-111243885D01*
X121832368Y-111292003D01*
X121841372Y-111309675D01*
X121871115Y-111350612D01*
X121875466Y-111359153D01*
X121889305Y-111468699D01*
X121893751Y-111485293D01*
X121986408Y-111705716D01*
X121995153Y-111720504D01*
X122143673Y-111907889D01*
X122156073Y-111919780D01*
X122349513Y-112060323D01*
X122364654Y-112068441D01*
X122588764Y-112151787D01*
X122605530Y-112155534D01*
X122843797Y-112175542D01*
X122860953Y-112174643D01*
X123095823Y-112129840D01*
X123112106Y-112124360D01*
X123326276Y-112018044D01*
X123340485Y-112008388D01*
X123518175Y-111848396D01*
X123529264Y-111835274D01*
X123657383Y-111633389D01*
X123664535Y-111617769D01*
X123676863Y-111576936D01*
X123856614Y-111487706D01*
X123870823Y-111478050D01*
X124048513Y-111318058D01*
X124059602Y-111304936D01*
X124187721Y-111103051D01*
X124194872Y-111087431D01*
X124264078Y-110858214D01*
X124266777Y-110840576D01*
X124269464Y-110583869D01*
X124267136Y-110566179D01*
X124202747Y-110335562D01*
X124196779Y-110321771D01*
X126285419Y-110321771D01*
X126285431Y-110321770D01*
X126340729Y-110321770D01*
X126360318Y-110318668D01*
X126408433Y-110303034D01*
X126458416Y-110295118D01*
X126477279Y-110288989D01*
X126522366Y-110266016D01*
X126570484Y-110250382D01*
X126588156Y-110241377D01*
X126629087Y-110211638D01*
X126674174Y-110188665D01*
X126690220Y-110177007D01*
X126910221Y-109957006D01*
X126910234Y-109956991D01*
X129761602Y-107105624D01*
X131235592Y-107105624D01*
X131298211Y-107356776D01*
X131301659Y-107366875D01*
X131398581Y-107587671D01*
X131403682Y-107597046D01*
X131536420Y-107798355D01*
X131543028Y-107806736D01*
X131707788Y-107982803D01*
X131715712Y-107989951D01*
X131907782Y-108135739D01*
X131916798Y-108141450D01*
X132130686Y-108252792D01*
X132140535Y-108256902D01*
X132370124Y-108330616D01*
X132380525Y-108333007D01*
X132494152Y-108349178D01*
X132580990Y-108273823D01*
X132580990Y-107082580D01*
X132836990Y-107082580D01*
X132836990Y-108274519D01*
X132929208Y-108350133D01*
X133118009Y-108312407D01*
X133128260Y-108309438D01*
X133353377Y-108223024D01*
X133362981Y-108218371D01*
X133570320Y-108095262D01*
X133579002Y-108089057D01*
X133762635Y-107932775D01*
X133770148Y-107925195D01*
X133924823Y-107740206D01*
X133930952Y-107731469D01*
X134052246Y-107523065D01*
X134056815Y-107513421D01*
X134141262Y-107287558D01*
X134144141Y-107277282D01*
X134177933Y-107100140D01*
X134102346Y-107008771D01*
X132910799Y-107008771D01*
X132836990Y-107082580D01*
X132580990Y-107082580D01*
X132507181Y-107008771D01*
X131311262Y-107008771D01*
X131235592Y-107105624D01*
X129761602Y-107105624D01*
X130626839Y-106240388D01*
X130767324Y-106213590D01*
X130783606Y-106208110D01*
X130997776Y-106101794D01*
X131011985Y-106092138D01*
X131189675Y-105932146D01*
X131200764Y-105919024D01*
X131328883Y-105717139D01*
X131336034Y-105701519D01*
X131405240Y-105472302D01*
X131407939Y-105454664D01*
X131410626Y-105197957D01*
X131408298Y-105180267D01*
X131343909Y-104949650D01*
X131337086Y-104933883D01*
X131213222Y-104729360D01*
X131212169Y-104728059D01*
X131263334Y-104676894D01*
X131298211Y-104816776D01*
X131301659Y-104826875D01*
X131398581Y-105047671D01*
X131403682Y-105057046D01*
X131536420Y-105258355D01*
X131543028Y-105266736D01*
X131707788Y-105442803D01*
X131715712Y-105449951D01*
X131907782Y-105595739D01*
X131916798Y-105601450D01*
X131933156Y-105609965D01*
X131932022Y-105610653D01*
X131737189Y-105752728D01*
X131729128Y-105759723D01*
X131561019Y-105932593D01*
X131554253Y-105940845D01*
X131417673Y-106139569D01*
X131412393Y-106148844D01*
X131311250Y-106367739D01*
X131307609Y-106377771D01*
X131233075Y-106654004D01*
X131308724Y-106752771D01*
X134101853Y-106752771D01*
X134177363Y-106663258D01*
X134151489Y-106511885D01*
X134148807Y-106501555D01*
X134068713Y-106274114D01*
X134064329Y-106264383D01*
X133947057Y-106053687D01*
X133941097Y-106044835D01*
X133790003Y-105856911D01*
X133782637Y-105849188D01*
X133602039Y-105689409D01*
X133593476Y-105683038D01*
X133476878Y-105610744D01*
X133570320Y-105555262D01*
X133579002Y-105549057D01*
X133762635Y-105392775D01*
X133770148Y-105385195D01*
X133924823Y-105200206D01*
X133930952Y-105191469D01*
X134052246Y-104983065D01*
X134056815Y-104973421D01*
X134141262Y-104747558D01*
X134144141Y-104737282D01*
X134189382Y-104500122D01*
X134190497Y-104488899D01*
X134193067Y-104221112D01*
X134192168Y-104209870D01*
X134151489Y-103971885D01*
X134148807Y-103961555D01*
X134068713Y-103734114D01*
X134064329Y-103724383D01*
X133947057Y-103513687D01*
X133941097Y-103504835D01*
X133790003Y-103316911D01*
X133782637Y-103309188D01*
X133602039Y-103149409D01*
X133593476Y-103143038D01*
X133476878Y-103070744D01*
X133570320Y-103015262D01*
X133579002Y-103009057D01*
X133762635Y-102852775D01*
X133770148Y-102845195D01*
X133924823Y-102660206D01*
X133930952Y-102651469D01*
X134052246Y-102443065D01*
X134056815Y-102433421D01*
X134141262Y-102207558D01*
X134144141Y-102197282D01*
X134189382Y-101960122D01*
X134190497Y-101948899D01*
X134193067Y-101681112D01*
X134192168Y-101669870D01*
X134151489Y-101431885D01*
X134148807Y-101421555D01*
X134068713Y-101194114D01*
X134064329Y-101184383D01*
X133947057Y-100973687D01*
X133941097Y-100964835D01*
X133790003Y-100776911D01*
X133782637Y-100769188D01*
X133720120Y-100713878D01*
X133862849Y-100675634D01*
X133887329Y-100662891D01*
X134043580Y-100531781D01*
X134057751Y-100514892D01*
X134158349Y-100340651D01*
X134165890Y-100319934D01*
X134199868Y-100127233D01*
X134200827Y-100116272D01*
X134200827Y-98402513D01*
X134198671Y-98386137D01*
X134123853Y-98106913D01*
X134111110Y-98082433D01*
X133980000Y-97926181D01*
X133963111Y-97912010D01*
X133788870Y-97811412D01*
X133768153Y-97803871D01*
X133575452Y-97769893D01*
X133564491Y-97768934D01*
X131850732Y-97768934D01*
X131834356Y-97771090D01*
X131555132Y-97845908D01*
X131530652Y-97858651D01*
X131374400Y-97989761D01*
X131360229Y-98006650D01*
X131259631Y-98180891D01*
X131252090Y-98201608D01*
X131218112Y-98394309D01*
X131217153Y-98405270D01*
X131217153Y-100119029D01*
X131219309Y-100135405D01*
X131294127Y-100414630D01*
X131306870Y-100439110D01*
X131437980Y-100595361D01*
X131454869Y-100609532D01*
X131629110Y-100710130D01*
X131649827Y-100717671D01*
X131686019Y-100724053D01*
X131561019Y-100852593D01*
X131554253Y-100860845D01*
X131417673Y-101059569D01*
X131412393Y-101068844D01*
X131311250Y-101287739D01*
X131307608Y-101297771D01*
X131244792Y-101530578D01*
X131242893Y-101541080D01*
X131225955Y-101720273D01*
X131185397Y-101722825D01*
X131168557Y-101726221D01*
X130942752Y-101804854D01*
X130927445Y-101812654D01*
X130731103Y-101949114D01*
X130718457Y-101960743D01*
X130566045Y-102144977D01*
X130556992Y-102159578D01*
X130459739Y-102378012D01*
X130454946Y-102394510D01*
X130439814Y-102496981D01*
X126583164Y-106353632D01*
X126584626Y-106213957D01*
X126582298Y-106196267D01*
X126517909Y-105965650D01*
X126511086Y-105949883D01*
X126387222Y-105745360D01*
X126376411Y-105732009D01*
X126202110Y-105568330D01*
X126188106Y-105558378D01*
X125976210Y-105447602D01*
X125960046Y-105441782D01*
X125726166Y-105392069D01*
X125709032Y-105390811D01*
X125470397Y-105405825D01*
X125453557Y-105409221D01*
X125227752Y-105487854D01*
X125212445Y-105495654D01*
X125016103Y-105632114D01*
X125003457Y-105643743D01*
X124954935Y-105702396D01*
X124950554Y-105704628D01*
X124934510Y-105716285D01*
X124103889Y-106546907D01*
X124073397Y-106548825D01*
X124056557Y-106552221D01*
X123830752Y-106630854D01*
X123815445Y-106638654D01*
X123619103Y-106775114D01*
X123606457Y-106786743D01*
X123454045Y-106970977D01*
X123444992Y-106985578D01*
X123347738Y-107204012D01*
X123342945Y-107220510D01*
X123308017Y-107457050D01*
X123307837Y-107474229D01*
X123337805Y-107711449D01*
X123342251Y-107728043D01*
X123343293Y-107730521D01*
X119623857Y-107730521D01*
X119662957Y-107601019D01*
X120144078Y-107119898D01*
X120284563Y-107093100D01*
X120300846Y-107087620D01*
X120515016Y-106981304D01*
X120529225Y-106971648D01*
X120706915Y-106811656D01*
X120718004Y-106798534D01*
X120846123Y-106596649D01*
X120853274Y-106581029D01*
X120922480Y-106351812D01*
X120925179Y-106334174D01*
X120927866Y-106077467D01*
X120925538Y-106059777D01*
X120861149Y-105829160D01*
X120854326Y-105813393D01*
X120730462Y-105608870D01*
X120719651Y-105595519D01*
X120545350Y-105431840D01*
X120531346Y-105421888D01*
X120319450Y-105311112D01*
X120303286Y-105305292D01*
X120069406Y-105255579D01*
X120052272Y-105254321D01*
X119813637Y-105269335D01*
X119796797Y-105272731D01*
X119570992Y-105351364D01*
X119555685Y-105359164D01*
X119359343Y-105495624D01*
X119346697Y-105507253D01*
X119194285Y-105691487D01*
X119185232Y-105706088D01*
X119087979Y-105924522D01*
X119083186Y-105941020D01*
X119068055Y-106043490D01*
X118619135Y-106492411D01*
X118560898Y-106496075D01*
X118544057Y-106499471D01*
X118318252Y-106578104D01*
X118302945Y-106585904D01*
X118106603Y-106722364D01*
X118093957Y-106733993D01*
X117941545Y-106918227D01*
X117932492Y-106932828D01*
X117835238Y-107151262D01*
X117830445Y-107167760D01*
X117795517Y-107404300D01*
X117795337Y-107421479D01*
X117825305Y-107658699D01*
X117829751Y-107675293D01*
X117852967Y-107730521D01*
X117251061Y-107730521D01*
X117251049Y-107730522D01*
X117195749Y-107730522D01*
X117176160Y-107733624D01*
X117128045Y-107749258D01*
X117078063Y-107757175D01*
X117059201Y-107763303D01*
X117014113Y-107786276D01*
X116965994Y-107801911D01*
X116948323Y-107810916D01*
X116907389Y-107840656D01*
X116862306Y-107863627D01*
X116846260Y-107875285D01*
X116803469Y-107918077D01*
X113184000Y-111537547D01*
X113034755Y-111686791D01*
X113023098Y-111702836D01*
X113000128Y-111747915D01*
X112970383Y-111788856D01*
X112961379Y-111806528D01*
X112945742Y-111854654D01*
X112922774Y-111899731D01*
X112916645Y-111918593D01*
X112908728Y-111968576D01*
X112893093Y-112016694D01*
X112889991Y-112036282D01*
X112889991Y-112091580D01*
X112889990Y-112091592D01*
X112889990Y-112444208D01*
X112887213Y-112448030D01*
X112853545Y-112488727D01*
X112844492Y-112503328D01*
X112747238Y-112721762D01*
X112742445Y-112738260D01*
X112707517Y-112974800D01*
X112707337Y-112991979D01*
X112705490Y-112991979D01*
X112705490Y-112733053D01*
X112798883Y-112585890D01*
X112806034Y-112570269D01*
X112875240Y-112341052D01*
X112877939Y-112323414D01*
X112880626Y-112066707D01*
X112878298Y-112049017D01*
X112813909Y-111818400D01*
X112807086Y-111802633D01*
X112683222Y-111598110D01*
X112672411Y-111584759D01*
X112498110Y-111421080D01*
X112484106Y-111411128D01*
X112272210Y-111300352D01*
X112256046Y-111294532D01*
X112055480Y-111251900D01*
X112055480Y-108835286D01*
X112180713Y-108618376D01*
X112187034Y-108603116D01*
X112253324Y-108355719D01*
X112255480Y-108339343D01*
X112255480Y-108083219D01*
X112253324Y-108066843D01*
X112187034Y-107819446D01*
X112180713Y-107804186D01*
X112052651Y-107582376D01*
X112042596Y-107569272D01*
X111861489Y-107388165D01*
X111848385Y-107378110D01*
X111626575Y-107250048D01*
X111611315Y-107243727D01*
X111363918Y-107177437D01*
X111347542Y-107175281D01*
X111091418Y-107175281D01*
X111075042Y-107177437D01*
X110827645Y-107243727D01*
X110812385Y-107250048D01*
X110590575Y-107378110D01*
X110577471Y-107388165D01*
X110396364Y-107569272D01*
X110386309Y-107582376D01*
X110258247Y-107804186D01*
X110251926Y-107819446D01*
X110185636Y-108066843D01*
X110183480Y-108083219D01*
X104953313Y-108083219D01*
X104967740Y-108035438D01*
X104970439Y-108017800D01*
X104973126Y-107761093D01*
X104970798Y-107743403D01*
X104906409Y-107512786D01*
X104899586Y-107497019D01*
X104775722Y-107292496D01*
X104764911Y-107279145D01*
X104590610Y-107115466D01*
X104576606Y-107105514D01*
X104364710Y-106994738D01*
X104348546Y-106988918D01*
X104114666Y-106939205D01*
X104097532Y-106937947D01*
X104084882Y-106938743D01*
X104084882Y-103540367D01*
X104239833Y-103510809D01*
X104256116Y-103505329D01*
X104470286Y-103399013D01*
X104484495Y-103389357D01*
X104662185Y-103229365D01*
X104673274Y-103216243D01*
X104801393Y-103014358D01*
X104808544Y-102998738D01*
X104877750Y-102769521D01*
X104880449Y-102751883D01*
X104883136Y-102495176D01*
X104880808Y-102477486D01*
X104816419Y-102246869D01*
X104809596Y-102231102D01*
X104685732Y-102026579D01*
X104674921Y-102013228D01*
X104500620Y-101849549D01*
X104486616Y-101839597D01*
X104274720Y-101728821D01*
X104258556Y-101723001D01*
X104084882Y-101686085D01*
X104084882Y-99315359D01*
X104136722Y-99333716D01*
X104146721Y-99336358D01*
X104303805Y-99364337D01*
X104393990Y-99288796D01*
X104393990Y-97972580D01*
X104649990Y-97972580D01*
X104649990Y-99288671D01*
X104737829Y-99364091D01*
X104861953Y-99345096D01*
X104872012Y-99342699D01*
X105094100Y-99270111D01*
X105103634Y-99266103D01*
X105310883Y-99158216D01*
X105319634Y-99152705D01*
X105506480Y-99012417D01*
X105514214Y-99005550D01*
X105675637Y-98836630D01*
X105682146Y-98828593D01*
X105813813Y-98635575D01*
X105818922Y-98626582D01*
X105917296Y-98414652D01*
X105920867Y-98404947D01*
X105983410Y-98179424D01*
X105985426Y-98168495D01*
X106003133Y-97981172D01*
X105928154Y-97898771D01*
X104723799Y-97898771D01*
X104649990Y-97972580D01*
X104393990Y-97972580D01*
X104393990Y-96252871D01*
X104393845Y-96252746D01*
X104649990Y-96252746D01*
X104649990Y-97568962D01*
X104723799Y-97642771D01*
X105929284Y-97642771D01*
X106004142Y-97561505D01*
X105991500Y-97407736D01*
X105989810Y-97397533D01*
X105932889Y-97170923D01*
X105929556Y-97161134D01*
X105836390Y-96946864D01*
X105831503Y-96937750D01*
X105704590Y-96741572D01*
X105698280Y-96733379D01*
X105541030Y-96560565D01*
X105533467Y-96553512D01*
X105350104Y-96408701D01*
X105341490Y-96402978D01*
X105136939Y-96290060D01*
X105127506Y-96285820D01*
X104907258Y-96207826D01*
X104897259Y-96205184D01*
X104740175Y-96177205D01*
X104649990Y-96252746D01*
X104393845Y-96252746D01*
X104306151Y-96177451D01*
X104182027Y-96196446D01*
X104171968Y-96198843D01*
X103949880Y-96271431D01*
X103940346Y-96275439D01*
X103733097Y-96383326D01*
X103724346Y-96388837D01*
X103537500Y-96529126D01*
X103529766Y-96535992D01*
X103368343Y-96704913D01*
X103361835Y-96712950D01*
X103271625Y-96845192D01*
X103204590Y-96741572D01*
X103198280Y-96733379D01*
X103041030Y-96560565D01*
X103033467Y-96553512D01*
X102850104Y-96408701D01*
X102841490Y-96402978D01*
X102636939Y-96290060D01*
X102627506Y-96285820D01*
X102407258Y-96207826D01*
X102397260Y-96205184D01*
X102167231Y-96164211D01*
X102156936Y-96163238D01*
X101923305Y-96160382D01*
X101912988Y-96161104D01*
X101682028Y-96196446D01*
X101671968Y-96198843D01*
X101449880Y-96271431D01*
X101440346Y-96275439D01*
X101233097Y-96383326D01*
X101224346Y-96388837D01*
X101037500Y-96529126D01*
X101029766Y-96535992D01*
X100868343Y-96704913D01*
X100861835Y-96712950D01*
X100771625Y-96845192D01*
X100704590Y-96741572D01*
X100698280Y-96733379D01*
X100541030Y-96560565D01*
X100533467Y-96553512D01*
X100350104Y-96408701D01*
X100341490Y-96402978D01*
X100136939Y-96290060D01*
X100127506Y-96285820D01*
X99907258Y-96207826D01*
X99897260Y-96205184D01*
X99667231Y-96164211D01*
X99656936Y-96163238D01*
X99423305Y-96160382D01*
X99412988Y-96161104D01*
X99182028Y-96196446D01*
X99171968Y-96198843D01*
X98949880Y-96271431D01*
X98940346Y-96275439D01*
X98733097Y-96383326D01*
X98724346Y-96388837D01*
X98537500Y-96529126D01*
X98529766Y-96535992D01*
X98416881Y-96654119D01*
X98299294Y-96471151D01*
X98287491Y-96457530D01*
X98109141Y-96302988D01*
X98093979Y-96293244D01*
X97879313Y-96195210D01*
X97862020Y-96190132D01*
X97632896Y-96157189D01*
X97623919Y-96156547D01*
X96417807Y-96156547D01*
X96404377Y-96157991D01*
X96068637Y-96231026D01*
X96047803Y-96239656D01*
X95847370Y-96368467D01*
X95833749Y-96380270D01*
X95679207Y-96558620D01*
X95669463Y-96573782D01*
X95571429Y-96788448D01*
X95566351Y-96805741D01*
X95533408Y-97034865D01*
X95532766Y-97043842D01*
X94761133Y-97043842D01*
X94761338Y-97043638D01*
X94901823Y-97016840D01*
X94918106Y-97011360D01*
X95132276Y-96905044D01*
X95146485Y-96895388D01*
X95324175Y-96735396D01*
X95335264Y-96722274D01*
X95463383Y-96520389D01*
X95470534Y-96504769D01*
X95539740Y-96275552D01*
X95542439Y-96257914D01*
X95545126Y-96001207D01*
X95542798Y-95983517D01*
X95478409Y-95752900D01*
X95471586Y-95737133D01*
X95347722Y-95532610D01*
X95336911Y-95519259D01*
X95162610Y-95355580D01*
X95148606Y-95345628D01*
X94936710Y-95234852D01*
X94920546Y-95229032D01*
X94686666Y-95179319D01*
X94669532Y-95178061D01*
X94430897Y-95193075D01*
X94414057Y-95196471D01*
X94188252Y-95275104D01*
X94172945Y-95282904D01*
X93976603Y-95419364D01*
X93963957Y-95430993D01*
X93811545Y-95615227D01*
X93802492Y-95629828D01*
X93705239Y-95848262D01*
X93700445Y-95864760D01*
X93685314Y-95967232D01*
X91983000Y-97669547D01*
X91833755Y-97818791D01*
X91822098Y-97834836D01*
X91799128Y-97879915D01*
X91769383Y-97920856D01*
X91760379Y-97938528D01*
X91744743Y-97986653D01*
X91721773Y-98031731D01*
X91715644Y-98050594D01*
X91707729Y-98100572D01*
X91692093Y-98148693D01*
X91688991Y-98168282D01*
X91688991Y-98228797D01*
X91688990Y-101286172D01*
X91652545Y-101330227D01*
X91643492Y-101344828D01*
X91546238Y-101563262D01*
X91541445Y-101579760D01*
X91506517Y-101816300D01*
X91506337Y-101833479D01*
X90182000Y-101833479D01*
X90182000Y-94908122D01*
X90181999Y-94908110D01*
X90181999Y-94852811D01*
X90178897Y-94833222D01*
X90163263Y-94785107D01*
X90155347Y-94735124D01*
X90149218Y-94716262D01*
X90126245Y-94671175D01*
X90110611Y-94623057D01*
X90101606Y-94605385D01*
X90071867Y-94564454D01*
X90048894Y-94519366D01*
X90037236Y-94503321D01*
X89953374Y-94419460D01*
X89931733Y-94376987D01*
X89920075Y-94360941D01*
X89882753Y-94323621D01*
X89882747Y-94323613D01*
X89373688Y-93814556D01*
X89373684Y-93814551D01*
X88802189Y-93243057D01*
X88802184Y-93243051D01*
X87842313Y-92283181D01*
X87836232Y-92271247D01*
X87824574Y-92255201D01*
X87787255Y-92217883D01*
X87787248Y-92217874D01*
X86893379Y-91324007D01*
X86673715Y-91070079D01*
X86441318Y-90795537D01*
X86212109Y-90518795D01*
X85985799Y-90239511D01*
X85762426Y-89957726D01*
X85542378Y-89673935D01*
X85325125Y-89387458D01*
X85111099Y-89098859D01*
X84900025Y-88807765D01*
X84692195Y-88514583D01*
X84487483Y-88219130D01*
X84285982Y-87921547D01*
X84087621Y-87621720D01*
X83892577Y-87319929D01*
X83700800Y-87016093D01*
X83512181Y-86710038D01*
X83326989Y-86402197D01*
X83144893Y-86092022D01*
X82966309Y-85780219D01*
X82791059Y-85466479D01*
X82619134Y-85150792D01*
X82450568Y-84833204D01*
X82285487Y-84513965D01*
X82217795Y-84379542D01*
X82123890Y-84193069D01*
X81965672Y-83870318D01*
X81810934Y-83545907D01*
X81659687Y-83219862D01*
X81511990Y-82892315D01*
X81367687Y-82562910D01*
X81226997Y-82232145D01*
X81089879Y-81899931D01*
X80956347Y-81566301D01*
X80826401Y-81231269D01*
X80700052Y-80894846D01*
X80577217Y-80556807D01*
X80458135Y-80217818D01*
X80342602Y-79877294D01*
X80230844Y-79535901D01*
X80122719Y-79193228D01*
X80018195Y-78849157D01*
X79917463Y-78504301D01*
X79820336Y-78158038D01*
X79727021Y-77811095D01*
X79637383Y-77462984D01*
X79551473Y-77113884D01*
X79469375Y-76764154D01*
X79390986Y-76413366D01*
X79316378Y-76061818D01*
X79245507Y-75709305D01*
X79178454Y-75356222D01*
X79115203Y-75002516D01*
X79055734Y-74648063D01*
X79000063Y-74292943D01*
X78948198Y-73937215D01*
X78918935Y-73720237D01*
X78932912Y-73677220D01*
X78955885Y-73632133D01*
X78962014Y-73613271D01*
X78969930Y-73563288D01*
X78985564Y-73515173D01*
X78988666Y-73495584D01*
X78988666Y-73440285D01*
X78988667Y-73440273D01*
X78988667Y-73426382D01*
X79082060Y-73279219D01*
X79089211Y-73263598D01*
X79158417Y-73034381D01*
X79161116Y-73016743D01*
X79163803Y-72760036D01*
X79161475Y-72742346D01*
X79097086Y-72511729D01*
X79090263Y-72495962D01*
X78966399Y-72291439D01*
X78955588Y-72278088D01*
X78781287Y-72114409D01*
X78767283Y-72104457D01*
X78555387Y-71993681D01*
X78539223Y-71987861D01*
X78328161Y-71942998D01*
X78326330Y-71920277D01*
X78326330Y-71486008D01*
X78326329Y-71485996D01*
X78326329Y-71430695D01*
X78323226Y-71411107D01*
X78307593Y-71362992D01*
X78299677Y-71313009D01*
X78294761Y-71297880D01*
X78294761Y-70751690D01*
X78294760Y-70751678D01*
X78294760Y-70696378D01*
X78291657Y-70676790D01*
X78276024Y-70628675D01*
X78268108Y-70578692D01*
X78261979Y-70559830D01*
X78254904Y-70545945D01*
X78254904Y-69992324D01*
X78254903Y-69992312D01*
X78254903Y-69937012D01*
X78251800Y-69917424D01*
X78236167Y-69869309D01*
X78230978Y-69836546D01*
X78230978Y-69098185D01*
X78230977Y-69098173D01*
X78230977Y-69066936D01*
X78259082Y-68973850D01*
X78261781Y-68956212D01*
X78264468Y-68699505D01*
X78262140Y-68681815D01*
X78197751Y-68451198D01*
X78190928Y-68435431D01*
X78067064Y-68230908D01*
X78056253Y-68217557D01*
X77881952Y-68053878D01*
X77867948Y-68043926D01*
X77656052Y-67933150D01*
X77639888Y-67927330D01*
X77406008Y-67877617D01*
X77388874Y-67876359D01*
X77150239Y-67891373D01*
X77133399Y-67894769D01*
X76907594Y-67973402D01*
X76892287Y-67981202D01*
X76695945Y-68117662D01*
X76683299Y-68129291D01*
X76530887Y-68313525D01*
X76521834Y-68328126D01*
X76424580Y-68546560D01*
X76419787Y-68563058D01*
X76407538Y-68646010D01*
X75770991Y-68646010D01*
X75770991Y-59914010D01*
X82502991Y-59914010D01*
X82502992Y-68646010D01*
%TD*%
M02*
