%TF.GenerationSoftware,KiCad,Pcbnew,5.99.0-unknown-5405c09~101~ubuntu18.04.1*%
%TF.CreationDate,2020-04-21T19:36:23+03:00*%
%TF.ProjectId,Ultrasonic Flow Sensor,556c7472-6173-46f6-9e69-6320466c6f77,rev?*%
%TF.SameCoordinates,Original*%
%TF.FileFunction,Legend,Top*%
%TF.FilePolarity,Positive*%
%FSLAX46Y46*%
G04 Gerber Fmt 4.6, Leading zero omitted, Abs format (unit mm)*
G04 Created by KiCad (PCBNEW 5.99.0-unknown-5405c09~101~ubuntu18.04.1) date 2020-04-21 19:36:23*
%MOMM*%
%LPD*%
G01*
G04 APERTURE LIST*
%TA.AperFunction,Profile*%
%ADD10C,0.100000*%
%TD*%
%ADD11C,0.100000*%
%ADD12C,0.120000*%
%ADD13C,0.150000*%
G04 APERTURE END LIST*
D10*
X149136991Y-69280010D02*
X147136990Y-69280010D01*
X142136990Y-69280010D02*
G75*
G02*
X127136990Y-95260771I-29999999J0D01*
G01*
X141136991Y-69280010D02*
X141136991Y-59280010D01*
X88684912Y-95260772D02*
X88684912Y-130260772D01*
X83136991Y-59280010D02*
X83136991Y-69280010D01*
X142136990Y-69280010D02*
X141136991Y-69280010D01*
X75136991Y-69280010D02*
X75136991Y-59280010D01*
X77136991Y-69280010D02*
X75136991Y-69280010D01*
X88684912Y-95260772D02*
G75*
G02*
X77136991Y-69280010I23452079J25980762D01*
G01*
X111286991Y-95260772D02*
X111286991Y-105260772D01*
X111286991Y-95260772D02*
X97136991Y-95260772D01*
D11*
X113023990Y-105390771D02*
X113023990Y-131806771D01*
D10*
X112986991Y-95260772D02*
X127136990Y-95260771D01*
X112986991Y-105260772D02*
X112986991Y-95260772D01*
D11*
X131268513Y-128381771D02*
X131220894Y-128357961D01*
X131149466Y-128357961D01*
X131078037Y-128381771D01*
X131030418Y-128429390D01*
X131006609Y-128477009D01*
X130982799Y-128572247D01*
X130982799Y-128643675D01*
X131006609Y-128738913D01*
X131030418Y-128786532D01*
X131078037Y-128834151D01*
X131149466Y-128857961D01*
X131197085Y-128857961D01*
X131268513Y-128834151D01*
X131292323Y-128810342D01*
X131292323Y-128643675D01*
X131197085Y-128643675D01*
X131578037Y-128857961D02*
X131530418Y-128834151D01*
X131506609Y-128810342D01*
X131482799Y-128762723D01*
X131482799Y-128619866D01*
X131506609Y-128572247D01*
X131530418Y-128548437D01*
X131578037Y-128524628D01*
X131649466Y-128524628D01*
X131697085Y-128548437D01*
X131720894Y-128572247D01*
X131744704Y-128619866D01*
X131744704Y-128762723D01*
X131720894Y-128810342D01*
X131697085Y-128834151D01*
X131649466Y-128857961D01*
X131578037Y-128857961D01*
X132173275Y-128857961D02*
X132173275Y-128596056D01*
X132149466Y-128548437D01*
X132101847Y-128524628D01*
X132006609Y-128524628D01*
X131958990Y-128548437D01*
X132173275Y-128834151D02*
X132125656Y-128857961D01*
X132006609Y-128857961D01*
X131958990Y-128834151D01*
X131935180Y-128786532D01*
X131935180Y-128738913D01*
X131958990Y-128691294D01*
X132006609Y-128667485D01*
X132125656Y-128667485D01*
X132173275Y-128643675D01*
X132339942Y-128524628D02*
X132530418Y-128524628D01*
X132411370Y-128357961D02*
X132411370Y-128786532D01*
X132435180Y-128834151D01*
X132482799Y-128857961D01*
X132530418Y-128857961D01*
X133030418Y-128524628D02*
X133149466Y-128857961D01*
X133268513Y-128524628D01*
X133720894Y-128857961D02*
X133435180Y-128857961D01*
X133578037Y-128857961D02*
X133578037Y-128357961D01*
X133530418Y-128429390D01*
X133482799Y-128477009D01*
X133435180Y-128500818D01*
X133935180Y-128810342D02*
X133958990Y-128834151D01*
X133935180Y-128857961D01*
X133911370Y-128834151D01*
X133935180Y-128810342D01*
X133935180Y-128857961D01*
X134268513Y-128357961D02*
X134316132Y-128357961D01*
X134363751Y-128381771D01*
X134387561Y-128405580D01*
X134411370Y-128453199D01*
X134435180Y-128548437D01*
X134435180Y-128667485D01*
X134411370Y-128762723D01*
X134387561Y-128810342D01*
X134363751Y-128834151D01*
X134316132Y-128857961D01*
X134268513Y-128857961D01*
X134220894Y-128834151D01*
X134197085Y-128810342D01*
X134173275Y-128762723D01*
X134149466Y-128667485D01*
X134149466Y-128548437D01*
X134173275Y-128453199D01*
X134197085Y-128405580D01*
X134220894Y-128381771D01*
X134268513Y-128357961D01*
D10*
X88684912Y-130260772D02*
X135589070Y-130260772D01*
X149136991Y-59280010D02*
X149136991Y-69280010D01*
X111286991Y-105260772D02*
X112986991Y-105260772D01*
X141136991Y-59280010D02*
X149136991Y-59280010D01*
X97136991Y-95260772D02*
G75*
G02*
X82136991Y-69280010I15000000J25980762D01*
G01*
X83136991Y-69280010D02*
X82136991Y-69280010D01*
X135589070Y-130260772D02*
X135589069Y-95260771D01*
X147136990Y-69280010D02*
G75*
G02*
X135589069Y-95260771I-34999999J0D01*
G01*
X75136991Y-59280010D02*
X83136991Y-59280010D01*
D12*
%TO.C,U1*%
X98126490Y-107734657D02*
X100326490Y-107734657D01*
X98126490Y-107734657D02*
X95926490Y-107734657D01*
X98126490Y-102264657D02*
X100326490Y-102264657D01*
X98126490Y-102264657D02*
X94526490Y-102264657D01*
%TO.C,C8*%
X121153990Y-124785992D02*
X121153990Y-125111550D01*
X120133990Y-124785992D02*
X120133990Y-125111550D01*
%TO.C,R1*%
X95876990Y-112894050D02*
X95876990Y-112568492D01*
X96896990Y-112894050D02*
X96896990Y-112568492D01*
%TO.C,C16*%
X117877769Y-112487271D02*
X117552211Y-112487271D01*
X117877769Y-111467271D02*
X117552211Y-111467271D01*
%TO.C,C17*%
X107430211Y-117263157D02*
X107755769Y-117263157D01*
X107430211Y-118283157D02*
X107755769Y-118283157D01*
%TO.C,J1*%
X131378990Y-108210771D02*
X134038990Y-108210771D01*
X131378990Y-100530771D02*
X131378990Y-108210771D01*
X134038990Y-100530771D02*
X134038990Y-108210771D01*
X131378990Y-100530771D02*
X134038990Y-100530771D01*
X131378990Y-99260771D02*
X131378990Y-97930771D01*
X131378990Y-97930771D02*
X132708990Y-97930771D01*
%TO.C,Q3*%
X118439490Y-103610271D02*
X117509490Y-103610271D01*
X115279490Y-103610271D02*
X116209490Y-103610271D01*
X115279490Y-103610271D02*
X115279490Y-105770271D01*
X118439490Y-103610271D02*
X118439490Y-105070271D01*
%TO.C,R21*%
X120506711Y-101320271D02*
X120832269Y-101320271D01*
X120506711Y-102340271D02*
X120832269Y-102340271D01*
%TO.C,C1*%
X97400990Y-112894050D02*
X97400990Y-112568492D01*
X98420990Y-112894050D02*
X98420990Y-112568492D01*
%TO.C,C22*%
X107447711Y-106353657D02*
X107773269Y-106353657D01*
X107447711Y-107373657D02*
X107773269Y-107373657D01*
%TO.C,C9*%
X99937211Y-100933657D02*
X100262769Y-100933657D01*
X99937211Y-101953657D02*
X100262769Y-101953657D01*
%TO.C,U3*%
X120967240Y-116904271D02*
X120967240Y-114704271D01*
X120967240Y-116904271D02*
X120967240Y-119104271D01*
X114197240Y-116904271D02*
X114197240Y-114704271D01*
X114197240Y-116904271D02*
X114197240Y-120504271D01*
%TO.C,J6*%
X94111990Y-100380771D02*
X96611990Y-100380771D01*
X94111990Y-97880771D02*
X94111990Y-100380771D01*
X106131990Y-98580771D02*
X106131990Y-100080771D01*
X107131990Y-98580771D02*
X106131990Y-98580771D01*
X95411990Y-98580771D02*
X95411990Y-100080771D01*
X94411990Y-98580771D02*
X95411990Y-98580771D01*
X106631990Y-97770771D02*
X107131990Y-97770771D01*
X106631990Y-96560771D02*
X106631990Y-97770771D01*
X94911990Y-96560771D02*
X106631990Y-96560771D01*
X94911990Y-97770771D02*
X94911990Y-96560771D01*
X94411990Y-97770771D02*
X94911990Y-97770771D01*
X107131990Y-96060771D02*
X94411990Y-96060771D01*
X107131990Y-100080771D02*
X107131990Y-96060771D01*
X94411990Y-100080771D02*
X107131990Y-100080771D01*
X94411990Y-96060771D02*
X94411990Y-100080771D01*
%TO.C,R20*%
X116671211Y-101320271D02*
X116996769Y-101320271D01*
X116671211Y-102340271D02*
X116996769Y-102340271D01*
%TO.C,J2*%
X130086990Y-121144271D02*
X127486990Y-121144271D01*
X127486990Y-113224271D02*
X130086990Y-113224271D01*
X125176990Y-120384271D02*
X125176990Y-119234271D01*
X125176990Y-119234271D02*
X124586990Y-119234271D01*
X124586990Y-119234271D02*
X124586990Y-118534271D01*
X125176990Y-115134271D02*
X125176990Y-113984271D01*
X132986990Y-121144271D02*
X134646990Y-121144271D01*
X134646990Y-121144271D02*
X134646990Y-113224271D01*
X134646990Y-113224271D02*
X132986990Y-113224271D01*
%TO.C,C18*%
X107447711Y-101019657D02*
X107773269Y-101019657D01*
X107447711Y-102039657D02*
X107773269Y-102039657D01*
%TO.C,R14*%
X103526990Y-105756436D02*
X103526990Y-105430878D01*
X104546990Y-105756436D02*
X104546990Y-105430878D01*
%TO.C,R6*%
X102650240Y-118143378D02*
X102650240Y-118468936D01*
X101630240Y-118143378D02*
X101630240Y-118468936D01*
%TO.C,R19*%
X116671211Y-106400271D02*
X116996769Y-106400271D01*
X116671211Y-107420271D02*
X116996769Y-107420271D01*
%TO.C,C4*%
X145156990Y-70937992D02*
X145156990Y-71263550D01*
X144136990Y-70937992D02*
X144136990Y-71263550D01*
%TO.C,Q4*%
X126059490Y-103610271D02*
X125129490Y-103610271D01*
X122899490Y-103610271D02*
X123829490Y-103610271D01*
X122899490Y-103610271D02*
X122899490Y-105770271D01*
X126059490Y-103610271D02*
X126059490Y-105070271D01*
%TO.C,C3*%
X95572019Y-124518657D02*
X95246461Y-124518657D01*
X95572019Y-123498657D02*
X95246461Y-123498657D01*
%TO.C,R4*%
X81646990Y-70810992D02*
X81646990Y-71136550D01*
X80626990Y-70810992D02*
X80626990Y-71136550D01*
%TO.C,C14*%
X107244926Y-107909771D02*
X108449054Y-107909771D01*
X107244926Y-109729771D02*
X108449054Y-109729771D01*
%TO.C,U5*%
X108492990Y-113508657D02*
X106692990Y-113508657D01*
X106692990Y-116728657D02*
X109142990Y-116728657D01*
%TO.C,C10*%
X115274211Y-127867771D02*
X115599769Y-127867771D01*
X115274211Y-128887771D02*
X115599769Y-128887771D01*
%TO.C,R7*%
X143632990Y-70937992D02*
X143632990Y-71263550D01*
X142612990Y-70937992D02*
X142612990Y-71263550D01*
%TO.C,C13*%
X107755769Y-120708657D02*
X107430211Y-120708657D01*
X107755769Y-119688657D02*
X107430211Y-119688657D01*
%TO.C,R10*%
X102650240Y-121318378D02*
X102650240Y-121643936D01*
X101630240Y-121318378D02*
X101630240Y-121643936D01*
%TO.C,R15*%
X127664769Y-110472771D02*
X127339211Y-110472771D01*
X127664769Y-109452771D02*
X127339211Y-109452771D01*
%TO.C,Q1*%
X122249490Y-103610271D02*
X121319490Y-103610271D01*
X119089490Y-103610271D02*
X120019490Y-103610271D01*
X119089490Y-103610271D02*
X119089490Y-105770271D01*
X122249490Y-103610271D02*
X122249490Y-105070271D01*
%TO.C,U2*%
X97695240Y-117651157D02*
X95745240Y-117651157D01*
X97695240Y-117651157D02*
X99645240Y-117651157D01*
X97695240Y-122771157D02*
X95745240Y-122771157D01*
X97695240Y-122771157D02*
X101145240Y-122771157D01*
%TO.C,Q2*%
X129869490Y-103610271D02*
X128939490Y-103610271D01*
X126709490Y-103610271D02*
X127639490Y-103610271D01*
X126709490Y-103610271D02*
X126709490Y-105770271D01*
X129869490Y-103610271D02*
X129869490Y-105070271D01*
%TO.C,C11*%
X107755769Y-122232657D02*
X107430211Y-122232657D01*
X107755769Y-121212657D02*
X107430211Y-121212657D01*
%TO.C,C2*%
X80132990Y-70810992D02*
X80132990Y-71136550D01*
X79112990Y-70810992D02*
X79112990Y-71136550D01*
%TO.C,J3*%
X130355990Y-100439521D02*
X130355990Y-97779521D01*
X117595990Y-100439521D02*
X130355990Y-100439521D01*
X117595990Y-97779521D02*
X130355990Y-97779521D01*
X117595990Y-100439521D02*
X117595990Y-97779521D01*
X116325990Y-100439521D02*
X114995990Y-100439521D01*
X114995990Y-100439521D02*
X114995990Y-99109521D01*
%TO.C,R3*%
X107404711Y-124260657D02*
X107730269Y-124260657D01*
X107404711Y-125280657D02*
X107730269Y-125280657D01*
%TO.C,C20*%
X107430211Y-112068657D02*
X107755769Y-112068657D01*
X107430211Y-113088657D02*
X107755769Y-113088657D01*
%TO.C,R12*%
X102739461Y-123498657D02*
X103065019Y-123498657D01*
X102739461Y-124518657D02*
X103065019Y-124518657D01*
%TO.C,R2*%
X98924990Y-112894050D02*
X98924990Y-112568492D01*
X99944990Y-112894050D02*
X99944990Y-112568492D01*
%TO.C,R13*%
X99564461Y-123498657D02*
X99890019Y-123498657D01*
X99564461Y-124518657D02*
X99890019Y-124518657D01*
%TO.C,J4*%
X103341990Y-126488657D02*
X103341990Y-129148657D01*
X105941990Y-126488657D02*
X103341990Y-126488657D01*
X105941990Y-129148657D02*
X103341990Y-129148657D01*
X105941990Y-126488657D02*
X105941990Y-129148657D01*
X107211990Y-126488657D02*
X108541990Y-126488657D01*
X108541990Y-126488657D02*
X108541990Y-127818657D01*
%TO.C,R17*%
X127711269Y-108928271D02*
X127385711Y-108928271D01*
X127711269Y-107908271D02*
X127385711Y-107908271D01*
%TO.C,R22*%
X124316711Y-101320271D02*
X124642269Y-101320271D01*
X124316711Y-102340271D02*
X124642269Y-102340271D01*
%TO.C,R11*%
X93760240Y-120035878D02*
X93760240Y-120361436D01*
X92740240Y-120035878D02*
X92740240Y-120361436D01*
%TO.C,U4*%
X108535990Y-102586657D02*
X106735990Y-102586657D01*
X106735990Y-105806657D02*
X109185990Y-105806657D01*
%TO.C,C12*%
X107404711Y-122736657D02*
X107730269Y-122736657D01*
X107404711Y-123756657D02*
X107730269Y-123756657D01*
%TO.C,R9*%
X93760240Y-116987878D02*
X93760240Y-117313436D01*
X92740240Y-116987878D02*
X92740240Y-117313436D01*
%TO.C,U12*%
X127177990Y-124279271D02*
X125277990Y-124279271D01*
X125777990Y-126599271D02*
X127177990Y-126599271D01*
%TO.C,C15*%
X118822211Y-120992271D02*
X119147769Y-120992271D01*
X118822211Y-122012271D02*
X119147769Y-122012271D01*
%TO.C,R18*%
X116671211Y-107928771D02*
X116996769Y-107928771D01*
X116671211Y-108948771D02*
X116996769Y-108948771D01*
%TO.C,R23*%
X128126711Y-101320271D02*
X128452269Y-101320271D01*
X128126711Y-102340271D02*
X128452269Y-102340271D01*
%TO.C,R16*%
X127711269Y-107404271D02*
X127385711Y-107404271D01*
X127711269Y-106384271D02*
X127385711Y-106384271D01*
%TO.C,C7*%
X100448990Y-112894050D02*
X100448990Y-112568492D01*
X101468990Y-112894050D02*
X101468990Y-112568492D01*
%TD*%
%TO.C,U1*%
X97669347Y-104697085D02*
X97669347Y-105182799D01*
X97697918Y-105239942D01*
X97726490Y-105268514D01*
X97783632Y-105297085D01*
X97897918Y-105297085D01*
X97955061Y-105268514D01*
X97983632Y-105239942D01*
X98012204Y-105182799D01*
X98012204Y-104697085D01*
X98612204Y-105297085D02*
X98269347Y-105297085D01*
X98440775Y-105297085D02*
X98440775Y-104697085D01*
X98383632Y-104782799D01*
X98326490Y-104839942D01*
X98269347Y-104868514D01*
%TO.C,C8*%
X120429704Y-127007771D02*
X120401132Y-126979199D01*
X120372561Y-126893485D01*
X120372561Y-126836342D01*
X120401132Y-126750628D01*
X120458275Y-126693485D01*
X120515418Y-126664913D01*
X120629704Y-126636342D01*
X120715418Y-126636342D01*
X120829704Y-126664913D01*
X120886847Y-126693485D01*
X120943990Y-126750628D01*
X120972561Y-126836342D01*
X120972561Y-126893485D01*
X120943990Y-126979199D01*
X120915418Y-127007771D01*
X120715418Y-127350628D02*
X120743990Y-127293485D01*
X120772561Y-127264913D01*
X120829704Y-127236342D01*
X120858275Y-127236342D01*
X120915418Y-127264913D01*
X120943990Y-127293485D01*
X120972561Y-127350628D01*
X120972561Y-127464913D01*
X120943990Y-127522056D01*
X120915418Y-127550628D01*
X120858275Y-127579199D01*
X120829704Y-127579199D01*
X120772561Y-127550628D01*
X120743990Y-127522056D01*
X120715418Y-127464913D01*
X120715418Y-127350628D01*
X120686847Y-127293485D01*
X120658275Y-127264913D01*
X120601132Y-127236342D01*
X120486847Y-127236342D01*
X120429704Y-127264913D01*
X120401132Y-127293485D01*
X120372561Y-127350628D01*
X120372561Y-127464913D01*
X120401132Y-127522056D01*
X120429704Y-127550628D01*
X120486847Y-127579199D01*
X120601132Y-127579199D01*
X120658275Y-127550628D01*
X120686847Y-127522056D01*
X120715418Y-127464913D01*
%TO.C,R1*%
X96658418Y-114964771D02*
X96372704Y-115164771D01*
X96658418Y-115307628D02*
X96058418Y-115307628D01*
X96058418Y-115079056D01*
X96086990Y-115021913D01*
X96115561Y-114993342D01*
X96172704Y-114964771D01*
X96258418Y-114964771D01*
X96315561Y-114993342D01*
X96344132Y-115021913D01*
X96372704Y-115079056D01*
X96372704Y-115307628D01*
X96658418Y-114393342D02*
X96658418Y-114736199D01*
X96658418Y-114564771D02*
X96058418Y-114564771D01*
X96144132Y-114621913D01*
X96201275Y-114679056D01*
X96229847Y-114736199D01*
%TO.C,C16*%
X114789275Y-112191556D02*
X114760704Y-112220128D01*
X114674990Y-112248699D01*
X114617847Y-112248699D01*
X114532132Y-112220128D01*
X114474990Y-112162985D01*
X114446418Y-112105842D01*
X114417847Y-111991556D01*
X114417847Y-111905842D01*
X114446418Y-111791556D01*
X114474990Y-111734413D01*
X114532132Y-111677271D01*
X114617847Y-111648699D01*
X114674990Y-111648699D01*
X114760704Y-111677271D01*
X114789275Y-111705842D01*
X115360704Y-112248699D02*
X115017847Y-112248699D01*
X115189275Y-112248699D02*
X115189275Y-111648699D01*
X115132132Y-111734413D01*
X115074990Y-111791556D01*
X115017847Y-111820128D01*
X115874990Y-111648699D02*
X115760704Y-111648699D01*
X115703561Y-111677271D01*
X115674990Y-111705842D01*
X115617847Y-111791556D01*
X115589275Y-111905842D01*
X115589275Y-112134413D01*
X115617847Y-112191556D01*
X115646418Y-112220128D01*
X115703561Y-112248699D01*
X115817847Y-112248699D01*
X115874990Y-112220128D01*
X115903561Y-112191556D01*
X115932132Y-112134413D01*
X115932132Y-111991556D01*
X115903561Y-111934413D01*
X115874990Y-111905842D01*
X115817847Y-111877271D01*
X115703561Y-111877271D01*
X115646418Y-111905842D01*
X115617847Y-111934413D01*
X115589275Y-111991556D01*
%TO.C,C17*%
X105902275Y-118158871D02*
X105930847Y-118187442D01*
X105959418Y-118273157D01*
X105959418Y-118330299D01*
X105930847Y-118416014D01*
X105873704Y-118473157D01*
X105816561Y-118501728D01*
X105702275Y-118530299D01*
X105616561Y-118530299D01*
X105502275Y-118501728D01*
X105445132Y-118473157D01*
X105387990Y-118416014D01*
X105359418Y-118330299D01*
X105359418Y-118273157D01*
X105387990Y-118187442D01*
X105416561Y-118158871D01*
X105959418Y-117587442D02*
X105959418Y-117930299D01*
X105959418Y-117758871D02*
X105359418Y-117758871D01*
X105445132Y-117816014D01*
X105502275Y-117873157D01*
X105530847Y-117930299D01*
X105359418Y-117387442D02*
X105359418Y-116987442D01*
X105959418Y-117244585D01*
%TO.C,J1*%
X132508990Y-96602199D02*
X132508990Y-97030771D01*
X132480418Y-97116485D01*
X132423275Y-97173628D01*
X132337561Y-97202199D01*
X132280418Y-97202199D01*
X133108990Y-97202199D02*
X132766132Y-97202199D01*
X132937561Y-97202199D02*
X132937561Y-96602199D01*
X132880418Y-96687913D01*
X132823275Y-96745056D01*
X132766132Y-96773628D01*
%TO.C,Q3*%
X116802347Y-104698842D02*
X116745204Y-104670271D01*
X116688061Y-104613128D01*
X116602347Y-104527413D01*
X116545204Y-104498842D01*
X116488061Y-104498842D01*
X116516632Y-104641699D02*
X116459490Y-104613128D01*
X116402347Y-104555985D01*
X116373775Y-104441699D01*
X116373775Y-104241699D01*
X116402347Y-104127413D01*
X116459490Y-104070271D01*
X116516632Y-104041699D01*
X116630918Y-104041699D01*
X116688061Y-104070271D01*
X116745204Y-104127413D01*
X116773775Y-104241699D01*
X116773775Y-104441699D01*
X116745204Y-104555985D01*
X116688061Y-104613128D01*
X116630918Y-104641699D01*
X116516632Y-104641699D01*
X116973775Y-104041699D02*
X117345204Y-104041699D01*
X117145204Y-104270271D01*
X117230918Y-104270271D01*
X117288061Y-104298842D01*
X117316632Y-104327413D01*
X117345204Y-104384556D01*
X117345204Y-104527413D01*
X117316632Y-104584556D01*
X117288061Y-104613128D01*
X117230918Y-104641699D01*
X117059490Y-104641699D01*
X117002347Y-104613128D01*
X116973775Y-104584556D01*
%TO.C,R21*%
X119035918Y-102215985D02*
X118750204Y-102415985D01*
X119035918Y-102558842D02*
X118435918Y-102558842D01*
X118435918Y-102330271D01*
X118464490Y-102273128D01*
X118493061Y-102244556D01*
X118550204Y-102215985D01*
X118635918Y-102215985D01*
X118693061Y-102244556D01*
X118721632Y-102273128D01*
X118750204Y-102330271D01*
X118750204Y-102558842D01*
X118493061Y-101987413D02*
X118464490Y-101958842D01*
X118435918Y-101901699D01*
X118435918Y-101758842D01*
X118464490Y-101701699D01*
X118493061Y-101673128D01*
X118550204Y-101644556D01*
X118607347Y-101644556D01*
X118693061Y-101673128D01*
X119035918Y-102015985D01*
X119035918Y-101644556D01*
X119035918Y-101073128D02*
X119035918Y-101415985D01*
X119035918Y-101244556D02*
X118435918Y-101244556D01*
X118521632Y-101301699D01*
X118578775Y-101358842D01*
X118607347Y-101415985D01*
%TO.C,C1*%
X98125275Y-114964771D02*
X98153847Y-114993342D01*
X98182418Y-115079056D01*
X98182418Y-115136199D01*
X98153847Y-115221913D01*
X98096704Y-115279056D01*
X98039561Y-115307628D01*
X97925275Y-115336199D01*
X97839561Y-115336199D01*
X97725275Y-115307628D01*
X97668132Y-115279056D01*
X97610990Y-115221913D01*
X97582418Y-115136199D01*
X97582418Y-115079056D01*
X97610990Y-114993342D01*
X97639561Y-114964771D01*
X98182418Y-114393342D02*
X98182418Y-114736199D01*
X98182418Y-114564771D02*
X97582418Y-114564771D01*
X97668132Y-114621913D01*
X97725275Y-114679056D01*
X97753847Y-114736199D01*
%TO.C,C22*%
X105919775Y-107249371D02*
X105948347Y-107277942D01*
X105976918Y-107363657D01*
X105976918Y-107420799D01*
X105948347Y-107506514D01*
X105891204Y-107563657D01*
X105834061Y-107592228D01*
X105719775Y-107620799D01*
X105634061Y-107620799D01*
X105519775Y-107592228D01*
X105462632Y-107563657D01*
X105405490Y-107506514D01*
X105376918Y-107420799D01*
X105376918Y-107363657D01*
X105405490Y-107277942D01*
X105434061Y-107249371D01*
X105434061Y-107020799D02*
X105405490Y-106992228D01*
X105376918Y-106935085D01*
X105376918Y-106792228D01*
X105405490Y-106735085D01*
X105434061Y-106706514D01*
X105491204Y-106677942D01*
X105548347Y-106677942D01*
X105634061Y-106706514D01*
X105976918Y-107049371D01*
X105976918Y-106677942D01*
X105434061Y-106449371D02*
X105405490Y-106420799D01*
X105376918Y-106363657D01*
X105376918Y-106220799D01*
X105405490Y-106163657D01*
X105434061Y-106135085D01*
X105491204Y-106106514D01*
X105548347Y-106106514D01*
X105634061Y-106135085D01*
X105976918Y-106477942D01*
X105976918Y-106106514D01*
%TO.C,C9*%
X102158990Y-101616942D02*
X102130418Y-101645514D01*
X102044704Y-101674085D01*
X101987561Y-101674085D01*
X101901847Y-101645514D01*
X101844704Y-101588371D01*
X101816132Y-101531228D01*
X101787561Y-101416942D01*
X101787561Y-101331228D01*
X101816132Y-101216942D01*
X101844704Y-101159799D01*
X101901847Y-101102657D01*
X101987561Y-101074085D01*
X102044704Y-101074085D01*
X102130418Y-101102657D01*
X102158990Y-101131228D01*
X102444704Y-101674085D02*
X102558990Y-101674085D01*
X102616132Y-101645514D01*
X102644704Y-101616942D01*
X102701847Y-101531228D01*
X102730418Y-101416942D01*
X102730418Y-101188371D01*
X102701847Y-101131228D01*
X102673275Y-101102657D01*
X102616132Y-101074085D01*
X102501847Y-101074085D01*
X102444704Y-101102657D01*
X102416132Y-101131228D01*
X102387561Y-101188371D01*
X102387561Y-101331228D01*
X102416132Y-101388371D01*
X102444704Y-101416942D01*
X102501847Y-101445514D01*
X102616132Y-101445514D01*
X102673275Y-101416942D01*
X102701847Y-101388371D01*
X102730418Y-101331228D01*
%TO.C,U3*%
X117253668Y-117361413D02*
X117739382Y-117361413D01*
X117796525Y-117332842D01*
X117825097Y-117304271D01*
X117853668Y-117247128D01*
X117853668Y-117132842D01*
X117825097Y-117075699D01*
X117796525Y-117047128D01*
X117739382Y-117018556D01*
X117253668Y-117018556D01*
X117253668Y-116789985D02*
X117253668Y-116418556D01*
X117482240Y-116618556D01*
X117482240Y-116532842D01*
X117510811Y-116475699D01*
X117539382Y-116447128D01*
X117596525Y-116418556D01*
X117739382Y-116418556D01*
X117796525Y-116447128D01*
X117825097Y-116475699D01*
X117853668Y-116532842D01*
X117853668Y-116704271D01*
X117825097Y-116761413D01*
X117796525Y-116789985D01*
%TO.C,J6*%
D13*
X107904370Y-98104104D02*
X108618656Y-98104104D01*
X108761513Y-98151723D01*
X108856751Y-98246961D01*
X108904370Y-98389818D01*
X108904370Y-98485056D01*
X107904370Y-97199342D02*
X107904370Y-97389818D01*
X107951990Y-97485056D01*
X107999609Y-97532675D01*
X108142466Y-97627913D01*
X108332942Y-97675532D01*
X108713894Y-97675532D01*
X108809132Y-97627913D01*
X108856751Y-97580294D01*
X108904370Y-97485056D01*
X108904370Y-97294580D01*
X108856751Y-97199342D01*
X108809132Y-97151723D01*
X108713894Y-97104104D01*
X108475799Y-97104104D01*
X108380561Y-97151723D01*
X108332942Y-97199342D01*
X108285323Y-97294580D01*
X108285323Y-97485056D01*
X108332942Y-97580294D01*
X108380561Y-97627913D01*
X108475799Y-97675532D01*
%TO.C,R20*%
D12*
X115200418Y-102215985D02*
X114914704Y-102415985D01*
X115200418Y-102558842D02*
X114600418Y-102558842D01*
X114600418Y-102330271D01*
X114628990Y-102273128D01*
X114657561Y-102244556D01*
X114714704Y-102215985D01*
X114800418Y-102215985D01*
X114857561Y-102244556D01*
X114886132Y-102273128D01*
X114914704Y-102330271D01*
X114914704Y-102558842D01*
X114657561Y-101987413D02*
X114628990Y-101958842D01*
X114600418Y-101901699D01*
X114600418Y-101758842D01*
X114628990Y-101701699D01*
X114657561Y-101673128D01*
X114714704Y-101644556D01*
X114771847Y-101644556D01*
X114857561Y-101673128D01*
X115200418Y-102015985D01*
X115200418Y-101644556D01*
X114600418Y-101273128D02*
X114600418Y-101215985D01*
X114628990Y-101158842D01*
X114657561Y-101130271D01*
X114714704Y-101101699D01*
X114828990Y-101073128D01*
X114971847Y-101073128D01*
X115086132Y-101101699D01*
X115143275Y-101130271D01*
X115171847Y-101158842D01*
X115200418Y-101215985D01*
X115200418Y-101273128D01*
X115171847Y-101330271D01*
X115143275Y-101358842D01*
X115086132Y-101387413D01*
X114971847Y-101415985D01*
X114828990Y-101415985D01*
X114714704Y-101387413D01*
X114657561Y-101358842D01*
X114628990Y-101330271D01*
X114600418Y-101273128D01*
%TO.C,J2*%
X123356990Y-112410699D02*
X123356990Y-112839271D01*
X123328418Y-112924985D01*
X123271275Y-112982128D01*
X123185561Y-113010699D01*
X123128418Y-113010699D01*
X123614132Y-112467842D02*
X123642704Y-112439271D01*
X123699847Y-112410699D01*
X123842704Y-112410699D01*
X123899847Y-112439271D01*
X123928418Y-112467842D01*
X123956990Y-112524985D01*
X123956990Y-112582128D01*
X123928418Y-112667842D01*
X123585561Y-113010699D01*
X123956990Y-113010699D01*
%TO.C,Y1*%
X116421275Y-125512485D02*
X116421275Y-125798199D01*
X116221275Y-125198199D02*
X116421275Y-125512485D01*
X116621275Y-125198199D01*
X117135561Y-125798199D02*
X116792704Y-125798199D01*
X116964132Y-125798199D02*
X116964132Y-125198199D01*
X116906990Y-125283913D01*
X116849847Y-125341056D01*
X116792704Y-125369628D01*
%TO.C,C18*%
X109729775Y-101915371D02*
X109758347Y-101943942D01*
X109786918Y-102029657D01*
X109786918Y-102086799D01*
X109758347Y-102172514D01*
X109701204Y-102229657D01*
X109644061Y-102258228D01*
X109529775Y-102286799D01*
X109444061Y-102286799D01*
X109329775Y-102258228D01*
X109272632Y-102229657D01*
X109215490Y-102172514D01*
X109186918Y-102086799D01*
X109186918Y-102029657D01*
X109215490Y-101943942D01*
X109244061Y-101915371D01*
X109786918Y-101343942D02*
X109786918Y-101686799D01*
X109786918Y-101515371D02*
X109186918Y-101515371D01*
X109272632Y-101572514D01*
X109329775Y-101629657D01*
X109358347Y-101686799D01*
X109444061Y-101001085D02*
X109415490Y-101058228D01*
X109386918Y-101086799D01*
X109329775Y-101115371D01*
X109301204Y-101115371D01*
X109244061Y-101086799D01*
X109215490Y-101058228D01*
X109186918Y-101001085D01*
X109186918Y-100886799D01*
X109215490Y-100829657D01*
X109244061Y-100801085D01*
X109301204Y-100772514D01*
X109329775Y-100772514D01*
X109386918Y-100801085D01*
X109415490Y-100829657D01*
X109444061Y-100886799D01*
X109444061Y-101001085D01*
X109472632Y-101058228D01*
X109501204Y-101086799D01*
X109558347Y-101115371D01*
X109672632Y-101115371D01*
X109729775Y-101086799D01*
X109758347Y-101058228D01*
X109786918Y-101001085D01*
X109786918Y-100886799D01*
X109758347Y-100829657D01*
X109729775Y-100801085D01*
X109672632Y-100772514D01*
X109558347Y-100772514D01*
X109501204Y-100801085D01*
X109472632Y-100829657D01*
X109444061Y-100886799D01*
%TO.C,R14*%
X103709775Y-107811085D02*
X103509775Y-107525371D01*
X103366918Y-107811085D02*
X103366918Y-107211085D01*
X103595490Y-107211085D01*
X103652632Y-107239657D01*
X103681204Y-107268228D01*
X103709775Y-107325371D01*
X103709775Y-107411085D01*
X103681204Y-107468228D01*
X103652632Y-107496799D01*
X103595490Y-107525371D01*
X103366918Y-107525371D01*
X104281204Y-107811085D02*
X103938347Y-107811085D01*
X104109775Y-107811085D02*
X104109775Y-107211085D01*
X104052632Y-107296799D01*
X103995490Y-107353942D01*
X103938347Y-107382514D01*
X104795490Y-107411085D02*
X104795490Y-107811085D01*
X104652632Y-107182514D02*
X104509775Y-107611085D01*
X104881204Y-107611085D01*
%TO.C,R6*%
X103681668Y-118406157D02*
X103395954Y-118606157D01*
X103681668Y-118749014D02*
X103081668Y-118749014D01*
X103081668Y-118520442D01*
X103110240Y-118463299D01*
X103138811Y-118434728D01*
X103195954Y-118406157D01*
X103281668Y-118406157D01*
X103338811Y-118434728D01*
X103367382Y-118463299D01*
X103395954Y-118520442D01*
X103395954Y-118749014D01*
X103081668Y-117891871D02*
X103081668Y-118006157D01*
X103110240Y-118063299D01*
X103138811Y-118091871D01*
X103224525Y-118149014D01*
X103338811Y-118177585D01*
X103567382Y-118177585D01*
X103624525Y-118149014D01*
X103653097Y-118120442D01*
X103681668Y-118063299D01*
X103681668Y-117949014D01*
X103653097Y-117891871D01*
X103624525Y-117863299D01*
X103567382Y-117834728D01*
X103424525Y-117834728D01*
X103367382Y-117863299D01*
X103338811Y-117891871D01*
X103310240Y-117949014D01*
X103310240Y-118063299D01*
X103338811Y-118120442D01*
X103367382Y-118149014D01*
X103424525Y-118177585D01*
%TO.C,R19*%
X114035275Y-107186199D02*
X113835275Y-106900485D01*
X113692418Y-107186199D02*
X113692418Y-106586199D01*
X113920990Y-106586199D01*
X113978132Y-106614771D01*
X114006704Y-106643342D01*
X114035275Y-106700485D01*
X114035275Y-106786199D01*
X114006704Y-106843342D01*
X113978132Y-106871913D01*
X113920990Y-106900485D01*
X113692418Y-106900485D01*
X114606704Y-107186199D02*
X114263847Y-107186199D01*
X114435275Y-107186199D02*
X114435275Y-106586199D01*
X114378132Y-106671913D01*
X114320990Y-106729056D01*
X114263847Y-106757628D01*
X114892418Y-107186199D02*
X115006704Y-107186199D01*
X115063847Y-107157628D01*
X115092418Y-107129056D01*
X115149561Y-107043342D01*
X115178132Y-106929056D01*
X115178132Y-106700485D01*
X115149561Y-106643342D01*
X115120990Y-106614771D01*
X115063847Y-106586199D01*
X114949561Y-106586199D01*
X114892418Y-106614771D01*
X114863847Y-106643342D01*
X114835275Y-106700485D01*
X114835275Y-106843342D01*
X114863847Y-106900485D01*
X114892418Y-106929056D01*
X114949561Y-106957628D01*
X115063847Y-106957628D01*
X115120990Y-106929056D01*
X115149561Y-106900485D01*
X115178132Y-106843342D01*
%TO.C,C4*%
X144861275Y-73740771D02*
X144889847Y-73769342D01*
X144918418Y-73855056D01*
X144918418Y-73912199D01*
X144889847Y-73997913D01*
X144832704Y-74055056D01*
X144775561Y-74083628D01*
X144661275Y-74112199D01*
X144575561Y-74112199D01*
X144461275Y-74083628D01*
X144404132Y-74055056D01*
X144346990Y-73997913D01*
X144318418Y-73912199D01*
X144318418Y-73855056D01*
X144346990Y-73769342D01*
X144375561Y-73740771D01*
X144518418Y-73226485D02*
X144918418Y-73226485D01*
X144289847Y-73369342D02*
X144718418Y-73512199D01*
X144718418Y-73140771D01*
%TO.C,Q4*%
X124422347Y-104698842D02*
X124365204Y-104670271D01*
X124308061Y-104613128D01*
X124222347Y-104527413D01*
X124165204Y-104498842D01*
X124108061Y-104498842D01*
X124136632Y-104641699D02*
X124079490Y-104613128D01*
X124022347Y-104555985D01*
X123993775Y-104441699D01*
X123993775Y-104241699D01*
X124022347Y-104127413D01*
X124079490Y-104070271D01*
X124136632Y-104041699D01*
X124250918Y-104041699D01*
X124308061Y-104070271D01*
X124365204Y-104127413D01*
X124393775Y-104241699D01*
X124393775Y-104441699D01*
X124365204Y-104555985D01*
X124308061Y-104613128D01*
X124250918Y-104641699D01*
X124136632Y-104641699D01*
X124908061Y-104241699D02*
X124908061Y-104641699D01*
X124765204Y-104013128D02*
X124622347Y-104441699D01*
X124993775Y-104441699D01*
%TO.C,C3*%
X93150240Y-124222942D02*
X93121668Y-124251514D01*
X93035954Y-124280085D01*
X92978811Y-124280085D01*
X92893097Y-124251514D01*
X92835954Y-124194371D01*
X92807382Y-124137228D01*
X92778811Y-124022942D01*
X92778811Y-123937228D01*
X92807382Y-123822942D01*
X92835954Y-123765799D01*
X92893097Y-123708657D01*
X92978811Y-123680085D01*
X93035954Y-123680085D01*
X93121668Y-123708657D01*
X93150240Y-123737228D01*
X93350240Y-123680085D02*
X93721668Y-123680085D01*
X93521668Y-123908657D01*
X93607382Y-123908657D01*
X93664525Y-123937228D01*
X93693097Y-123965799D01*
X93721668Y-124022942D01*
X93721668Y-124165799D01*
X93693097Y-124222942D01*
X93664525Y-124251514D01*
X93607382Y-124280085D01*
X93435954Y-124280085D01*
X93378811Y-124251514D01*
X93350240Y-124222942D01*
%TO.C,R4*%
X81408418Y-73613771D02*
X81122704Y-73813771D01*
X81408418Y-73956628D02*
X80808418Y-73956628D01*
X80808418Y-73728056D01*
X80836990Y-73670913D01*
X80865561Y-73642342D01*
X80922704Y-73613771D01*
X81008418Y-73613771D01*
X81065561Y-73642342D01*
X81094132Y-73670913D01*
X81122704Y-73728056D01*
X81122704Y-73956628D01*
X81008418Y-73099485D02*
X81408418Y-73099485D01*
X80779847Y-73242342D02*
X81208418Y-73385199D01*
X81208418Y-73013771D01*
%TO.C,LS1*%
X79386418Y-64628485D02*
X79386418Y-64914199D01*
X78786418Y-64914199D01*
X79357847Y-64457056D02*
X79386418Y-64371342D01*
X79386418Y-64228485D01*
X79357847Y-64171342D01*
X79329275Y-64142771D01*
X79272132Y-64114199D01*
X79214990Y-64114199D01*
X79157847Y-64142771D01*
X79129275Y-64171342D01*
X79100704Y-64228485D01*
X79072132Y-64342771D01*
X79043561Y-64399913D01*
X79014990Y-64428485D01*
X78957847Y-64457056D01*
X78900704Y-64457056D01*
X78843561Y-64428485D01*
X78814990Y-64399913D01*
X78786418Y-64342771D01*
X78786418Y-64199913D01*
X78814990Y-64114199D01*
X79386418Y-63542771D02*
X79386418Y-63885628D01*
X79386418Y-63714199D02*
X78786418Y-63714199D01*
X78872132Y-63771342D01*
X78929275Y-63828485D01*
X78957847Y-63885628D01*
%TO.C,C14*%
X108061275Y-109205485D02*
X108089847Y-109234056D01*
X108118418Y-109319771D01*
X108118418Y-109376913D01*
X108089847Y-109462628D01*
X108032704Y-109519771D01*
X107975561Y-109548342D01*
X107861275Y-109576913D01*
X107775561Y-109576913D01*
X107661275Y-109548342D01*
X107604132Y-109519771D01*
X107546990Y-109462628D01*
X107518418Y-109376913D01*
X107518418Y-109319771D01*
X107546990Y-109234056D01*
X107575561Y-109205485D01*
X108118418Y-108634056D02*
X108118418Y-108976913D01*
X108118418Y-108805485D02*
X107518418Y-108805485D01*
X107604132Y-108862628D01*
X107661275Y-108919771D01*
X107689847Y-108976913D01*
X107718418Y-108119771D02*
X108118418Y-108119771D01*
X107489847Y-108262628D02*
X107918418Y-108405485D01*
X107918418Y-108034056D01*
%TO.C,U5*%
X107264418Y-115575799D02*
X107750132Y-115575799D01*
X107807275Y-115547228D01*
X107835847Y-115518657D01*
X107864418Y-115461514D01*
X107864418Y-115347228D01*
X107835847Y-115290085D01*
X107807275Y-115261514D01*
X107750132Y-115232942D01*
X107264418Y-115232942D01*
X107264418Y-114661514D02*
X107264418Y-114947228D01*
X107550132Y-114975799D01*
X107521561Y-114947228D01*
X107492990Y-114890085D01*
X107492990Y-114747228D01*
X107521561Y-114690085D01*
X107550132Y-114661514D01*
X107607275Y-114632942D01*
X107750132Y-114632942D01*
X107807275Y-114661514D01*
X107835847Y-114690085D01*
X107864418Y-114747228D01*
X107864418Y-114890085D01*
X107835847Y-114947228D01*
X107807275Y-114975799D01*
%TO.C,C10*%
X117464275Y-128592056D02*
X117435704Y-128620628D01*
X117349990Y-128649199D01*
X117292847Y-128649199D01*
X117207132Y-128620628D01*
X117149990Y-128563485D01*
X117121418Y-128506342D01*
X117092847Y-128392056D01*
X117092847Y-128306342D01*
X117121418Y-128192056D01*
X117149990Y-128134913D01*
X117207132Y-128077771D01*
X117292847Y-128049199D01*
X117349990Y-128049199D01*
X117435704Y-128077771D01*
X117464275Y-128106342D01*
X118035704Y-128649199D02*
X117692847Y-128649199D01*
X117864275Y-128649199D02*
X117864275Y-128049199D01*
X117807132Y-128134913D01*
X117749990Y-128192056D01*
X117692847Y-128220628D01*
X118407132Y-128049199D02*
X118464275Y-128049199D01*
X118521418Y-128077771D01*
X118549990Y-128106342D01*
X118578561Y-128163485D01*
X118607132Y-128277771D01*
X118607132Y-128420628D01*
X118578561Y-128534913D01*
X118549990Y-128592056D01*
X118521418Y-128620628D01*
X118464275Y-128649199D01*
X118407132Y-128649199D01*
X118349990Y-128620628D01*
X118321418Y-128592056D01*
X118292847Y-128534913D01*
X118264275Y-128420628D01*
X118264275Y-128277771D01*
X118292847Y-128163485D01*
X118321418Y-128106342D01*
X118349990Y-128077771D01*
X118407132Y-128049199D01*
%TO.C,R7*%
X143394418Y-73740771D02*
X143108704Y-73940771D01*
X143394418Y-74083628D02*
X142794418Y-74083628D01*
X142794418Y-73855056D01*
X142822990Y-73797913D01*
X142851561Y-73769342D01*
X142908704Y-73740771D01*
X142994418Y-73740771D01*
X143051561Y-73769342D01*
X143080132Y-73797913D01*
X143108704Y-73855056D01*
X143108704Y-74083628D01*
X142794418Y-73540771D02*
X142794418Y-73140771D01*
X143394418Y-73397913D01*
%TO.C,C13*%
X104794275Y-120412942D02*
X104765704Y-120441514D01*
X104679990Y-120470085D01*
X104622847Y-120470085D01*
X104537132Y-120441514D01*
X104479990Y-120384371D01*
X104451418Y-120327228D01*
X104422847Y-120212942D01*
X104422847Y-120127228D01*
X104451418Y-120012942D01*
X104479990Y-119955799D01*
X104537132Y-119898657D01*
X104622847Y-119870085D01*
X104679990Y-119870085D01*
X104765704Y-119898657D01*
X104794275Y-119927228D01*
X105365704Y-120470085D02*
X105022847Y-120470085D01*
X105194275Y-120470085D02*
X105194275Y-119870085D01*
X105137132Y-119955799D01*
X105079990Y-120012942D01*
X105022847Y-120041514D01*
X105565704Y-119870085D02*
X105937132Y-119870085D01*
X105737132Y-120098657D01*
X105822847Y-120098657D01*
X105879990Y-120127228D01*
X105908561Y-120155799D01*
X105937132Y-120212942D01*
X105937132Y-120355799D01*
X105908561Y-120412942D01*
X105879990Y-120441514D01*
X105822847Y-120470085D01*
X105651418Y-120470085D01*
X105594275Y-120441514D01*
X105565704Y-120412942D01*
%TO.C,R10*%
X103681668Y-121866871D02*
X103395954Y-122066871D01*
X103681668Y-122209728D02*
X103081668Y-122209728D01*
X103081668Y-121981157D01*
X103110240Y-121924014D01*
X103138811Y-121895442D01*
X103195954Y-121866871D01*
X103281668Y-121866871D01*
X103338811Y-121895442D01*
X103367382Y-121924014D01*
X103395954Y-121981157D01*
X103395954Y-122209728D01*
X103681668Y-121295442D02*
X103681668Y-121638299D01*
X103681668Y-121466871D02*
X103081668Y-121466871D01*
X103167382Y-121524014D01*
X103224525Y-121581157D01*
X103253097Y-121638299D01*
X103081668Y-120924014D02*
X103081668Y-120866871D01*
X103110240Y-120809728D01*
X103138811Y-120781157D01*
X103195954Y-120752585D01*
X103310240Y-120724014D01*
X103453097Y-120724014D01*
X103567382Y-120752585D01*
X103624525Y-120781157D01*
X103653097Y-120809728D01*
X103681668Y-120866871D01*
X103681668Y-120924014D01*
X103653097Y-120981157D01*
X103624525Y-121009728D01*
X103567382Y-121038299D01*
X103453097Y-121066871D01*
X103310240Y-121066871D01*
X103195954Y-121038299D01*
X103138811Y-121009728D01*
X103110240Y-120981157D01*
X103081668Y-120924014D01*
%TO.C,R15*%
X129529275Y-110234199D02*
X129329275Y-109948485D01*
X129186418Y-110234199D02*
X129186418Y-109634199D01*
X129414990Y-109634199D01*
X129472132Y-109662771D01*
X129500704Y-109691342D01*
X129529275Y-109748485D01*
X129529275Y-109834199D01*
X129500704Y-109891342D01*
X129472132Y-109919913D01*
X129414990Y-109948485D01*
X129186418Y-109948485D01*
X130100704Y-110234199D02*
X129757847Y-110234199D01*
X129929275Y-110234199D02*
X129929275Y-109634199D01*
X129872132Y-109719913D01*
X129814990Y-109777056D01*
X129757847Y-109805628D01*
X130643561Y-109634199D02*
X130357847Y-109634199D01*
X130329275Y-109919913D01*
X130357847Y-109891342D01*
X130414990Y-109862771D01*
X130557847Y-109862771D01*
X130614990Y-109891342D01*
X130643561Y-109919913D01*
X130672132Y-109977056D01*
X130672132Y-110119913D01*
X130643561Y-110177056D01*
X130614990Y-110205628D01*
X130557847Y-110234199D01*
X130414990Y-110234199D01*
X130357847Y-110205628D01*
X130329275Y-110177056D01*
%TO.C,Q1*%
X120612347Y-104698842D02*
X120555204Y-104670271D01*
X120498061Y-104613128D01*
X120412347Y-104527413D01*
X120355204Y-104498842D01*
X120298061Y-104498842D01*
X120326632Y-104641699D02*
X120269490Y-104613128D01*
X120212347Y-104555985D01*
X120183775Y-104441699D01*
X120183775Y-104241699D01*
X120212347Y-104127413D01*
X120269490Y-104070271D01*
X120326632Y-104041699D01*
X120440918Y-104041699D01*
X120498061Y-104070271D01*
X120555204Y-104127413D01*
X120583775Y-104241699D01*
X120583775Y-104441699D01*
X120555204Y-104555985D01*
X120498061Y-104613128D01*
X120440918Y-104641699D01*
X120326632Y-104641699D01*
X121155204Y-104641699D02*
X120812347Y-104641699D01*
X120983775Y-104641699D02*
X120983775Y-104041699D01*
X120926632Y-104127413D01*
X120869490Y-104184556D01*
X120812347Y-104213128D01*
%TO.C,U2*%
X97238097Y-119882585D02*
X97238097Y-120368299D01*
X97266668Y-120425442D01*
X97295240Y-120454014D01*
X97352382Y-120482585D01*
X97466668Y-120482585D01*
X97523811Y-120454014D01*
X97552382Y-120425442D01*
X97580954Y-120368299D01*
X97580954Y-119882585D01*
X97838097Y-119939728D02*
X97866668Y-119911157D01*
X97923811Y-119882585D01*
X98066668Y-119882585D01*
X98123811Y-119911157D01*
X98152382Y-119939728D01*
X98180954Y-119996871D01*
X98180954Y-120054014D01*
X98152382Y-120139728D01*
X97809525Y-120482585D01*
X98180954Y-120482585D01*
%TO.C,Q2*%
X128232347Y-104698842D02*
X128175204Y-104670271D01*
X128118061Y-104613128D01*
X128032347Y-104527413D01*
X127975204Y-104498842D01*
X127918061Y-104498842D01*
X127946632Y-104641699D02*
X127889490Y-104613128D01*
X127832347Y-104555985D01*
X127803775Y-104441699D01*
X127803775Y-104241699D01*
X127832347Y-104127413D01*
X127889490Y-104070271D01*
X127946632Y-104041699D01*
X128060918Y-104041699D01*
X128118061Y-104070271D01*
X128175204Y-104127413D01*
X128203775Y-104241699D01*
X128203775Y-104441699D01*
X128175204Y-104555985D01*
X128118061Y-104613128D01*
X128060918Y-104641699D01*
X127946632Y-104641699D01*
X128432347Y-104098842D02*
X128460918Y-104070271D01*
X128518061Y-104041699D01*
X128660918Y-104041699D01*
X128718061Y-104070271D01*
X128746632Y-104098842D01*
X128775204Y-104155985D01*
X128775204Y-104213128D01*
X128746632Y-104298842D01*
X128403775Y-104641699D01*
X128775204Y-104641699D01*
%TO.C,C11*%
X104794275Y-121936942D02*
X104765704Y-121965514D01*
X104679990Y-121994085D01*
X104622847Y-121994085D01*
X104537132Y-121965514D01*
X104479990Y-121908371D01*
X104451418Y-121851228D01*
X104422847Y-121736942D01*
X104422847Y-121651228D01*
X104451418Y-121536942D01*
X104479990Y-121479799D01*
X104537132Y-121422657D01*
X104622847Y-121394085D01*
X104679990Y-121394085D01*
X104765704Y-121422657D01*
X104794275Y-121451228D01*
X105365704Y-121994085D02*
X105022847Y-121994085D01*
X105194275Y-121994085D02*
X105194275Y-121394085D01*
X105137132Y-121479799D01*
X105079990Y-121536942D01*
X105022847Y-121565514D01*
X105937132Y-121994085D02*
X105594275Y-121994085D01*
X105765704Y-121994085D02*
X105765704Y-121394085D01*
X105708561Y-121479799D01*
X105651418Y-121536942D01*
X105594275Y-121565514D01*
%TO.C,C2*%
X79837275Y-73613771D02*
X79865847Y-73642342D01*
X79894418Y-73728056D01*
X79894418Y-73785199D01*
X79865847Y-73870913D01*
X79808704Y-73928056D01*
X79751561Y-73956628D01*
X79637275Y-73985199D01*
X79551561Y-73985199D01*
X79437275Y-73956628D01*
X79380132Y-73928056D01*
X79322990Y-73870913D01*
X79294418Y-73785199D01*
X79294418Y-73728056D01*
X79322990Y-73642342D01*
X79351561Y-73613771D01*
X79351561Y-73385199D02*
X79322990Y-73356628D01*
X79294418Y-73299485D01*
X79294418Y-73156628D01*
X79322990Y-73099485D01*
X79351561Y-73070913D01*
X79408704Y-73042342D01*
X79465847Y-73042342D01*
X79551561Y-73070913D01*
X79894418Y-73413771D01*
X79894418Y-73042342D01*
%TO.C,J3*%
X113457418Y-99166521D02*
X113885990Y-99166521D01*
X113971704Y-99195092D01*
X114028847Y-99252235D01*
X114057418Y-99337949D01*
X114057418Y-99395092D01*
X113457418Y-98937949D02*
X113457418Y-98566521D01*
X113685990Y-98766521D01*
X113685990Y-98680806D01*
X113714561Y-98623663D01*
X113743132Y-98595092D01*
X113800275Y-98566521D01*
X113943132Y-98566521D01*
X114000275Y-98595092D01*
X114028847Y-98623663D01*
X114057418Y-98680806D01*
X114057418Y-98852235D01*
X114028847Y-98909378D01*
X114000275Y-98937949D01*
%TO.C,R3*%
X105333990Y-124712199D02*
X105133990Y-124426485D01*
X104991132Y-124712199D02*
X104991132Y-124112199D01*
X105219704Y-124112199D01*
X105276847Y-124140771D01*
X105305418Y-124169342D01*
X105333990Y-124226485D01*
X105333990Y-124312199D01*
X105305418Y-124369342D01*
X105276847Y-124397913D01*
X105219704Y-124426485D01*
X104991132Y-124426485D01*
X105533990Y-124112199D02*
X105905418Y-124112199D01*
X105705418Y-124340771D01*
X105791132Y-124340771D01*
X105848275Y-124369342D01*
X105876847Y-124397913D01*
X105905418Y-124455056D01*
X105905418Y-124597913D01*
X105876847Y-124655056D01*
X105848275Y-124683628D01*
X105791132Y-124712199D01*
X105619704Y-124712199D01*
X105562561Y-124683628D01*
X105533990Y-124655056D01*
%TO.C,C20*%
X107207275Y-111776942D02*
X107178704Y-111805514D01*
X107092990Y-111834085D01*
X107035847Y-111834085D01*
X106950132Y-111805514D01*
X106892990Y-111748371D01*
X106864418Y-111691228D01*
X106835847Y-111576942D01*
X106835847Y-111491228D01*
X106864418Y-111376942D01*
X106892990Y-111319799D01*
X106950132Y-111262657D01*
X107035847Y-111234085D01*
X107092990Y-111234085D01*
X107178704Y-111262657D01*
X107207275Y-111291228D01*
X107435847Y-111291228D02*
X107464418Y-111262657D01*
X107521561Y-111234085D01*
X107664418Y-111234085D01*
X107721561Y-111262657D01*
X107750132Y-111291228D01*
X107778704Y-111348371D01*
X107778704Y-111405514D01*
X107750132Y-111491228D01*
X107407275Y-111834085D01*
X107778704Y-111834085D01*
X108150132Y-111234085D02*
X108207275Y-111234085D01*
X108264418Y-111262657D01*
X108292990Y-111291228D01*
X108321561Y-111348371D01*
X108350132Y-111462657D01*
X108350132Y-111605514D01*
X108321561Y-111719799D01*
X108292990Y-111776942D01*
X108264418Y-111805514D01*
X108207275Y-111834085D01*
X108150132Y-111834085D01*
X108092990Y-111805514D01*
X108064418Y-111776942D01*
X108035847Y-111719799D01*
X108007275Y-111605514D01*
X108007275Y-111462657D01*
X108035847Y-111348371D01*
X108064418Y-111291228D01*
X108092990Y-111262657D01*
X108150132Y-111234085D01*
%TO.C,R12*%
X102516525Y-125550085D02*
X102316525Y-125264371D01*
X102173668Y-125550085D02*
X102173668Y-124950085D01*
X102402240Y-124950085D01*
X102459382Y-124978657D01*
X102487954Y-125007228D01*
X102516525Y-125064371D01*
X102516525Y-125150085D01*
X102487954Y-125207228D01*
X102459382Y-125235799D01*
X102402240Y-125264371D01*
X102173668Y-125264371D01*
X103087954Y-125550085D02*
X102745097Y-125550085D01*
X102916525Y-125550085D02*
X102916525Y-124950085D01*
X102859382Y-125035799D01*
X102802240Y-125092942D01*
X102745097Y-125121514D01*
X103316525Y-125007228D02*
X103345097Y-124978657D01*
X103402240Y-124950085D01*
X103545097Y-124950085D01*
X103602240Y-124978657D01*
X103630811Y-125007228D01*
X103659382Y-125064371D01*
X103659382Y-125121514D01*
X103630811Y-125207228D01*
X103287954Y-125550085D01*
X103659382Y-125550085D01*
%TO.C,R2*%
X99706418Y-114964771D02*
X99420704Y-115164771D01*
X99706418Y-115307628D02*
X99106418Y-115307628D01*
X99106418Y-115079056D01*
X99134990Y-115021913D01*
X99163561Y-114993342D01*
X99220704Y-114964771D01*
X99306418Y-114964771D01*
X99363561Y-114993342D01*
X99392132Y-115021913D01*
X99420704Y-115079056D01*
X99420704Y-115307628D01*
X99163561Y-114736199D02*
X99134990Y-114707628D01*
X99106418Y-114650485D01*
X99106418Y-114507628D01*
X99134990Y-114450485D01*
X99163561Y-114421913D01*
X99220704Y-114393342D01*
X99277847Y-114393342D01*
X99363561Y-114421913D01*
X99706418Y-114764771D01*
X99706418Y-114393342D01*
%TO.C,R13*%
X99341525Y-125550085D02*
X99141525Y-125264371D01*
X98998668Y-125550085D02*
X98998668Y-124950085D01*
X99227240Y-124950085D01*
X99284382Y-124978657D01*
X99312954Y-125007228D01*
X99341525Y-125064371D01*
X99341525Y-125150085D01*
X99312954Y-125207228D01*
X99284382Y-125235799D01*
X99227240Y-125264371D01*
X98998668Y-125264371D01*
X99912954Y-125550085D02*
X99570097Y-125550085D01*
X99741525Y-125550085D02*
X99741525Y-124950085D01*
X99684382Y-125035799D01*
X99627240Y-125092942D01*
X99570097Y-125121514D01*
X100112954Y-124950085D02*
X100484382Y-124950085D01*
X100284382Y-125178657D01*
X100370097Y-125178657D01*
X100427240Y-125207228D01*
X100455811Y-125235799D01*
X100484382Y-125292942D01*
X100484382Y-125435799D01*
X100455811Y-125492942D01*
X100427240Y-125521514D01*
X100370097Y-125550085D01*
X100198668Y-125550085D01*
X100141525Y-125521514D01*
X100112954Y-125492942D01*
%TO.C,J4*%
X102058990Y-127490085D02*
X102058990Y-127918657D01*
X102030418Y-128004371D01*
X101973275Y-128061514D01*
X101887561Y-128090085D01*
X101830418Y-128090085D01*
X102601847Y-127690085D02*
X102601847Y-128090085D01*
X102458990Y-127461514D02*
X102316132Y-127890085D01*
X102687561Y-127890085D01*
%TO.C,R17*%
X129575775Y-108689699D02*
X129375775Y-108403985D01*
X129232918Y-108689699D02*
X129232918Y-108089699D01*
X129461490Y-108089699D01*
X129518632Y-108118271D01*
X129547204Y-108146842D01*
X129575775Y-108203985D01*
X129575775Y-108289699D01*
X129547204Y-108346842D01*
X129518632Y-108375413D01*
X129461490Y-108403985D01*
X129232918Y-108403985D01*
X130147204Y-108689699D02*
X129804347Y-108689699D01*
X129975775Y-108689699D02*
X129975775Y-108089699D01*
X129918632Y-108175413D01*
X129861490Y-108232556D01*
X129804347Y-108261128D01*
X130347204Y-108089699D02*
X130747204Y-108089699D01*
X130490061Y-108689699D01*
%TO.C,R22*%
X122845918Y-102215985D02*
X122560204Y-102415985D01*
X122845918Y-102558842D02*
X122245918Y-102558842D01*
X122245918Y-102330271D01*
X122274490Y-102273128D01*
X122303061Y-102244556D01*
X122360204Y-102215985D01*
X122445918Y-102215985D01*
X122503061Y-102244556D01*
X122531632Y-102273128D01*
X122560204Y-102330271D01*
X122560204Y-102558842D01*
X122303061Y-101987413D02*
X122274490Y-101958842D01*
X122245918Y-101901699D01*
X122245918Y-101758842D01*
X122274490Y-101701699D01*
X122303061Y-101673128D01*
X122360204Y-101644556D01*
X122417347Y-101644556D01*
X122503061Y-101673128D01*
X122845918Y-102015985D01*
X122845918Y-101644556D01*
X122303061Y-101415985D02*
X122274490Y-101387413D01*
X122245918Y-101330271D01*
X122245918Y-101187413D01*
X122274490Y-101130271D01*
X122303061Y-101101699D01*
X122360204Y-101073128D01*
X122417347Y-101073128D01*
X122503061Y-101101699D01*
X122845918Y-101444556D01*
X122845918Y-101073128D01*
%TO.C,R11*%
X92251668Y-120584371D02*
X91965954Y-120784371D01*
X92251668Y-120927228D02*
X91651668Y-120927228D01*
X91651668Y-120698657D01*
X91680240Y-120641514D01*
X91708811Y-120612942D01*
X91765954Y-120584371D01*
X91851668Y-120584371D01*
X91908811Y-120612942D01*
X91937382Y-120641514D01*
X91965954Y-120698657D01*
X91965954Y-120927228D01*
X92251668Y-120012942D02*
X92251668Y-120355799D01*
X92251668Y-120184371D02*
X91651668Y-120184371D01*
X91737382Y-120241514D01*
X91794525Y-120298657D01*
X91823097Y-120355799D01*
X92251668Y-119441514D02*
X92251668Y-119784371D01*
X92251668Y-119612942D02*
X91651668Y-119612942D01*
X91737382Y-119670085D01*
X91794525Y-119727228D01*
X91823097Y-119784371D01*
%TO.C,U4*%
X105105418Y-104653799D02*
X105591132Y-104653799D01*
X105648275Y-104625228D01*
X105676847Y-104596657D01*
X105705418Y-104539514D01*
X105705418Y-104425228D01*
X105676847Y-104368085D01*
X105648275Y-104339514D01*
X105591132Y-104310942D01*
X105105418Y-104310942D01*
X105305418Y-103768085D02*
X105705418Y-103768085D01*
X105076847Y-103910942D02*
X105505418Y-104053799D01*
X105505418Y-103682371D01*
%TO.C,C12*%
X104794275Y-123460942D02*
X104765704Y-123489514D01*
X104679990Y-123518085D01*
X104622847Y-123518085D01*
X104537132Y-123489514D01*
X104479990Y-123432371D01*
X104451418Y-123375228D01*
X104422847Y-123260942D01*
X104422847Y-123175228D01*
X104451418Y-123060942D01*
X104479990Y-123003799D01*
X104537132Y-122946657D01*
X104622847Y-122918085D01*
X104679990Y-122918085D01*
X104765704Y-122946657D01*
X104794275Y-122975228D01*
X105365704Y-123518085D02*
X105022847Y-123518085D01*
X105194275Y-123518085D02*
X105194275Y-122918085D01*
X105137132Y-123003799D01*
X105079990Y-123060942D01*
X105022847Y-123089514D01*
X105594275Y-122975228D02*
X105622847Y-122946657D01*
X105679990Y-122918085D01*
X105822847Y-122918085D01*
X105879990Y-122946657D01*
X105908561Y-122975228D01*
X105937132Y-123032371D01*
X105937132Y-123089514D01*
X105908561Y-123175228D01*
X105565704Y-123518085D01*
X105937132Y-123518085D01*
%TO.C,LS2*%
X145426418Y-64755485D02*
X145426418Y-65041199D01*
X144826418Y-65041199D01*
X145397847Y-64584056D02*
X145426418Y-64498342D01*
X145426418Y-64355485D01*
X145397847Y-64298342D01*
X145369275Y-64269771D01*
X145312132Y-64241199D01*
X145254990Y-64241199D01*
X145197847Y-64269771D01*
X145169275Y-64298342D01*
X145140704Y-64355485D01*
X145112132Y-64469771D01*
X145083561Y-64526913D01*
X145054990Y-64555485D01*
X144997847Y-64584056D01*
X144940704Y-64584056D01*
X144883561Y-64555485D01*
X144854990Y-64526913D01*
X144826418Y-64469771D01*
X144826418Y-64326913D01*
X144854990Y-64241199D01*
X144883561Y-64012628D02*
X144854990Y-63984056D01*
X144826418Y-63926913D01*
X144826418Y-63784056D01*
X144854990Y-63726913D01*
X144883561Y-63698342D01*
X144940704Y-63669771D01*
X144997847Y-63669771D01*
X145083561Y-63698342D01*
X145426418Y-64041199D01*
X145426418Y-63669771D01*
%TO.C,R9*%
X92251668Y-117250657D02*
X91965954Y-117450657D01*
X92251668Y-117593514D02*
X91651668Y-117593514D01*
X91651668Y-117364942D01*
X91680240Y-117307799D01*
X91708811Y-117279228D01*
X91765954Y-117250657D01*
X91851668Y-117250657D01*
X91908811Y-117279228D01*
X91937382Y-117307799D01*
X91965954Y-117364942D01*
X91965954Y-117593514D01*
X92251668Y-116964942D02*
X92251668Y-116850657D01*
X92223097Y-116793514D01*
X92194525Y-116764942D01*
X92108811Y-116707799D01*
X91994525Y-116679228D01*
X91765954Y-116679228D01*
X91708811Y-116707799D01*
X91680240Y-116736371D01*
X91651668Y-116793514D01*
X91651668Y-116907799D01*
X91680240Y-116964942D01*
X91708811Y-116993514D01*
X91765954Y-117022085D01*
X91908811Y-117022085D01*
X91965954Y-116993514D01*
X91994525Y-116964942D01*
X92023097Y-116907799D01*
X92023097Y-116793514D01*
X91994525Y-116736371D01*
X91965954Y-116707799D01*
X91908811Y-116679228D01*
%TO.C,U12*%
X125735132Y-127015699D02*
X125735132Y-127501413D01*
X125763704Y-127558556D01*
X125792275Y-127587128D01*
X125849418Y-127615699D01*
X125963704Y-127615699D01*
X126020847Y-127587128D01*
X126049418Y-127558556D01*
X126077990Y-127501413D01*
X126077990Y-127015699D01*
X126677990Y-127615699D02*
X126335132Y-127615699D01*
X126506561Y-127615699D02*
X126506561Y-127015699D01*
X126449418Y-127101413D01*
X126392275Y-127158556D01*
X126335132Y-127187128D01*
X126906561Y-127072842D02*
X126935132Y-127044271D01*
X126992275Y-127015699D01*
X127135132Y-127015699D01*
X127192275Y-127044271D01*
X127220847Y-127072842D01*
X127249418Y-127129985D01*
X127249418Y-127187128D01*
X127220847Y-127272842D01*
X126877990Y-127615699D01*
X127249418Y-127615699D01*
%TO.C,C15*%
X122036275Y-121734056D02*
X122007704Y-121762628D01*
X121921990Y-121791199D01*
X121864847Y-121791199D01*
X121779132Y-121762628D01*
X121721990Y-121705485D01*
X121693418Y-121648342D01*
X121664847Y-121534056D01*
X121664847Y-121448342D01*
X121693418Y-121334056D01*
X121721990Y-121276913D01*
X121779132Y-121219771D01*
X121864847Y-121191199D01*
X121921990Y-121191199D01*
X122007704Y-121219771D01*
X122036275Y-121248342D01*
X122607704Y-121791199D02*
X122264847Y-121791199D01*
X122436275Y-121791199D02*
X122436275Y-121191199D01*
X122379132Y-121276913D01*
X122321990Y-121334056D01*
X122264847Y-121362628D01*
X123150561Y-121191199D02*
X122864847Y-121191199D01*
X122836275Y-121476913D01*
X122864847Y-121448342D01*
X122921990Y-121419771D01*
X123064847Y-121419771D01*
X123121990Y-121448342D01*
X123150561Y-121476913D01*
X123179132Y-121534056D01*
X123179132Y-121676913D01*
X123150561Y-121734056D01*
X123121990Y-121762628D01*
X123064847Y-121791199D01*
X122921990Y-121791199D01*
X122864847Y-121762628D01*
X122836275Y-121734056D01*
%TO.C,R18*%
X114040275Y-108710199D02*
X113840275Y-108424485D01*
X113697418Y-108710199D02*
X113697418Y-108110199D01*
X113925990Y-108110199D01*
X113983132Y-108138771D01*
X114011704Y-108167342D01*
X114040275Y-108224485D01*
X114040275Y-108310199D01*
X114011704Y-108367342D01*
X113983132Y-108395913D01*
X113925990Y-108424485D01*
X113697418Y-108424485D01*
X114611704Y-108710199D02*
X114268847Y-108710199D01*
X114440275Y-108710199D02*
X114440275Y-108110199D01*
X114383132Y-108195913D01*
X114325990Y-108253056D01*
X114268847Y-108281628D01*
X114954561Y-108367342D02*
X114897418Y-108338771D01*
X114868847Y-108310199D01*
X114840275Y-108253056D01*
X114840275Y-108224485D01*
X114868847Y-108167342D01*
X114897418Y-108138771D01*
X114954561Y-108110199D01*
X115068847Y-108110199D01*
X115125990Y-108138771D01*
X115154561Y-108167342D01*
X115183132Y-108224485D01*
X115183132Y-108253056D01*
X115154561Y-108310199D01*
X115125990Y-108338771D01*
X115068847Y-108367342D01*
X114954561Y-108367342D01*
X114897418Y-108395913D01*
X114868847Y-108424485D01*
X114840275Y-108481628D01*
X114840275Y-108595913D01*
X114868847Y-108653056D01*
X114897418Y-108681628D01*
X114954561Y-108710199D01*
X115068847Y-108710199D01*
X115125990Y-108681628D01*
X115154561Y-108653056D01*
X115183132Y-108595913D01*
X115183132Y-108481628D01*
X115154561Y-108424485D01*
X115125990Y-108395913D01*
X115068847Y-108367342D01*
%TO.C,R23*%
X126655918Y-102215985D02*
X126370204Y-102415985D01*
X126655918Y-102558842D02*
X126055918Y-102558842D01*
X126055918Y-102330271D01*
X126084490Y-102273128D01*
X126113061Y-102244556D01*
X126170204Y-102215985D01*
X126255918Y-102215985D01*
X126313061Y-102244556D01*
X126341632Y-102273128D01*
X126370204Y-102330271D01*
X126370204Y-102558842D01*
X126113061Y-101987413D02*
X126084490Y-101958842D01*
X126055918Y-101901699D01*
X126055918Y-101758842D01*
X126084490Y-101701699D01*
X126113061Y-101673128D01*
X126170204Y-101644556D01*
X126227347Y-101644556D01*
X126313061Y-101673128D01*
X126655918Y-102015985D01*
X126655918Y-101644556D01*
X126055918Y-101444556D02*
X126055918Y-101073128D01*
X126284490Y-101273128D01*
X126284490Y-101187413D01*
X126313061Y-101130271D01*
X126341632Y-101101699D01*
X126398775Y-101073128D01*
X126541632Y-101073128D01*
X126598775Y-101101699D01*
X126627347Y-101130271D01*
X126655918Y-101187413D01*
X126655918Y-101358842D01*
X126627347Y-101415985D01*
X126598775Y-101444556D01*
%TO.C,R16*%
X129575775Y-107165699D02*
X129375775Y-106879985D01*
X129232918Y-107165699D02*
X129232918Y-106565699D01*
X129461490Y-106565699D01*
X129518632Y-106594271D01*
X129547204Y-106622842D01*
X129575775Y-106679985D01*
X129575775Y-106765699D01*
X129547204Y-106822842D01*
X129518632Y-106851413D01*
X129461490Y-106879985D01*
X129232918Y-106879985D01*
X130147204Y-107165699D02*
X129804347Y-107165699D01*
X129975775Y-107165699D02*
X129975775Y-106565699D01*
X129918632Y-106651413D01*
X129861490Y-106708556D01*
X129804347Y-106737128D01*
X130661490Y-106565699D02*
X130547204Y-106565699D01*
X130490061Y-106594271D01*
X130461490Y-106622842D01*
X130404347Y-106708556D01*
X130375775Y-106822842D01*
X130375775Y-107051413D01*
X130404347Y-107108556D01*
X130432918Y-107137128D01*
X130490061Y-107165699D01*
X130604347Y-107165699D01*
X130661490Y-107137128D01*
X130690061Y-107108556D01*
X130718632Y-107051413D01*
X130718632Y-106908556D01*
X130690061Y-106851413D01*
X130661490Y-106822842D01*
X130604347Y-106794271D01*
X130490061Y-106794271D01*
X130432918Y-106822842D01*
X130404347Y-106851413D01*
X130375775Y-106908556D01*
%TO.C,C7*%
X101173275Y-114964771D02*
X101201847Y-114993342D01*
X101230418Y-115079056D01*
X101230418Y-115136199D01*
X101201847Y-115221913D01*
X101144704Y-115279056D01*
X101087561Y-115307628D01*
X100973275Y-115336199D01*
X100887561Y-115336199D01*
X100773275Y-115307628D01*
X100716132Y-115279056D01*
X100658990Y-115221913D01*
X100630418Y-115136199D01*
X100630418Y-115079056D01*
X100658990Y-114993342D01*
X100687561Y-114964771D01*
X100630418Y-114764771D02*
X100630418Y-114364771D01*
X101230418Y-114621913D01*
%TD*%
M02*
