%TF.GenerationSoftware,KiCad,Pcbnew,5.99.0-unknown-5405c09~101~ubuntu18.04.1*%
%TF.CreationDate,2020-04-21T19:36:23+03:00*%
%TF.ProjectId,Ultrasonic Flow Sensor,556c7472-6173-46f6-9e69-6320466c6f77,rev?*%
%TF.SameCoordinates,Original*%
%TF.FileFunction,Profile,NP*%
%FSLAX46Y46*%
G04 Gerber Fmt 4.6, Leading zero omitted, Abs format (unit mm)*
G04 Created by KiCad (PCBNEW 5.99.0-unknown-5405c09~101~ubuntu18.04.1) date 2020-04-21 19:36:23*
%MOMM*%
%LPD*%
G01*
G04 APERTURE LIST*
%TA.AperFunction,Profile*%
%ADD10C,0.100000*%
%TD*%
G04 APERTURE END LIST*
D10*
X149136991Y-69280010D02*
X147136990Y-69280010D01*
X142136990Y-69280010D02*
G75*
G02*
X127136990Y-95260771I-29999999J0D01*
G01*
X141136991Y-69280010D02*
X141136991Y-59280010D01*
X88684912Y-95260772D02*
X88684912Y-130260772D01*
X83136991Y-59280010D02*
X83136991Y-69280010D01*
X142136990Y-69280010D02*
X141136991Y-69280010D01*
X75136991Y-69280010D02*
X75136991Y-59280010D01*
X77136991Y-69280010D02*
X75136991Y-69280010D01*
X88684912Y-95260772D02*
G75*
G02*
X77136991Y-69280010I23452079J25980762D01*
G01*
X111286991Y-95260772D02*
X111286991Y-105260772D01*
X111286991Y-95260772D02*
X97136991Y-95260772D01*
X112986991Y-95260772D02*
X127136990Y-95260771D01*
X112986991Y-105260772D02*
X112986991Y-95260772D01*
X88684912Y-130260772D02*
X135589070Y-130260772D01*
X149136991Y-59280010D02*
X149136991Y-69280010D01*
X111286991Y-105260772D02*
X112986991Y-105260772D01*
X141136991Y-59280010D02*
X149136991Y-59280010D01*
X97136991Y-95260772D02*
G75*
G02*
X82136991Y-69280010I15000000J25980762D01*
G01*
X83136991Y-69280010D02*
X82136991Y-69280010D01*
X135589070Y-130260772D02*
X135589069Y-95260771D01*
X147136990Y-69280010D02*
G75*
G02*
X135589069Y-95260771I-34999999J0D01*
G01*
X75136991Y-59280010D02*
X83136991Y-59280010D01*
M02*
